<svg width="40" height="41" viewBox="0 0 40 41" fill="none" xmlns="http://www.w3.org/2000/svg">
<path d="M26.9796 28.4339C26.1644 27.3546 25.1097 26.4793 23.8986 25.877C22.6876 25.2747 21.3532 24.9618 20.0006 24.963C18.648 24.9618 17.3136 25.2747 16.1025 25.877C14.8915 26.4793 13.8368 27.3546 13.0216 28.4339M26.9796 28.4339C28.5703 27.0189 29.6922 25.1538 30.1986 23.086C30.705 21.0181 30.5709 18.8451 29.814 16.8553C29.057 14.8654 27.7131 13.1526 25.9604 11.9441C24.2077 10.7356 22.129 10.0884 20 10.0884C17.871 10.0884 15.7923 10.7356 14.0396 11.9441C12.2869 13.1526 10.943 14.8654 10.186 16.8553C9.42912 18.8451 9.29496 21.0181 9.80137 23.086C10.3078 25.1538 11.4308 27.0189 13.0216 28.4339M26.9796 28.4339C25.0593 30.1467 22.5738 31.0917 20.0006 31.088C17.427 31.092 14.9422 30.147 13.0216 28.4339M23.5006 17.963C23.5006 18.8913 23.1318 19.7815 22.4755 20.4379C21.8191 21.0943 20.9288 21.463 20.0006 21.463C19.0723 21.463 18.1821 21.0943 17.5257 20.4379C16.8693 19.7815 16.5006 18.8913 16.5006 17.963C16.5006 17.0348 16.8693 16.1445 17.5257 15.4882C18.1821 14.8318 19.0723 14.463 20.0006 14.463C20.9288 14.463 21.8191 14.8318 22.4755 15.4882C23.1318 16.1445 23.5006 17.0348 23.5006 17.963Z" stroke="#051F2D" stroke-width="1.5" stroke-linecap="round" stroke-linejoin="round"/>
</svg>
