<svg width="51" height="32" viewBox="0 0 51 32" fill="none" xmlns="http://www.w3.org/2000/svg">
<path d="M20.735 0.538485C20.1517 0.628601 19.8676 0.763779 19.5785 1.07356C19.3756 1.29322 19.2995 1.42276 19.2335 1.67622L19.1524 2.00289H18.8531C18.0922 2.00289 16.8443 2.27324 15.8603 2.65061C14.029 3.35465 11.9341 4.99366 10.8333 6.59325C9.29633 8.81802 8.29703 11.7412 7.82528 15.4022C7.75426 15.9429 7.67817 16.3991 7.65788 16.4217C7.57165 16.5118 4.96434 18.4606 3.3056 19.6772C1.35773 21.1078 1.00772 21.4345 0.733802 22.0934C0.586697 22.437 0.566406 22.5328 0.566406 22.9833C0.566406 23.6536 0.718584 24.0422 1.18019 24.5322C1.82948 25.225 2.76791 25.4728 3.71648 25.2081C4.4165 25.011 4.99985 24.6505 7.32816 22.9946L8.51008 22.1554L8.97675 22.3356C10.0319 22.7355 11.2594 23.5015 12.7153 24.6505C13.9276 25.6024 14.6327 26.0361 15.5255 26.3628C16.4994 26.7232 17.9857 26.9035 19.0458 26.7908C19.5328 26.7345 20.4966 26.543 20.8923 26.4134C20.9582 26.3909 20.9886 26.4416 21.0343 26.6275C21.3691 28.1144 21.7698 28.9536 22.5713 29.8435C23.3068 30.6602 24.301 31.1221 25.8279 31.3699C26.6496 31.4994 27.2634 31.5276 27.8569 31.46C29.7997 31.2404 31.2353 30.5757 32.2244 29.4211C33.0868 28.4186 33.5534 27.3315 33.9998 25.2701C34.1013 24.8195 34.2129 24.3914 34.2535 24.3238C34.3701 24.1154 34.9585 24.0028 35.1919 24.138C35.339 24.2281 35.4151 24.4365 35.6636 25.4109C35.7904 25.9065 35.9528 26.4979 36.0289 26.7289C36.5513 28.3453 37.6216 29.7985 38.8746 30.5926C39.8029 31.1784 41.5529 31.5839 42.7703 31.4938C44.3225 31.3755 45.5298 31.032 46.4175 30.4575C47.0516 30.0463 47.8429 29.0437 48.1726 28.2327C48.477 27.4836 48.7712 26.1375 49.035 24.2788L49.1516 23.4903L49.4661 23.1242C49.9988 22.5159 50.0241 22.4201 50.0191 21.2936C50.014 20.2235 49.9683 19.9532 49.7401 19.6603C49.5473 19.4181 49.2531 19.2942 48.3502 19.0801C44.8805 18.2466 41.2485 18.3085 38.6362 19.2491C38.4536 19.3167 38.0325 19.5026 37.6977 19.6659C36.6021 20.1897 36.6274 20.1841 34.8469 20.2066C33.6752 20.2179 33.2491 20.2066 33.1426 20.1503L32.9954 20.0827L33.1933 19.8349C33.5991 19.3223 33.6853 18.6915 33.6904 16.2245C33.6904 14.6925 33.6701 14.1518 33.5991 13.521C33.2339 10.4232 32.3056 8.1703 30.6063 6.2722C29.0033 4.48112 26.5178 2.94349 24.4735 2.47601L24.0322 2.37463L23.9764 2.10427C23.8344 1.34391 23.3728 0.853895 22.5916 0.617336C22.2669 0.515955 21.1713 0.470896 20.735 0.538485ZM22.13 1.74944C22.3582 1.82266 22.759 2.1268 22.759 2.22255C22.759 2.23945 22.5459 2.22819 22.2923 2.19439C22.0336 2.15496 21.5821 2.12117 21.2879 2.11554C20.9937 2.10991 20.6538 2.08738 20.5321 2.07048L20.3089 2.03105L20.522 1.89588C20.6437 1.82266 20.801 1.7438 20.872 1.72128C21.1053 1.64242 21.8611 1.65932 22.13 1.74944ZM21.5923 3.47293C21.9118 3.50673 22.2517 3.57431 22.343 3.61937C22.5814 3.74328 23.3271 4.65009 23.6822 5.24149C24.4938 6.60451 25.0569 8.35054 25.3206 10.3556C25.5083 11.7975 25.5083 14.2251 25.3257 15.9429C25.2242 16.8554 24.996 18.286 24.9351 18.3705C24.9097 18.4043 24.6916 18.4493 24.4431 18.4662C24.1996 18.4831 23.7228 18.5394 23.3829 18.5958L22.764 18.6971L22.3937 18.5113C18.6248 16.6075 15.7436 15.6163 13.3747 15.4135C12.2435 15.3121 10.6659 15.4417 9.4485 15.7233C9.25575 15.7683 9.08835 15.7909 9.07821 15.7796C9.04777 15.7458 9.19488 14.6306 9.32169 13.8871C9.75793 11.3582 10.6406 9.1278 11.8935 7.36488C12.3348 6.73969 13.3087 5.70897 13.8819 5.25838C15.8298 3.72075 18.3205 3.14062 21.5923 3.47293ZM25.346 4.11502C27.9381 5.28654 29.5968 6.72279 30.8903 8.90251C31.6208 10.1416 32.1433 11.882 32.3462 13.7745C32.4375 14.6081 32.473 17.4806 32.402 18.1621C32.3259 18.8774 32.2904 18.9844 32.0824 19.1252C31.8389 19.2885 31.5295 19.2716 30.4389 19.0182C29.0084 18.6859 27.441 18.4493 26.6801 18.4493C26.538 18.4493 26.4062 18.4268 26.3859 18.3986C26.3707 18.3705 26.4062 18.0325 26.4569 17.6495C26.675 16.1513 26.7359 15.2333 26.7359 13.2676C26.7359 11.7919 26.7156 11.2005 26.6446 10.564C26.3656 7.9957 25.696 5.77093 24.7982 4.37974C24.646 4.14318 24.509 3.91225 24.4938 3.87283C24.4532 3.75455 24.717 3.82777 25.346 4.11502ZM13.1464 16.8216C14.9573 16.9511 17.0777 17.5763 19.7763 18.7647L20.7807 19.2041L20.4865 19.3561C20.3292 19.435 20.1567 19.5533 20.1111 19.6096C19.8777 19.9025 19.7053 20.7135 19.6951 21.5753C19.6901 22.1385 19.7002 22.223 19.827 22.5215C19.9132 22.7243 20.0756 22.9665 20.2734 23.1692C20.5727 23.4846 20.5778 23.5015 20.5828 23.8C20.5828 23.969 20.598 24.2901 20.6183 24.5153C20.6386 24.735 20.6488 24.9434 20.6386 24.9772C20.6133 25.0617 19.9132 25.2982 19.3553 25.4109C18.635 25.5517 17.3567 25.5404 16.6871 25.3827C15.6117 25.1349 14.9269 24.7688 13.6588 23.7775C11.6348 22.2005 10.6203 21.564 9.16444 20.9557C8.02311 20.477 6.93757 20.2179 5.75566 20.1447C5.37015 20.1221 5.04043 20.0827 5.02521 20.0658C5.00492 20.0489 5.19768 19.8856 5.44116 19.711C5.68972 19.5364 6.51148 18.945 7.26222 18.4043C8.01804 17.8579 8.77892 17.3397 8.95646 17.2496C9.32676 17.0638 9.91518 16.8892 10.392 16.8216C10.8638 16.754 12.2232 16.754 13.1464 16.8216ZM45.1037 19.8574C45.4689 19.8912 46.0371 19.9532 46.3719 20.0038C47.1023 20.1052 48.7306 20.4544 48.7915 20.522C48.8524 20.5896 48.9538 21.8456 48.9132 22.0259C48.8879 22.1272 48.8168 22.2005 48.6647 22.2737C48.4212 22.392 48.1523 22.6848 48.0762 22.9158C48.0458 23.0059 47.9748 23.5353 47.9139 24.0986C47.64 26.8021 47.1835 28.1369 46.2045 29.1001C45.4588 29.8266 43.9522 30.2096 42.0855 30.1477C40.3304 30.0857 39.3362 29.6577 38.3775 28.5537C37.5354 27.5793 37.1296 26.6556 36.6325 24.5886C36.5057 24.0535 36.3687 23.5297 36.3231 23.4283C36.1354 22.9946 35.7397 22.8425 34.8114 22.8425C34.0658 22.8425 33.8426 22.8932 33.6143 23.1073C33.4013 23.3044 33.3455 23.4396 33.1578 24.2225C32.8839 25.3827 32.5592 26.5599 32.4222 26.8809C31.986 27.9398 31.215 28.9198 30.4389 29.4098C29.2164 30.1758 26.9591 30.3842 25.0619 29.9111C24.2554 29.7084 23.8445 29.4605 23.2865 28.841C22.8909 28.4017 22.7894 28.2496 22.5865 27.7877C22.201 26.9091 21.9981 25.8671 21.7039 23.2762C21.643 22.7524 21.5111 22.5271 21.1205 22.2962L20.8568 22.1385L20.8669 21.4514C20.8669 21.0796 20.8973 20.7191 20.9278 20.6516C21.0191 20.4657 21.9068 20.1953 23.2155 19.9588C24.1387 19.7954 26.5736 19.7504 27.9076 19.8799C29.9012 20.0714 30.7635 20.3136 32.336 21.1078L33.0157 21.4457L34.9281 21.4514H36.8405L37.4086 21.1641C38.1695 20.7698 38.626 20.5671 39.1688 20.3925C40.8529 19.8461 42.8921 19.6659 45.1037 19.8574ZM6.44553 21.5696C6.66365 21.6147 6.86656 21.6766 6.89192 21.7048C6.91221 21.7273 6.8412 21.8062 6.71945 21.885C6.59771 21.9583 6.03973 22.3413 5.47667 22.7412C4.27447 23.586 3.8433 23.8282 3.35633 23.9183C2.54471 24.0704 1.80919 23.6198 1.80919 22.9721C1.80919 22.7074 2.01717 22.3356 2.28094 22.1329C2.54471 21.9301 3.3056 21.6316 3.85344 21.5133C4.30997 21.4176 5.85711 21.4514 6.44553 21.5696Z" fill="white"/>
<path d="M42.1992 29.104C42.7418 29.1311 43.3489 29.087 43.8945 28.9946C44.377 28.9129 44.7925 28.7965 45.0693 28.6675L45.1787 28.6118C45.5937 28.3777 45.9814 27.8285 46.2754 26.9839C46.5662 26.1485 46.751 25.0634 46.791 23.8198C46.8339 22.5025 46.6929 21.9395 46.375 21.6001L46.3096 21.5347C45.8638 21.1303 45.3738 21.003 43.5068 21.02C42.7899 21.0257 42.1201 21.0373 42.0059 21.0474H42.0039C40.9146 21.1361 39.6105 21.4245 38.9395 21.7192L38.9385 21.7202C38.5062 21.9085 38.1934 22.1371 37.9824 22.4019C37.7733 22.6643 37.654 22.9747 37.627 23.3452C37.5975 23.76 37.7333 24.5285 37.9639 25.3374C38.193 26.1411 38.5013 26.9325 38.7871 27.3901V27.3911C39.1445 27.9664 39.5649 28.37 40.1016 28.6421C40.6423 28.9162 41.3178 29.0655 42.1973 29.104H42.1992Z" stroke="white" stroke-width="0.5"/>
<path d="M27.1797 29.0981C27.756 29.103 28.2989 29.0692 28.6084 29.0024V29.0015C29.1998 28.8685 29.6576 28.6806 30.0352 28.4146C30.4118 28.1491 30.7222 27.797 31.0049 27.3169C31.3947 26.6536 31.7594 25.5743 31.9512 24.519L32.0225 24.0698C32.1205 23.3458 32.087 23.0304 31.9092 22.6206C31.8337 22.4479 31.7551 22.3235 31.6572 22.2192C31.5587 22.1144 31.4306 22.0199 31.2432 21.9185L31.2412 21.9175C30.987 21.7777 30.4912 21.6019 29.9326 21.4478C29.3789 21.2949 28.7911 21.1704 28.3633 21.1245H28.3623C27.776 21.0605 27.0543 21.012 26.4121 20.9868C25.7631 20.9614 25.2156 20.9603 24.9688 20.9888H24.9678C24.6571 21.0233 24.3382 21.0984 24.0693 21.1929C23.792 21.2903 23.5984 21.3982 23.5117 21.4829L23.4502 21.5493C23.3075 21.7151 23.1719 21.9677 23.0908 22.2466H23.0898C23.0325 22.4541 22.9905 22.8162 22.9736 23.2603C22.9569 23.7003 22.9657 24.2029 23.0029 24.6802C23.1592 26.6336 23.6203 27.8568 24.3262 28.4585C24.4864 28.5952 24.6108 28.6772 24.7881 28.7476C24.9748 28.8216 25.2271 28.8849 25.6504 28.9722C26.0255 29.049 26.6043 29.0933 27.1797 29.0981Z" stroke="white" stroke-width="0.5"/>
</svg>
