<svg width="38" height="31" viewBox="0 0 38 31" fill="none" xmlns="http://www.w3.org/2000/svg">
<path d="M14.8311 0.87221C14.9311 0.908474 15.0311 0.944739 15.1341 0.982102C15.2352 1.01988 15.3362 1.05767 15.4404 1.09659C15.6444 1.17168 15.8485 1.24648 16.0529 1.32097C16.1419 1.35413 16.2309 1.38728 16.3226 1.42144C18.0084 1.98197 20.3364 1.74295 21.9535 1.15545C22.0974 1.10052 22.2413 1.04559 22.3896 0.988999C22.6039 0.907518 22.6039 0.907518 22.8225 0.824391C23.0091 0.746779 23.0091 0.746779 23.1994 0.667599C24.0865 0.447587 25.0028 0.739523 25.85 0.984401C25.9551 1.01419 26.0603 1.04398 26.1687 1.07467C26.3898 1.13756 26.6108 1.2009 26.8315 1.26465C27.1651 1.36076 27.4993 1.45499 27.8337 1.54903C30.5022 2.30682 32.1572 3.13763 33.4913 5.34881C33.5853 5.50032 33.6797 5.65169 33.7744 5.80292C33.9654 6.10824 34.1553 6.41404 34.3445 6.72017C34.7415 7.35933 35.1619 7.98699 35.582 8.61523C35.8579 9.03181 36.133 9.4488 36.408 9.86588C36.4986 10.003 36.4986 10.003 36.5911 10.1429C36.7525 10.3882 36.9119 10.6344 37.0705 10.8811C37.1565 11.0137 37.2426 11.1463 37.3313 11.283C37.5132 11.6391 37.5871 11.8384 37.5093 12.2201C36.9439 12.8528 36.0161 13.2776 35.2454 13.7052C34.5348 14.1055 33.8541 14.5433 33.1722 14.9782C31.6015 15.9649 31.6015 15.9649 30.7466 16.0088C29.9916 15.7421 29.5975 15.1836 29.2496 14.5742C29.2494 14.6545 29.2492 14.7347 29.249 14.8174C29.2439 16.7694 29.2357 18.7214 29.2242 20.6734C29.2188 21.6174 29.2143 22.5613 29.2123 23.5053C29.2105 24.328 29.2068 25.1507 29.2007 25.9734C29.1976 26.4091 29.1955 26.8447 29.1956 27.2804C29.1957 27.7666 29.1916 28.2527 29.187 28.7389C29.1881 28.956 29.1881 28.956 29.1891 29.1774C29.1872 29.3098 29.1853 29.4421 29.1833 29.5785C29.1826 29.751 29.1826 29.751 29.1818 29.927C29.0895 30.3265 28.9453 30.4631 28.5613 30.7003C28.1894 30.7592 28.1894 30.7592 27.7557 30.7593C27.5911 30.7605 27.4264 30.7616 27.2568 30.7628C26.9866 30.7611 26.9866 30.7611 26.7109 30.7594C26.5189 30.7598 26.3269 30.7605 26.1349 30.7613C25.6138 30.7629 25.0928 30.7616 24.5717 30.7597C24.0266 30.758 23.4815 30.7588 22.9364 30.7592C22.0211 30.7595 21.1059 30.7579 20.1906 30.7552C19.132 30.7521 18.0734 30.7519 17.0147 30.7533C15.9967 30.7545 14.9787 30.7538 13.9607 30.7521C13.5272 30.7515 13.0938 30.7515 12.6603 30.752C12.1501 30.7526 11.64 30.7514 11.1299 30.7489C10.8529 30.7479 10.576 30.7487 10.2991 30.7495C10.1348 30.7483 9.97059 30.7471 9.80136 30.7459C9.6583 30.7456 9.51524 30.7454 9.36785 30.7451C8.96136 30.6937 8.84372 30.6237 8.6003 30.3472C8.42289 30.0438 8.44346 29.8245 8.44086 29.4846C8.43951 29.3516 8.43816 29.2186 8.43677 29.0815C8.43598 28.9349 8.43519 28.7882 8.43437 28.6371C8.43301 28.4832 8.43165 28.3294 8.43024 28.1708C8.42651 27.7482 8.42362 27.3255 8.42088 26.9029C8.41787 26.4614 8.4141 26.02 8.41041 25.5785C8.40353 24.7423 8.39735 23.9061 8.39141 23.0698C8.38462 22.1179 8.37706 21.166 8.36943 20.2141C8.35375 18.2557 8.33905 16.2972 8.32498 14.3388C8.27334 14.4282 8.2217 14.5176 8.16849 14.6096C8.06282 14.7851 8.06282 14.7851 7.95501 14.9641C7.88633 15.0802 7.81766 15.1963 7.7469 15.3159C7.47246 15.6676 7.25716 15.8115 6.8107 15.9867C6.16862 15.9673 5.77318 15.7898 5.2534 15.4791C5.11037 15.3944 4.96734 15.3098 4.81998 15.2225C4.6575 15.1242 4.49511 15.0258 4.33278 14.9274C4.14461 14.8142 3.9564 14.7011 3.76816 14.588C3.46857 14.4079 3.16947 14.2274 2.87157 14.0452C2.40413 13.7597 1.93557 13.4803 1.44995 13.2178C1.32536 13.1491 1.32536 13.1491 1.19826 13.0789C0.9754 12.9568 0.750552 12.8373 0.525576 12.718C0.202932 12.4555 0.202932 12.4555 0.0351562 12.0936C0.08046 11.3984 0.477087 10.9235 0.89124 10.3367C1.02385 10.1298 1.1551 9.92233 1.28487 9.71415C1.97234 8.62776 2.66446 7.54543 3.40743 6.4859C3.7153 6.04662 4.01243 5.60436 4.29837 5.15432C5.75856 2.8748 7.70455 2.11235 10.514 1.31617C10.8486 1.22089 11.1818 1.12262 11.5151 1.02417C11.7302 0.962454 11.9454 0.900911 12.1607 0.839564C12.2589 0.810275 12.3572 0.780987 12.4584 0.75081C13.3025 0.516792 14.0102 0.568083 14.8311 0.87221ZM24.982 2.45024C24.9468 2.56109 24.9115 2.67194 24.8752 2.78615C24.8276 2.93279 24.78 3.07944 24.7309 3.23052C24.6843 3.37536 24.6377 3.5202 24.5897 3.66943C24.1671 4.8141 23.4716 5.79933 22.2471 6.41555C20.561 7.16337 18.7292 7.45953 16.8552 7.05559C15.3219 6.6219 14.1211 5.87708 13.2808 4.6867C12.9109 3.99681 12.6211 3.31336 12.4548 2.56795C11.4828 2.71605 10.5531 2.92222 9.61555 3.18592C9.49311 3.21824 9.37067 3.25056 9.24451 3.28386C6.99605 3.91435 6.12856 5.46479 5.00389 7.12916C4.85043 7.35508 4.69679 7.58091 4.54313 7.80673C4.44 7.95833 4.33693 8.10996 4.23393 8.26162C3.90348 8.74779 3.56921 9.23183 3.23203 9.71461C3.14874 9.83398 3.06544 9.95336 2.97963 10.0764C2.82354 10.2997 2.66703 10.5227 2.51004 10.7456C2.40693 10.8935 2.40693 10.8935 2.30174 11.0443C2.24166 11.1299 2.18158 11.2154 2.11968 11.3035C1.97146 11.5092 1.97146 11.5092 1.99253 11.7492C2.21655 11.9123 2.21655 11.9123 2.51145 12.0738C2.62183 12.1374 2.73221 12.2009 2.84593 12.2664C2.96465 12.3337 3.08336 12.4009 3.20568 12.4702C3.44618 12.6081 3.68656 12.7462 3.92679 12.8845C4.04384 12.9518 4.1609 13.0191 4.2815 13.0884C4.81514 13.4005 5.3299 13.7324 5.84276 14.0689C6.12521 14.2527 6.12521 14.2527 6.53537 14.2211C6.58742 14.1279 6.63947 14.0347 6.6931 13.9387C6.88756 13.5909 7.08232 13.2432 7.27729 12.8956C7.36139 12.7455 7.44536 12.5954 7.52922 12.4452C7.65022 12.2286 7.77165 12.0121 7.89317 11.7957C7.96598 11.6656 8.03879 11.5355 8.11381 11.4015C8.30669 11.074 8.49918 10.7591 8.73796 10.4544C9.12802 10.3675 9.43038 10.4206 9.83925 10.4544C10.0898 10.6687 9.99683 11.0042 9.9987 11.2923C9.99972 11.4064 9.99972 11.4064 10.0008 11.5228C10.0029 11.7794 10.004 12.0361 10.0052 12.2927C10.0065 12.476 10.0079 12.6592 10.0093 12.8425C10.013 13.3415 10.0159 13.8405 10.0187 14.3395C10.0217 14.8605 10.0254 15.3814 10.0291 15.9023C10.036 16.8895 10.0422 17.8767 10.0481 18.8638C10.0562 20.1973 10.0653 21.5307 10.0744 22.8642C10.0887 24.9662 10.1015 27.0681 10.1146 29.1701C15.8386 29.1701 21.5625 29.1701 27.46 29.1701C27.4683 27.8289 27.4766 26.4877 27.4852 25.1059C27.4908 24.2589 27.4964 23.4119 27.5022 22.5648C27.5113 21.2189 27.5203 19.8729 27.5284 18.5269C27.5343 17.5468 27.5407 16.5668 27.5476 15.5867C27.5513 15.0674 27.5547 14.5481 27.5576 14.0288C27.5603 13.5407 27.5636 13.0525 27.5674 12.5643C27.5687 12.3846 27.5698 12.2049 27.5706 12.0252C27.5717 11.7809 27.5737 11.5366 27.5758 11.2923C27.5767 11.1553 27.5776 11.0183 27.5785 10.8771C27.5976 10.5721 27.5976 10.5721 27.7353 10.4544C28.1029 10.4378 28.4682 10.4494 28.8366 10.4544C29.5983 11.7383 30.3232 13.0359 31.0392 14.3388C31.8185 13.9764 32.5271 13.5588 33.2418 13.1102C33.454 12.9779 33.6662 12.8457 33.8784 12.7134C33.9794 12.6503 34.0804 12.5872 34.1844 12.5222C34.6023 12.2621 35.0231 12.0055 35.4443 11.7492C35.3649 11.3208 35.232 11.002 34.9792 10.6269C34.9102 10.5235 34.8412 10.4201 34.77 10.3135C34.6944 10.2022 34.6188 10.0909 34.5409 9.97623C34.3785 9.73438 34.2161 9.49253 34.0537 9.25067C33.9671 9.12227 33.8805 8.99386 33.7912 8.86157C33.504 8.43397 33.2204 8.00478 32.9374 7.57516C32.7913 7.35401 32.645 7.1329 32.4987 6.91182C32.4043 6.76892 32.3101 6.62591 32.2162 6.48279C30.8349 4.38093 29.6726 3.58754 26.9609 2.93579C26.7682 2.88812 26.5755 2.8403 26.3829 2.79233C25.9165 2.67654 25.4495 2.56282 24.982 2.45024Z" fill="white"/>
<path d="M22.9178 2.56836C23.0456 2.86531 23.0671 3.00827 22.9523 3.31369C22.3246 4.37865 21.6867 5.00921 20.3614 5.42555C18.9634 5.78301 17.6145 5.74201 16.3101 5.15795C15.391 4.62836 14.7142 3.9559 14.3828 3.03919C14.4282 2.92266 14.4737 2.80613 14.5205 2.68607C14.6301 2.71869 14.7398 2.75131 14.8528 2.78492C14.9987 2.82756 15.1445 2.8702 15.2948 2.91413C15.4386 2.95646 15.5823 2.9988 15.7304 3.04241C16.7074 3.29548 17.6539 3.29993 18.6675 3.30404C18.8874 3.30768 18.8874 3.30768 19.1117 3.31139C20.4482 3.31694 21.7495 3.15112 22.9178 2.56836Z" fill="#051F2D"/>
</svg>
