<svg width="41" height="38" viewBox="0 0 41 38" fill="none" xmlns="http://www.w3.org/2000/svg">
<path d="M12.2803 0.566208C12.5071 0.566187 12.7339 0.565978 12.9607 0.565592C13.4343 0.565399 13.9079 0.567142 14.3816 0.570335C14.9868 0.574304 15.5919 0.573916 16.1971 0.572139C16.6649 0.571164 17.1326 0.572258 17.6003 0.573991C17.8234 0.574619 18.0465 0.574671 18.2696 0.574121C18.5819 0.573712 18.8942 0.576331 19.2065 0.579066C19.4724 0.580199 19.4724 0.580199 19.7436 0.581354C20.4311 0.655687 20.9847 0.862952 21.4935 1.26908C22.0076 1.84388 22.2261 2.12357 22.2211 2.84125C22.2205 2.97271 22.22 3.10417 22.2195 3.23962C22.2181 3.3772 22.2167 3.51479 22.2153 3.65654C22.2146 3.7952 22.2138 3.93387 22.2131 4.07673C22.2111 4.41981 22.2085 4.76286 22.2051 5.10593C22.2968 5.11267 22.3885 5.11941 22.483 5.12636C26.1783 5.43224 29.3343 7.04993 31.7323 9.41919C33.1736 10.9672 35.1123 13.2447 35.1123 15.3041C35.2942 15.3098 35.4762 15.3156 35.6637 15.3215C37.0918 15.4812 38.1787 16.2816 39.0736 17.1999C40.4236 18.7989 40.7127 20.5074 40.5038 22.4288C40.2299 23.533 39.7051 24.3975 38.6147 25.0569C37.6416 25.4623 36.5298 25.5327 35.4996 25.2408C33.6233 24.4937 32.7937 23.3186 32.008 21.7303C31.4156 20.2847 31.3587 18.3596 32.1331 16.9587C32.3348 16.7011 32.3348 16.7011 32.8147 16.3693C33.1942 16.0369 33.1942 16.0369 33.1402 15.6719C32.465 12.9755 30.5333 10.3336 27.8526 8.78835C27.4468 8.57396 27.0349 8.375 26.6164 8.17934C26.4947 8.11758 26.3729 8.05581 26.2475 7.99217C24.9838 7.38962 23.6086 7.17123 22.2051 6.92204C22.2104 7.09564 22.2156 7.26924 22.2211 7.4481C22.2199 8.09861 22.0693 8.52885 21.5516 9.01755C21.2593 9.13869 21.2593 9.13869 20.9491 9.24456C20.637 9.35325 20.637 9.35325 20.4079 9.57635C20.256 10.1821 20.2372 10.7743 20.2445 11.3925C20.4577 11.386 20.6708 11.3795 20.8904 11.3728C23.7442 11.3114 25.6758 11.7583 27.8009 13.4618C29.3042 14.8094 29.9313 16.2785 29.9096 18.1179C29.8596 19.1734 29.7138 20.2191 29.5675 21.2675C29.5417 21.4557 29.5417 21.4557 29.5154 21.6478C29.1791 24.0841 28.7594 26.5093 28.3217 28.9336C28.2908 29.1062 28.2598 29.2788 28.228 29.4566C27.9413 31.0486 27.6515 32.6403 27.261 34.2166C27.2375 34.3155 27.214 34.4145 27.1898 34.5165C26.9513 35.4273 26.5032 35.987 25.6361 36.5386C24.4549 37.0372 23.3437 37.1791 22.041 37.1697C21.7864 37.1711 21.7864 37.1711 21.5267 37.1726C20.9714 37.1751 20.4162 37.1735 19.861 37.1716C19.4718 37.172 19.0827 37.1725 18.6936 37.1732C17.8804 37.174 17.0674 37.1728 16.2542 37.1702C15.215 37.167 14.1759 37.1689 13.1367 37.1722C12.334 37.1742 11.5313 37.1736 10.7285 37.1721C10.3455 37.1718 9.9624 37.1722 9.57933 37.1735C9.04297 37.175 8.50678 37.1728 7.97043 37.1697C7.81413 37.1708 7.65783 37.1719 7.4968 37.1731C6.32581 37.1606 5.15139 36.984 4.24612 36.3023C3.37612 35.5073 3.04978 34.5754 2.85011 33.5197C2.83084 33.4199 2.81156 33.32 2.79169 33.2171C2.72946 32.8925 2.6694 32.5677 2.60951 32.2428C2.5663 32.0135 2.523 31.7843 2.47963 31.555C2.37298 30.9887 2.26834 30.4221 2.16457 29.8554C2.11573 29.5893 2.06618 29.3234 2.01653 29.0575C1.81351 27.9674 1.62952 26.8754 1.45563 25.7816C1.42646 25.5987 1.42646 25.5987 1.39671 25.4121C1.25877 24.544 1.12432 23.6755 0.992764 22.8066C0.948088 22.5131 0.902796 22.2196 0.856825 21.9262C0.632028 20.4854 0.435632 19.0566 0.425555 17.6015C0.42434 17.4953 0.423126 17.3891 0.421875 17.2796C0.433804 16.3202 0.737669 15.5685 1.29224 14.7453C1.36701 14.6325 1.44178 14.5198 1.51881 14.4037C2.61109 12.894 4.20047 11.7376 6.25688 11.3117C6.68472 11.2526 7.08112 11.2368 7.51415 11.2391C7.66632 11.2396 7.81848 11.24 7.97526 11.2405C8.21045 11.2422 8.21045 11.2422 8.4504 11.244C8.61036 11.2447 8.77032 11.2453 8.93512 11.2459C9.32837 11.2476 9.72161 11.2501 10.1149 11.2528C10.1149 10.6995 10.1149 10.1463 10.1149 9.57635C9.96996 9.54754 9.82506 9.51872 9.67577 9.48904C8.92085 9.2211 8.52366 8.81103 8.15427 8.17934C8.13644 7.98554 8.1283 7.79105 8.12536 7.59667C8.12221 7.41616 8.12221 7.41616 8.119 7.23201C8.11779 7.10162 8.11659 6.97124 8.11534 6.83691C8.11403 6.70286 8.11271 6.5688 8.11135 6.43069C8.10909 6.1465 8.10733 5.8623 8.10605 5.5781C8.10324 5.14452 8.09607 4.71109 8.08886 4.27755C8.0872 4.00142 8.08581 3.7253 8.08471 3.44917C8.08185 3.31992 8.07899 3.19067 8.07604 3.0575C8.0791 2.27618 8.16246 1.79311 8.8078 1.19432C9.85071 0.463239 10.9838 0.556092 12.2803 0.566208Z" fill="#051F2D"/>
<path d="M12.2803 0.566208C12.5071 0.566187 12.7339 0.565978 12.9607 0.565592C13.4343 0.565399 13.9079 0.567142 14.3816 0.570335C14.9868 0.574304 15.5919 0.573916 16.1971 0.572139C16.6649 0.571164 17.1326 0.572258 17.6003 0.573991C17.8234 0.574619 18.0465 0.574671 18.2696 0.574121C18.5819 0.573712 18.8942 0.576331 19.2065 0.579066C19.4724 0.580199 19.4724 0.580199 19.7436 0.581354C20.4311 0.655687 20.9847 0.862952 21.4935 1.26908C22.0076 1.84388 22.2261 2.12357 22.2211 2.84125C22.2205 2.97271 22.22 3.10417 22.2195 3.23962C22.2181 3.3772 22.2167 3.51479 22.2153 3.65654C22.2146 3.7952 22.2138 3.93387 22.2131 4.07673C22.2111 4.41981 22.2085 4.76286 22.2051 5.10593C22.2968 5.11267 22.3885 5.11941 22.483 5.12636C26.1783 5.43224 29.3343 7.04993 31.7323 9.41919C33.1736 10.9672 35.1123 13.2447 35.1123 15.3041C35.2942 15.3098 35.4762 15.3156 35.6637 15.3215C37.0918 15.4812 38.1787 16.2816 39.0736 17.1999C40.4236 18.7989 40.7127 20.5074 40.5038 22.4288C40.2299 23.533 39.7051 24.3975 38.6147 25.0569C37.6416 25.4623 36.5298 25.5327 35.4996 25.2408C33.6233 24.4937 32.7937 23.3186 32.008 21.7303C31.4156 20.2847 31.3587 18.3596 32.1331 16.9587C32.3348 16.7011 32.3348 16.7011 32.8147 16.3693C33.1942 16.0369 33.1942 16.0369 33.1402 15.6719C32.465 12.9755 30.5333 10.3336 27.8526 8.78835C27.4468 8.57396 27.0349 8.375 26.6164 8.17934C26.4947 8.11758 26.3729 8.05581 26.2475 7.99217C24.9838 7.38962 23.6086 7.17123 22.2051 6.92204C22.2104 7.09564 22.2156 7.26924 22.2211 7.4481C22.2199 8.09861 22.0693 8.52885 21.5516 9.01755C21.2593 9.13869 21.2593 9.13869 20.9491 9.24456C20.637 9.35325 20.637 9.35325 20.4079 9.57635C20.256 10.1821 20.2372 10.7743 20.2445 11.3925C20.4577 11.386 20.6708 11.3795 20.8904 11.3728C23.7442 11.3114 25.6758 11.7583 27.8009 13.4618C29.3042 14.8094 29.9313 16.2785 29.9096 18.1179C29.8596 19.1734 29.7138 20.2191 29.5675 21.2675C29.5417 21.4557 29.5417 21.4557 29.5154 21.6478C29.1791 24.0841 28.7594 26.5093 28.3217 28.9336C28.2908 29.1062 28.2598 29.2788 28.228 29.4566C27.9413 31.0486 27.6515 32.6403 27.261 34.2166C27.2375 34.3155 27.214 34.4145 27.1898 34.5165C26.9513 35.4273 26.5032 35.987 25.6361 36.5386C24.4549 37.0372 23.3437 37.1791 22.041 37.1697C21.7864 37.1711 21.7864 37.1711 21.5267 37.1726C20.9714 37.1751 20.4162 37.1735 19.861 37.1716C19.4718 37.172 19.0827 37.1725 18.6936 37.1732C17.8804 37.174 17.0674 37.1728 16.2542 37.1702C15.215 37.167 14.1759 37.1689 13.1367 37.1722C12.334 37.1742 11.5313 37.1736 10.7285 37.1721C10.3455 37.1718 9.9624 37.1722 9.57933 37.1735C9.04297 37.175 8.50678 37.1728 7.97043 37.1697C7.81413 37.1708 7.65783 37.1719 7.4968 37.1731C6.32581 37.1606 5.15139 36.984 4.24612 36.3023C3.37612 35.5073 3.04978 34.5754 2.85011 33.5197C2.83084 33.4199 2.81156 33.32 2.79169 33.2171C2.72946 32.8925 2.6694 32.5677 2.60951 32.2428C2.5663 32.0135 2.523 31.7843 2.47963 31.555C2.37298 30.9887 2.26834 30.4221 2.16457 29.8554C2.11573 29.5893 2.06618 29.3234 2.01653 29.0575C1.81351 27.9674 1.62952 26.8754 1.45563 25.7816C1.42646 25.5987 1.42646 25.5987 1.39671 25.4121C1.25877 24.544 1.12432 23.6755 0.992764 22.8066C0.948088 22.5131 0.902796 22.2196 0.856825 21.9262C0.632028 20.4854 0.435632 19.0566 0.425555 17.6015C0.42434 17.4953 0.423126 17.3891 0.421875 17.2796C0.433804 16.3202 0.737669 15.5685 1.29224 14.7453C1.36701 14.6325 1.44178 14.5198 1.51881 14.4037C2.61109 12.894 4.20047 11.7376 6.25688 11.3117C6.68472 11.2526 7.08112 11.2368 7.51415 11.2391C7.66632 11.2396 7.81848 11.24 7.97526 11.2405C8.21045 11.2422 8.21045 11.2422 8.4504 11.244C8.61036 11.2447 8.77032 11.2453 8.93512 11.2459C9.32837 11.2476 9.72161 11.2501 10.1149 11.2528C10.1149 10.6995 10.1149 10.1463 10.1149 9.57635C9.96996 9.54754 9.82506 9.51872 9.67577 9.48904C8.92085 9.2211 8.52366 8.81103 8.15427 8.17934C8.13644 7.98554 8.1283 7.79105 8.12536 7.59667C8.12221 7.41616 8.12221 7.41616 8.119 7.23201C8.11779 7.10162 8.11659 6.97124 8.11534 6.83691C8.11403 6.70286 8.11271 6.5688 8.11135 6.43069C8.10909 6.1465 8.10733 5.8623 8.10605 5.5781C8.10324 5.14452 8.09607 4.71109 8.08886 4.27755C8.0872 4.00142 8.08581 3.7253 8.08471 3.44917C8.08185 3.31992 8.07899 3.19067 8.07604 3.0575C8.0791 2.27618 8.16246 1.79311 8.8078 1.19432C9.85071 0.463239 10.9838 0.556092 12.2803 0.566208ZM3.53874 14.9461C2.07597 16.7775 2.42398 18.5466 2.71162 20.6564C2.72616 20.7648 2.7407 20.8732 2.75567 20.9848C2.84848 21.6768 2.94383 22.3684 3.04084 23.0599C3.08829 23.3985 3.13523 23.7372 3.18214 24.0759C3.53266 26.5894 3.95526 29.0833 4.50882 31.5705C4.53339 31.681 4.55796 31.7915 4.58328 31.9053C4.73139 32.5663 4.8807 33.2269 5.05002 33.8843C5.08558 34.0555 5.12113 34.2268 5.15776 34.4032C5.3988 34.9083 5.61487 35.056 6.16971 35.308C6.8353 35.5223 7.50627 35.4972 8.20952 35.491C8.45839 35.4922 8.45839 35.4922 8.71229 35.4933C9.25836 35.4951 9.80429 35.4928 10.3504 35.4903C10.731 35.4903 11.1116 35.4905 11.4923 35.4909C12.289 35.4911 13.0856 35.4893 13.8823 35.4861C14.9029 35.4822 15.9234 35.4826 16.944 35.4843C17.7297 35.4853 18.5153 35.4842 19.3009 35.4825C19.6772 35.4818 20.0535 35.4818 20.4298 35.4823C20.9558 35.4828 21.4816 35.4804 22.0076 35.4774C22.1627 35.478 22.3178 35.4787 22.4776 35.4793C23.4576 35.4699 24.2006 35.3703 24.943 34.7694C25.2391 34.2932 25.3407 33.7983 25.4523 33.2731C25.4793 33.1514 25.5063 33.0297 25.534 32.9044C25.6252 32.4863 25.7128 32.0678 25.7995 31.649C25.8311 31.4979 25.8627 31.3468 25.8953 31.1911C26.6526 27.5376 27.2669 23.8588 27.7064 20.1671C27.7385 19.8974 27.7718 19.6278 27.8052 19.3582C27.9983 17.6339 27.9384 16.2715 26.6675 14.8577C25.6787 13.9312 24.1907 13.1356 22.6936 13.0501C22.577 13.0495 22.4604 13.0489 22.3404 13.0483C22.2057 13.0473 22.0711 13.0463 21.9324 13.0453C21.786 13.0449 21.6397 13.0445 21.4889 13.0441C21.2561 13.0428 21.2561 13.0428 21.0185 13.0414C20.5048 13.0386 19.9911 13.037 19.4774 13.0356C19.3016 13.035 19.1258 13.0344 18.9446 13.0339C18.0137 13.0309 17.0828 13.0289 16.1518 13.0276C15.1926 13.0261 14.2335 13.0213 13.2743 13.0157C12.5348 13.0121 11.7953 13.0109 11.0558 13.0104C10.7023 13.0097 10.3489 13.0081 9.99549 13.0055C9.49932 13.0021 9.00331 13.0022 8.50712 13.0032C8.36278 13.0014 8.21843 12.9996 8.06971 12.9978C6.12226 13.0115 4.82085 13.7585 3.53874 14.9461Z" fill="white"/>
<path d="M9.29688 19.356C13.1249 19.356 16.9529 19.356 20.897 19.356C20.897 21.8454 20.897 24.3349 20.897 26.8998C17.0689 26.8998 13.2409 26.8998 9.29688 26.8998C9.29688 24.4103 9.29688 21.9209 9.29688 19.356Z" fill="#051F2D"/>
<path d="M9.35838 17.4682C9.49607 17.4675 9.63375 17.4667 9.77561 17.4659C10.2304 17.4642 10.6851 17.4665 11.1399 17.469C11.4561 17.469 11.7723 17.4688 12.0885 17.4684C12.7511 17.4682 13.4136 17.47 14.0761 17.4731C14.9255 17.4771 15.7748 17.4767 16.6242 17.4749C17.2771 17.474 17.93 17.4751 18.5828 17.4768C18.896 17.4774 19.2092 17.4775 19.5224 17.4769C19.9601 17.4765 20.3976 17.4788 20.8353 17.4819C21.0296 17.4809 21.0296 17.4809 21.2278 17.48C21.7336 17.4858 22.1448 17.5164 22.6111 17.6895C22.9876 18.0989 22.9394 18.4319 22.9394 18.9473C22.9408 19.0977 22.9408 19.0977 22.9421 19.251C22.9442 19.5824 22.9415 19.9136 22.9385 20.245C22.9386 20.4752 22.9388 20.7054 22.9392 20.9355C22.9395 21.418 22.9374 21.9004 22.9337 22.3828C22.9291 23.0015 22.9295 23.6202 22.9316 24.2389C22.9327 24.7142 22.9315 25.1895 22.9294 25.6648C22.9287 25.8929 22.9286 26.1211 22.9293 26.3492C22.9298 26.668 22.9271 26.9866 22.9235 27.3054C22.9226 27.4868 22.9217 27.6683 22.9208 27.8552C22.8575 28.2953 22.8575 28.2953 22.6925 28.5632C22.1623 28.8097 21.6084 28.7737 21.0198 28.7708C20.8824 28.7718 20.745 28.7727 20.6035 28.7737C20.1486 28.7763 19.6937 28.7757 19.2388 28.7749C18.9228 28.7756 18.6068 28.7763 18.2907 28.7772C17.6279 28.7784 16.9651 28.7781 16.3023 28.7767C15.453 28.7751 14.6039 28.7779 13.7547 28.782C13.1019 28.7845 12.449 28.7845 11.7961 28.7837C11.4831 28.7837 11.17 28.7845 10.8569 28.7863C10.4189 28.7883 9.98098 28.7869 9.54291 28.7845C9.4137 28.7858 9.28449 28.7872 9.15137 28.7885C8.57103 28.7819 8.17912 28.7262 7.66425 28.4917C7.2218 28.0383 7.23363 27.7646 7.23311 27.1777C7.23135 27.0317 7.23135 27.0317 7.22956 26.8828C7.22681 26.5619 7.22997 26.2413 7.23347 25.9204C7.23333 25.697 7.23293 25.4736 7.23227 25.2502C7.2318 24.7823 7.23421 24.3145 7.23869 23.8467C7.24426 23.2472 7.24328 22.6479 7.24022 22.0484C7.23849 21.5873 7.23995 21.1261 7.2424 20.6649C7.24325 20.4439 7.24317 20.2229 7.24215 20.0019C7.24126 19.6929 7.24459 19.384 7.24906 19.075C7.25007 18.8993 7.25109 18.7235 7.25213 18.5424C7.33622 18.0971 7.33622 18.0971 7.58289 17.761C8.16023 17.445 8.69464 17.4613 9.35838 17.4682ZM9.2968 19.3544C9.2968 21.8439 9.2968 24.3334 9.2968 26.8983C13.1248 26.8983 16.9529 26.8983 20.8969 26.8983C20.8969 24.4088 20.8969 21.9193 20.8969 19.3544C17.0689 19.3544 13.2408 19.3544 9.2968 19.3544Z" fill="white"/>
<path d="M11.4432 2.55589C11.6177 2.55501 11.7922 2.55413 11.9719 2.55322C12.1612 2.55379 12.3504 2.55435 12.5454 2.55494C12.7392 2.55467 12.9331 2.5544 13.1327 2.55413C13.5434 2.55394 13.9541 2.55445 14.3647 2.55562C14.9937 2.55711 15.6226 2.55564 16.2515 2.55385C16.65 2.55403 17.0484 2.55439 17.4469 2.55494C17.6355 2.55437 17.824 2.55381 18.0183 2.55322C18.2816 2.55454 18.2816 2.55454 18.5503 2.55589C18.7046 2.55611 18.8588 2.55634 19.0178 2.55657C19.4463 2.59352 19.7147 2.68538 20.0827 2.87145C20.0907 3.52288 20.0967 4.17429 20.1006 4.82575C20.1023 5.04745 20.1045 5.26914 20.1073 5.49083C20.1113 5.80917 20.1131 6.12747 20.1146 6.44582C20.1163 6.54521 20.118 6.64461 20.1197 6.74702C20.1198 6.9921 20.1026 7.23708 20.0827 7.48156C19.6566 7.84591 19.4775 7.7963 18.8841 7.79712C18.702 7.798 18.5199 7.79888 18.3323 7.79979C18.1349 7.79922 17.9375 7.79866 17.7341 7.79807C17.4313 7.79847 17.4313 7.79847 17.1224 7.79888C16.5853 7.79912 16.0483 7.798 15.5112 7.79644C15.1816 7.79589 14.8519 7.79643 14.5223 7.79739C13.891 7.79911 13.2597 7.79891 12.6284 7.79807C12.431 7.79864 12.2335 7.7992 12.0301 7.79979C11.757 7.79847 11.757 7.79847 11.4783 7.79712C11.3175 7.7969 11.1567 7.79667 10.991 7.79645C10.6065 7.76097 10.6065 7.76097 10.2798 7.48156C10.2472 7.13432 10.234 6.80297 10.2364 6.45564C10.2361 6.35437 10.2358 6.2531 10.2354 6.14876C10.2352 5.93457 10.2358 5.72037 10.2372 5.50618C10.2389 5.17779 10.2372 4.8495 10.2351 4.52111C10.2353 4.3132 10.2357 4.10529 10.2364 3.89737C10.2357 3.79885 10.2351 3.70033 10.2344 3.59882C10.2441 2.73835 10.4546 2.55732 11.4432 2.55589Z" fill="#051F2D"/>
<path d="M36.0921 17.2598C37.2937 17.8582 37.8832 18.8365 38.3794 19.9141C38.6798 20.9289 38.6729 22.0109 38.2161 22.9875C37.9506 23.328 37.9506 23.328 37.5625 23.5463C36.8042 23.63 36.4325 23.619 35.7449 23.3368C34.4273 22.3571 33.7305 21.1432 33.6082 19.6483C33.5907 18.6783 33.6364 18.0252 34.4072 17.2685C35.0002 17.0356 35.4938 17.0821 36.0921 17.2598Z" fill="#051F2D"/>
<path d="M12.0762 9.71729C14.125 9.71729 16.1738 9.71729 18.2847 9.71729C18.2847 10.2244 18.2847 10.7315 18.2847 11.254C16.2359 11.254 14.1871 11.254 12.0762 11.254C12.0762 10.7469 12.0762 10.2398 12.0762 9.71729Z" fill="#051F2D"/>
<path d="M32.8247 16.2817C32.8247 16.822 32.5929 17.191 32.3346 17.6787C32.2267 17.6787 32.1189 17.6787 32.0078 17.6787C32.09 17.0639 32.3489 16.7411 32.8247 16.2817Z" fill="white"/>
</svg>
