<svg width="52" height="27" viewBox="0 0 52 27" fill="none" xmlns="http://www.w3.org/2000/svg">
<path d="M22.8274 0.723471C23.2446 0.721239 23.6607 0.710568 24.0776 0.699558C25.9893 0.674015 25.9893 0.674015 26.7146 1.03388C27.3705 1.62004 27.6996 2.32927 27.997 3.07879C28.0745 3.26921 28.1519 3.45962 28.2317 3.6558C28.326 3.89974 28.326 3.89974 28.4223 4.14861C28.4864 4.30552 28.5505 4.46243 28.6166 4.62409C29.2014 4.81827 29.2014 4.81827 29.7829 4.94107C29.825 5.15682 29.825 5.15682 29.8679 5.37693C29.904 5.54691 29.9401 5.71689 29.9773 5.89203C29.9933 5.9999 30.0093 6.10777 30.0259 6.21891C30.2667 6.72626 30.6226 6.98807 31.1435 7.31845C31.746 7.26742 31.746 7.26742 32.3098 7.15996C32.6743 7.30855 32.6743 7.30855 32.8929 7.63544C32.8804 7.95181 32.8678 8.26819 32.8542 8.58453C32.8681 8.95614 32.8681 8.95614 33.2938 9.38875C34.034 9.78681 34.3776 9.66536 35.2255 9.53734C35.5778 9.69583 35.5778 9.69583 35.8086 10.0128C35.8525 10.1895 35.8963 10.3663 35.9415 10.5483C36.3463 11.4563 37.2025 11.6691 38.2125 12.067C40.9062 13.0566 43.7081 13.7727 46.5672 14.368C48.4387 14.769 50.3033 15.2607 51.3588 16.6695C52.1793 18.0125 52.1486 19.4047 51.6261 20.82C51.2393 21.6765 50.7432 22.3325 49.9982 23.0092C49.9007 23.1031 49.8032 23.1971 49.7028 23.2939C46.8686 25.8354 41.7542 26.4772 37.7524 26.6545C36.2889 26.6858 34.8245 26.6807 33.3607 26.6811C32.9269 26.6816 32.4931 26.6821 32.0594 26.6827C31.1483 26.6836 30.2373 26.6839 29.3263 26.6838C28.4108 26.6838 27.4953 26.6849 26.5797 26.6871C21.9082 26.6981 17.244 26.685 12.5767 26.5077C12.4018 26.5011 12.2269 26.4945 12.0467 26.4877C3.46774 26.1551 3.46774 26.1551 1.3073 24.5489C0.337671 23.6474 -0.0162451 22.5802 0.000569126 21.4063C0.0811708 20.539 0.25837 19.5441 0.816709 18.7894C1.53612 17.814 1.51687 16.8642 1.52317 15.7462C1.52664 15.1966 1.54277 14.6472 1.55787 14.0977C1.56056 13.9902 1.56325 13.8827 1.56602 13.7719C1.623 11.7279 1.92803 9.65916 2.56544 7.68001C2.74865 7.09009 2.86398 6.50192 2.96625 5.89953C3.21649 4.43042 3.50382 3.14327 4.55022 1.90001C5.23554 1.5399 5.61484 1.56648 6.40289 1.64679C7.51704 1.95947 8.04961 2.64303 8.65646 3.42549C9.48104 4.44778 10.2838 5.03008 11.7058 5.41655C13.5957 5.55963 15.1536 5.34545 16.6502 4.36468C17.3963 3.82829 17.9146 3.21329 18.4482 2.53398C18.6259 2.30983 18.8048 2.0863 18.9851 1.86348C19.0619 1.76579 19.1387 1.66809 19.2179 1.56743C20.1719 0.581843 21.4102 0.726374 22.8274 0.723471Z" fill="white"/>
<path d="M22.7096 2.45123C23.0173 2.46717 23.0173 2.46717 23.3311 2.48343C23.6444 2.49201 23.6444 2.49201 23.964 2.50076C24.4786 2.51568 24.9918 2.53649 25.5057 2.56267C25.8704 3.22171 26.1634 3.81849 26.3197 4.53392C26.3505 4.67101 26.3813 4.8081 26.4131 4.94934C26.445 5.10165 26.445 5.10165 26.4776 5.25704C26.1091 5.38258 25.7406 5.50804 25.3721 5.63346C25.1669 5.70333 24.9616 5.7732 24.7502 5.84519C24.226 6.02217 23.7005 6.19577 23.1732 6.36648C23.1408 6.90798 23.1408 6.90798 23.1732 7.47592C23.3656 7.63283 23.3656 7.63283 23.5619 7.79291C24.5871 7.73551 25.5041 7.50291 26.4654 7.22828C26.5984 7.1912 26.7313 7.15412 26.8682 7.11591C27.1919 7.02547 27.5151 6.93384 27.8382 6.84196C28.3514 7.36498 28.8646 7.888 29.3933 8.42688C28.8288 9.00214 28.4669 9.33774 27.7896 9.76415C27.1482 10.2 27.1482 10.2 26.9514 10.8637C27.0088 11.2661 27.0088 11.2661 27.2551 11.4382C28.0178 11.5172 28.339 11.484 28.9825 11.1262C29.252 10.9276 29.252 10.9276 29.5269 10.725C30.5028 10.0118 30.5028 10.0118 31.1427 10.0118C31.5823 10.2892 31.5823 10.2892 32.0538 10.6458C32.2109 10.7634 32.368 10.8811 32.5299 11.0024C32.6494 11.0939 32.7689 11.1854 32.8921 11.2797C32.7101 11.5044 32.5278 11.7289 32.3454 11.9533C32.2439 12.0784 32.1424 12.2034 32.0379 12.3322C31.7258 12.7062 31.7258 12.7062 31.3917 13.038C31.0765 13.3513 31.0765 13.3513 31.2034 13.8552C31.2475 13.9991 31.2916 14.1429 31.337 14.2911C31.786 14.3434 32.2351 14.3957 32.6977 14.4496C32.9532 14.1658 33.2082 13.8818 33.463 13.5977C33.6051 13.4395 33.7472 13.2814 33.8936 13.1185C34.2484 12.7334 34.2484 12.7334 34.4471 12.3892C35.1032 12.5884 35.6609 12.8194 36.2451 13.1321C38.9764 14.4716 42.0761 15.1499 45.1036 15.901C48.9053 16.8462 48.9053 16.8462 49.6814 18.0255C49.8139 18.4469 49.7547 18.6375 49.6086 19.0458C44.7986 19.948 40.1418 20.3492 35.2124 20.3435C35.0564 20.3434 34.9003 20.3433 34.7395 20.3432C31.1356 20.3372 27.6344 20.1346 24.0833 19.6182C22.2969 19.3623 20.5031 19.1801 18.7025 19.0062C18.5569 18.9921 18.4113 18.9781 18.2613 18.9636C17.4367 18.8842 16.6118 18.806 15.7868 18.7289C15.7566 18.6363 15.7263 18.5438 15.6952 18.4485C14.9891 16.1868 14.9891 16.1868 13.8013 14.0762C13.7257 13.9472 13.7257 13.9472 13.6487 13.8156C13.7128 13.711 13.7769 13.6064 13.843 13.4986C13.9841 13.5458 14.1252 13.593 14.2706 13.6416C14.9132 13.8558 15.5565 14.0685 16.1999 14.2812C16.4219 14.3554 16.6439 14.4297 16.8726 14.5062C17.1958 14.6127 17.1958 14.6127 17.5256 14.7214C17.7231 14.7869 17.9205 14.8525 18.124 14.9201C19.8865 15.4182 21.6097 15.4135 23.3144 14.8018C23.9354 14.5295 24.4114 14.2104 24.9226 13.8156C25.6847 15.2139 25.5593 16.5958 25.5057 18.0949C26.0831 18.0406 26.0831 18.0406 26.672 17.9364C27.2969 16.9173 26.9607 15.1389 26.5626 14.093C25.9656 12.8248 25.1797 11.5775 23.9507 10.6458C23.63 10.7504 23.3092 10.855 22.9788 10.9627C22.9738 11.0698 22.9688 11.1769 22.9636 11.2872C22.8727 12.4524 22.8727 12.4524 22.4078 12.9538C21.5702 13.4298 20.8666 13.4014 19.8687 13.3401C19.3092 13.2497 18.7878 13.1044 18.253 12.9439C18.0935 12.8973 17.934 12.8507 17.7697 12.8027C14.9141 11.9372 12.1499 10.8651 9.37676 9.83993C8.80791 9.62997 8.23824 9.4215 7.6685 9.21314C6.81041 8.89931 5.95294 8.58438 5.09603 8.26838C5.06509 7.43032 5.17358 6.67209 5.37545 5.85138C5.40164 5.73942 5.42782 5.62746 5.4548 5.51211C5.56597 5.04518 5.68887 4.59933 5.87355 4.14759C6.57226 4.3375 6.62503 4.46905 6.99122 4.96977C8.01925 6.26728 9.29299 6.94441 11.0891 7.40968C13.3679 7.76791 15.3534 7.42594 17.2872 6.40425C18.5446 5.643 19.6107 4.68663 20.237 3.50155C20.8249 2.51026 21.397 2.42422 22.7096 2.45123Z" fill="#051F2D"/>
<path d="M4.12509 10.1699C7.36042 10.987 10.7439 12.3338 12.4104 14.8454C13.0187 15.9 13.844 17.3929 13.844 18.57C11.751 18.4378 9.67024 18.2151 7.58744 18.0054C7.21324 17.9679 6.83904 17.9304 6.46483 17.893C5.55529 17.802 4.6458 17.7106 3.73633 17.619C3.7266 16.8639 3.71961 16.1087 3.71497 15.3535C3.71304 15.0974 3.7104 14.8414 3.707 14.5853C3.68754 13.0799 3.72879 11.6497 4.12509 10.1699Z" fill="#051F2D"/>
<path d="M3.34507 19.7358C5.07394 19.8504 6.79254 20.0206 8.51278 20.1996C8.80564 20.2298 9.0985 20.26 9.39136 20.2903C10.0047 20.3536 10.618 20.4172 11.2312 20.4809C11.9989 20.5607 12.7666 20.6399 13.5343 20.719C16.4396 21.0186 19.3434 21.3242 22.2437 21.6545C22.9219 21.7306 23.6001 21.8065 24.2783 21.8822C24.6985 21.9296 25.1186 21.978 25.5385 22.0274C28.6765 22.395 31.7576 22.5002 34.927 22.4835C35.6881 22.4797 36.449 22.4802 37.2101 22.4813C40.7009 22.4782 44.076 22.3231 47.5053 21.7764C47.6926 21.7476 47.8799 21.7188 48.0728 21.6891C48.5197 21.6202 48.9663 21.5503 49.4126 21.4793C48.511 22.989 46.8269 23.7711 44.9419 24.3321C39.8252 25.6494 34.3664 25.4959 29.0633 25.4824C28.5479 25.4812 28.0324 25.4805 27.517 25.48C23.276 25.475 19.0391 25.4429 14.8012 25.3029C14.6103 25.2967 14.4195 25.2905 14.2228 25.2841C12.1982 25.2157 10.1768 25.1134 8.15668 24.9846C7.88585 24.969 7.88585 24.969 7.60956 24.953C6.00798 24.8434 4.3304 24.6601 3.15069 23.6981C2.49271 22.8934 2.67418 21.9443 2.76193 21.0038C2.90493 20.5381 3.08906 20.1707 3.34507 19.7358Z" fill="#051F2D"/>
</svg>
