<svg width="30" height="38" viewBox="0 0 30 38" fill="none" xmlns="http://www.w3.org/2000/svg">
<path d="M9.68122 0.190044C9.9545 0.187727 9.9545 0.187727 10.2333 0.185363C10.4311 0.185613 10.6288 0.185977 10.8266 0.186446C11.0307 0.185891 11.2348 0.185244 11.4389 0.184512C11.8661 0.183426 12.2933 0.183718 12.7205 0.18493C13.2666 0.186329 13.8125 0.183868 14.3586 0.180313C14.7799 0.178073 15.2013 0.178113 15.6227 0.178807C15.8239 0.178826 16.0252 0.178093 16.2264 0.176579C16.5084 0.174757 16.7904 0.176387 17.0724 0.178151C17.3126 0.178182 17.3126 0.178182 17.5576 0.178213C18.2962 0.278718 18.7325 0.592451 19.1948 1.0815C19.5891 1.74107 19.4821 2.48349 19.4594 3.20389C19.4573 3.44265 19.4553 3.68141 19.4537 3.92018C19.4494 4.50581 19.4395 5.09125 19.4224 5.67671C19.4131 6.00638 19.408 6.33573 19.4073 6.6655C19.4065 6.975 19.3996 7.28455 19.3857 7.59382C19.3884 8.02344 19.4067 8.35733 19.5699 8.76403C20.0417 9.14775 20.5525 9.37471 21.1337 9.61651C23.5969 11.2703 25.3392 13.557 25.9671 16.1928C26.1009 16.1871 26.2346 16.1815 26.3725 16.1756C27.9994 16.1352 27.9994 16.1352 28.4815 16.3983C29.372 17.1611 29.4082 17.8018 29.4144 18.8263C29.4188 19.0041 29.4188 19.0041 29.4233 19.1855C29.4281 19.9406 29.334 20.5018 28.9524 21.1858C28.2706 21.7415 27.8725 21.8096 26.9444 21.8024C26.7623 21.8013 26.5801 21.8002 26.3924 21.799C26.1819 21.7969 26.1819 21.7969 25.9671 21.7948C25.9495 21.8776 25.9319 21.9605 25.9138 22.0459C25.2075 24.8895 23.0077 27.178 20.2363 28.7711C19.8542 28.9799 19.8542 28.9799 19.5699 29.1017C19.5697 29.188 19.5695 29.2744 19.5693 29.3633C19.5668 30.1803 19.5608 30.9972 19.5511 31.8141C19.5463 32.234 19.5427 32.6539 19.5421 33.0738C19.5414 33.5575 19.535 34.0411 19.5283 34.5248C19.5288 34.6743 19.5294 34.8238 19.53 34.9778C19.5149 35.7397 19.4488 36.3057 18.9522 36.9482C18.3608 37.4288 17.7532 37.5505 16.9586 37.552C16.7821 37.5531 16.6056 37.5543 16.4238 37.5555C16.233 37.5548 16.0423 37.5541 15.8516 37.5532C15.654 37.5535 15.4565 37.5538 15.259 37.5543C14.846 37.5548 14.4331 37.5541 14.0201 37.5523C13.4924 37.5503 12.9647 37.5515 12.437 37.5536C12.0294 37.555 11.6218 37.5545 11.2142 37.5536C11.0197 37.5534 10.8252 37.5537 10.6307 37.5545C10.3583 37.5554 10.0858 37.5538 9.81342 37.552C9.65878 37.5517 9.50414 37.5514 9.34482 37.5511C8.65147 37.4775 8.19221 37.2696 7.72629 36.8273C7.35926 36.3731 7.32675 36.1391 7.32809 35.5885C7.3281 35.4422 7.32812 35.2959 7.32813 35.1452C7.32886 34.9867 7.32959 34.8281 7.33035 34.6647C7.33062 34.5012 7.33082 34.3378 7.33096 34.1743C7.3315 33.7438 7.3329 33.3134 7.33447 32.8829C7.33593 32.4438 7.33658 32.0046 7.33729 31.5654C7.33882 30.7036 7.34124 29.8418 7.34423 28.9799C7.14617 28.9269 7.14617 28.9269 6.9441 28.8727C4.62016 28.1728 2.90675 26.0165 1.8178 24.2228C0.903024 22.5744 0.464663 20.8829 0.485055 19.0623C0.485811 18.9398 0.486566 18.8174 0.487345 18.6912C0.500075 17.8387 0.573597 17.0242 0.804913 16.1928C0.833225 16.0703 0.833225 16.0703 0.86211 15.9454C1.5532 13.1939 3.62032 10.7648 6.29803 9.17933C6.6379 9.00531 6.97575 8.88639 7.34423 8.76403C7.34265 8.67438 7.34108 8.58473 7.33945 8.49237C7.32517 7.64495 7.31437 6.79755 7.30741 5.95007C7.30371 5.51443 7.29869 5.07886 7.29061 4.64325C7.28285 4.22238 7.27863 3.80157 7.27679 3.38064C7.27485 3.14298 7.26931 2.90534 7.2637 2.66772C7.26337 1.77275 7.30857 1.25383 8.05503 0.604598C8.61004 0.258951 8.99954 0.192847 9.68122 0.190044Z" fill="#051F2D"/>
<path d="M9.68122 0.190044C9.9545 0.187727 9.9545 0.187727 10.2333 0.185363C10.4311 0.185613 10.6288 0.185977 10.8266 0.186446C11.0307 0.185891 11.2348 0.185244 11.4389 0.184512C11.8661 0.183426 12.2933 0.183718 12.7205 0.18493C13.2666 0.186329 13.8125 0.183868 14.3586 0.180313C14.7799 0.178073 15.2013 0.178113 15.6227 0.178807C15.8239 0.178826 16.0252 0.178093 16.2264 0.176579C16.5084 0.174757 16.7904 0.176387 17.0724 0.178151C17.3126 0.178182 17.3126 0.178182 17.5576 0.178213C18.2962 0.278718 18.7325 0.592451 19.1948 1.0815C19.5891 1.74107 19.4821 2.48349 19.4594 3.20389C19.4573 3.44265 19.4553 3.68141 19.4537 3.92018C19.4494 4.50581 19.4395 5.09125 19.4224 5.67671C19.4131 6.00638 19.408 6.33573 19.4073 6.6655C19.4065 6.975 19.3996 7.28455 19.3857 7.59382C19.3884 8.02344 19.4067 8.35733 19.5699 8.76403C20.0417 9.14775 20.5525 9.37471 21.1337 9.61651C23.5969 11.2703 25.3392 13.557 25.9671 16.1928C26.1009 16.1871 26.2346 16.1815 26.3725 16.1756C27.9994 16.1352 27.9994 16.1352 28.4815 16.3983C29.372 17.1611 29.4082 17.8018 29.4144 18.8263C29.4188 19.0041 29.4188 19.0041 29.4233 19.1855C29.4281 19.9406 29.334 20.5018 28.9524 21.1859C28.2706 21.7415 27.8725 21.8096 26.9444 21.8024C26.7623 21.8013 26.5801 21.8002 26.3924 21.799C26.1819 21.7969 26.1819 21.7969 25.9671 21.7948C25.9495 21.8777 25.9319 21.9605 25.9138 22.0459C25.2075 24.8895 23.0077 27.178 20.2363 28.7711C19.8542 28.9799 19.8542 28.9799 19.5699 29.1017C19.5697 29.188 19.5695 29.2744 19.5693 29.3633C19.5668 30.1803 19.5608 30.9972 19.5511 31.8141C19.5463 32.234 19.5427 32.6539 19.5421 33.0738C19.5414 33.5575 19.535 34.0411 19.5283 34.5248C19.5288 34.6743 19.5294 34.8238 19.53 34.9778C19.5149 35.7397 19.4488 36.3057 18.9522 36.9482C18.3608 37.4288 17.7532 37.5505 16.9586 37.552C16.7821 37.5531 16.6056 37.5543 16.4238 37.5555C16.233 37.5548 16.0423 37.5541 15.8516 37.5532C15.654 37.5535 15.4565 37.5538 15.259 37.5543C14.846 37.5548 14.4331 37.5541 14.0201 37.5523C13.4924 37.5503 12.9647 37.5515 12.437 37.5536C12.0294 37.555 11.6218 37.5546 11.2142 37.5536C11.0197 37.5534 10.8252 37.5537 10.6307 37.5545C10.3583 37.5554 10.0858 37.5538 9.81342 37.552C9.65878 37.5517 9.50414 37.5514 9.34482 37.5511C8.65147 37.4775 8.19221 37.2696 7.72629 36.8273C7.35926 36.3731 7.32675 36.1391 7.32809 35.5885C7.3281 35.4422 7.32812 35.2959 7.32813 35.1452C7.32886 34.9867 7.32959 34.8281 7.33035 34.6647C7.33062 34.5012 7.33082 34.3378 7.33096 34.1743C7.3315 33.7438 7.3329 33.3134 7.33447 32.8829C7.33593 32.4438 7.33658 32.0046 7.33729 31.5654C7.33882 30.7036 7.34124 29.8418 7.34423 28.9799C7.14617 28.9269 7.14617 28.9269 6.9441 28.8727C4.62016 28.1728 2.90675 26.0165 1.8178 24.2228C0.903024 22.5744 0.464663 20.8829 0.485055 19.0623C0.485811 18.9398 0.486566 18.8174 0.487345 18.6912C0.500075 17.8387 0.573597 17.0242 0.804913 16.1928C0.833225 16.0703 0.833225 16.0703 0.86211 15.9454C1.5532 13.1939 3.62033 10.7648 6.29803 9.17933C6.6379 9.00531 6.97575 8.88639 7.34423 8.76403C7.34265 8.67438 7.34108 8.58473 7.33945 8.49237C7.32517 7.64495 7.31437 6.79755 7.3074 5.95007C7.30371 5.51443 7.29869 5.07886 7.29061 4.64325C7.28285 4.22238 7.27863 3.80157 7.27679 3.38064C7.27485 3.14298 7.26931 2.90534 7.2637 2.66772C7.26337 1.77275 7.30857 1.25383 8.05503 0.604598C8.61004 0.258951 8.99954 0.192847 9.68122 0.190044ZM6.0648 11.3215C5.9433 11.4157 5.82181 11.5098 5.69663 11.6069C3.72417 13.2128 2.39817 15.4987 2.29314 17.8473C2.29073 18.1635 2.29229 18.4797 2.29758 18.7959C2.29842 18.8784 2.29925 18.961 2.30011 19.046C2.33417 21.9216 3.42891 24.2307 5.7716 26.3388C8.12041 28.2519 11.0057 28.9467 14.1668 28.8991C17.0577 28.7853 19.7432 27.6139 21.7023 25.8136C24.0477 23.4254 24.8493 20.6114 24.5455 17.5324C24.1906 14.9713 22.5325 12.6325 20.2807 10.9561C16.0217 8.21971 10.0635 8.2063 6.0648 11.3215Z" fill="white"/>
<path d="M9.04903 29.832C9.67375 29.9212 9.67375 29.9212 10.2985 30.0104C10.5244 30.0427 10.5244 30.0427 10.7549 30.0756C10.8974 30.0978 11.0399 30.1201 11.1867 30.143C13.0421 30.3824 15.1356 30.3315 16.9472 29.912C17.2943 29.832 17.2943 29.832 17.7207 29.832C17.7315 30.6578 17.739 31.4836 17.7442 32.3095C17.7463 32.5905 17.7492 32.8715 17.7529 33.1525C17.7581 33.5561 17.7605 33.9596 17.7624 34.3632C17.7646 34.4892 17.7668 34.6152 17.7691 34.7449C17.7691 34.862 17.7691 34.979 17.7692 35.0995C17.7701 35.2025 17.771 35.3056 17.772 35.4117C17.7207 35.6776 17.7207 35.6776 17.5519 35.8934C17.2002 36.0975 16.9582 36.0893 16.5349 36.0902C16.3797 36.0914 16.2246 36.0925 16.0648 36.0937C15.8973 36.093 15.7298 36.0922 15.5573 36.0915C15.2994 36.092 15.2994 36.092 15.0363 36.0925C14.6725 36.0928 14.3087 36.0921 13.945 36.0906C13.3871 36.0886 12.8294 36.0905 12.2715 36.0929C11.9185 36.0926 11.5655 36.0922 11.2125 36.0915C10.9613 36.0926 10.9613 36.0926 10.705 36.0937C10.5499 36.0925 10.3947 36.0914 10.2349 36.0902C10.0982 36.0899 9.96156 36.0896 9.82076 36.0893C9.47551 36.0429 9.47551 36.0429 9.21783 35.8934C8.99777 35.612 8.99751 35.4371 9.00062 35.0995C9.00065 34.9825 9.00068 34.8655 9.00071 34.7449C9.00291 34.619 9.00512 34.493 9.00738 34.3632C9.00799 34.234 9.00859 34.1047 9.00921 33.9716C9.0116 33.5584 9.01695 33.1452 9.02238 32.732C9.02452 32.452 9.02646 32.1721 9.02821 31.8921C9.03291 31.2054 9.04005 30.5187 9.04903 29.832Z" fill="#051F2D"/>
<path d="M10.1057 1.78958C10.267 1.78842 10.4283 1.78726 10.5945 1.78606C10.7694 1.78618 10.9443 1.78629 11.1245 1.7864C11.3926 1.78562 11.3926 1.78562 11.6662 1.78482C12.0448 1.78412 12.4234 1.78395 12.802 1.78459C13.2877 1.78529 13.7733 1.78323 14.2591 1.7804C14.7217 1.77818 15.1843 1.77863 15.6469 1.77879C15.9092 1.77711 15.9092 1.77711 16.1768 1.77539C16.4188 1.77653 16.4188 1.77653 16.6656 1.77769C16.8081 1.77761 16.9505 1.77754 17.0973 1.77746C17.2095 1.7925 17.3216 1.80754 17.4372 1.82303C17.7425 2.21538 17.7566 2.31544 17.7538 2.76646C17.7538 2.88346 17.7538 3.00047 17.7537 3.12102C17.7523 3.247 17.7508 3.37298 17.7493 3.50277C17.7489 3.632 17.7485 3.76124 17.7481 3.89438C17.7465 4.3076 17.7429 4.72079 17.7393 5.13399C17.7379 5.41395 17.7366 5.69391 17.7354 5.97386C17.7323 6.66057 17.7275 7.34725 17.7215 8.03394C17.5636 8.00891 17.5636 8.00891 17.4026 7.98337C17.2634 7.96146 17.1242 7.93955 16.9807 7.91697C16.8432 7.89526 16.7057 7.87355 16.5641 7.85118C14.4652 7.53705 12.4884 7.42964 10.3976 7.82034C9.94944 7.9035 9.50223 7.97086 9.04982 8.03394C9.04262 7.18856 9.03763 6.34319 9.0342 5.49779C9.03277 5.21003 9.03082 4.92226 9.02837 4.63449C9.02493 4.22157 9.02331 3.80867 9.02205 3.39574C9.02058 3.26647 9.01912 3.1372 9.0176 3.00401C9.01758 2.88455 9.01756 2.7651 9.01754 2.64203C9.01659 2.48383 9.01659 2.48383 9.01562 2.32243C9.09248 1.74733 9.54315 1.7918 10.1057 1.78958Z" fill="#051F2D"/>
<path d="M19.6964 13.1015C19.9985 13.269 19.9985 13.269 20.1407 13.3908C20.2088 13.8929 20.1494 14.2364 19.7956 14.6487C19.5087 14.9098 19.1929 15.1225 18.8646 15.345C18.0136 15.9359 17.2183 16.5632 16.4357 17.2193C16.2362 17.3796 16.2362 17.3796 16.0328 17.543C15.3082 18.1521 14.8723 18.5883 14.7798 19.4711C14.7386 19.7235 14.7386 19.7235 14.4454 20.0432C13.8624 20.277 13.3803 20.3185 12.7484 20.2106C12.1576 19.9107 11.9386 19.7277 11.7444 19.1602C11.3614 18.1165 9.68541 17.3026 8.68131 16.6937C8.48362 16.5571 8.48362 16.5571 8.34146 16.3136C8.27699 15.5541 8.27699 15.5541 8.51028 15.2175C8.76794 15.0957 8.76794 15.0957 9.07947 15.11C9.62309 15.2564 10.006 15.5355 10.4383 15.8417C10.5261 15.9017 10.6139 15.9618 10.7044 16.0237C11.0916 16.2892 11.4711 16.5587 11.8432 16.8397C12.001 16.956 12.001 16.956 12.162 17.0747C12.2496 17.1432 12.3372 17.2116 12.4274 17.2821C12.8159 17.4364 13.1275 17.4723 13.5509 17.411C14.3514 17.1164 14.9322 16.4697 15.5205 15.933C15.7332 15.7428 15.9466 15.5533 16.1602 15.3638C16.2986 15.241 16.4368 15.118 16.5747 14.9947C17.1191 14.5107 17.6887 14.0629 18.2926 13.6343C18.3797 13.5703 18.4668 13.5062 18.5565 13.4402C19.1876 13.0068 19.1876 13.0068 19.6964 13.1015Z" fill="white"/>
<path d="M20.9903 18.0941C21.1447 18.092 21.1447 18.092 21.3023 18.0898C22.0472 18.0934 22.0472 18.0934 22.4091 18.3025C22.6352 18.6186 22.598 18.8743 22.554 19.2358C22.2697 19.6012 22.2697 19.6012 22.007 19.6465C21.9031 19.6462 21.7992 19.6458 21.6922 19.6454C21.5789 19.6453 21.4657 19.6453 21.349 19.6452C21.1714 19.6422 21.1714 19.6422 20.9903 19.6392C20.8127 19.6398 20.8127 19.6398 20.6315 19.6404C19.7488 19.6337 19.7488 19.6337 19.4265 19.3576C19.3479 18.6173 19.3479 18.6173 19.5714 18.2982C20.0145 18.0489 20.4783 18.0871 20.9903 18.0941Z" fill="white"/>
<path d="M13.3744 10.918C13.8808 10.956 13.8808 10.956 14.1224 11.0845C14.4037 11.4448 14.369 11.8088 14.3606 12.2271C14.3617 12.3877 14.3628 12.5483 14.3639 12.7138C14.3063 13.1553 14.2605 13.3384 13.8808 13.6352C13.3744 13.6809 13.3744 13.6809 12.8857 13.6352C12.5494 13.3471 12.565 13.2879 12.5636 12.8969C12.5632 12.7999 12.5629 12.7029 12.5625 12.6029C12.5636 12.5015 12.5647 12.4001 12.5658 12.2956C12.5647 12.1942 12.5636 12.0928 12.5625 11.9883C12.5629 11.8913 12.5632 11.7943 12.5636 11.6943C12.5639 11.6053 12.5643 11.5163 12.5646 11.4246C12.6382 10.9743 12.8827 10.9563 13.3744 10.918Z" fill="white"/>
<path d="M5.17196 18.229C5.27614 18.23 5.38032 18.2309 5.48766 18.2319C5.59129 18.2309 5.69492 18.23 5.80168 18.229C6.34358 18.2307 6.59943 18.2427 7.06029 18.5059C7.15215 19.2272 7.15215 19.2272 6.91536 19.5653C6.47036 19.8157 6.00188 19.7764 5.48766 19.7694C5.38348 19.7708 5.2793 19.7722 5.17196 19.7737C4.8696 19.7722 4.8696 19.7722 4.35927 19.7237C4.01112 19.2764 4.03012 19.034 4.07495 18.5059C4.43753 18.1953 4.67697 18.2306 5.17196 18.229Z" fill="white"/>
<path d="M13.3832 24.4434C13.8808 24.4738 13.8808 24.4738 14.1651 24.7174C14.2281 25.0802 14.2112 25.447 14.2095 25.8134C14.2118 25.9148 14.2141 26.0162 14.2165 26.1207C14.2166 26.2662 14.2166 26.2662 14.2168 26.4147C14.2174 26.5482 14.2174 26.5482 14.2181 26.6844C14.1651 26.9095 14.1651 26.9095 13.7386 27.153C13.3033 27.1835 13.3033 27.1835 12.8857 27.153C12.5494 26.8649 12.565 26.8057 12.5636 26.4147C12.5632 26.3177 12.5629 26.2207 12.5625 26.1207C12.5636 26.0193 12.5647 25.9179 12.5658 25.8134C12.5647 25.712 12.5636 25.6106 12.5625 25.5061C12.5629 25.4091 12.5632 25.3121 12.5636 25.2121C12.5639 25.1231 12.5643 25.0341 12.5646 24.9424C12.6392 24.4862 12.8853 24.4738 13.3832 24.4434Z" fill="white"/>
<path d="M26.25 17.7754C26.6722 17.7754 27.0944 17.7754 27.5294 17.7754C27.8361 18.0381 27.6979 18.6215 27.6982 18.9856C27.7 19.0876 27.7017 19.1895 27.7035 19.2946C27.7039 19.4409 27.7039 19.4409 27.7044 19.5902C27.7049 19.68 27.7055 19.7698 27.7061 19.8623C27.6716 20.0893 27.6716 20.0893 27.3873 20.3328C27.012 20.3328 26.6367 20.3328 26.25 20.3328C26.25 19.4889 26.25 18.6449 26.25 17.7754Z" fill="#051F2D"/>
</svg>
