<svg width="26" height="23" viewBox="0 0 26 23" fill="none" xmlns="http://www.w3.org/2000/svg">
<path d="M14.0757 0.331848C13.28 0.41683 12.4952 0.660597 11.8081 1.0296C11.1238 1.40084 10.4992 1.93534 10.0294 2.54811C9.87192 2.75386 9.59221 3.20785 9.51346 3.38452C9.26905 3.92573 9.14414 4.36406 9.07625 4.9008C9.03551 5.21613 9.01922 5.28546 8.99206 5.22284C8.98391 5.20718 8.91059 5.12891 8.82641 5.0484C8.4598 4.69952 8.10134 4.57428 7.73474 4.66821C7.62068 4.69728 7.24321 4.83147 6.8929 4.96565C6.81143 4.99696 6.68651 5.03945 6.61591 5.06405C6.35792 5.1468 6.03477 5.28993 5.94787 5.35926C5.73605 5.52475 5.63829 5.77523 5.69531 5.99439C5.73333 6.13752 5.87183 6.44391 5.94243 6.54902C6.23572 6.97393 6.49099 7.23559 6.93363 7.5621L7.09657 7.68287L7.00152 7.66945C6.94992 7.66274 6.83315 7.64709 6.74354 7.63367C6.15154 7.54869 5.49708 7.86402 5.28797 8.33589C5.21194 8.50139 5.13047 8.91959 4.97839 9.90808C4.94038 10.1451 4.88063 10.5387 4.84261 10.7803C4.80459 11.024 4.76115 11.3081 4.74485 11.4132C4.7177 11.601 4.7177 11.601 4.42441 11.9835C3.32187 13.417 2.52348 14.562 1.89889 15.6064C1.37207 16.4853 1.22271 16.8051 1.14667 17.2188C1.07063 17.6326 1.12766 18.1693 1.28517 18.5584C1.40194 18.8469 1.7957 19.4373 1.96135 19.5782C2.21391 19.7907 2.60495 19.7974 2.86294 19.5917C2.93083 19.538 3.05574 19.3837 3.16165 19.2294C3.25941 19.0818 3.45222 18.8 3.588 18.6032C4.09039 17.8696 4.15013 17.7779 4.15013 17.7601C4.15013 17.7511 4.16371 17.7422 4.17729 17.7422C4.19358 17.7422 4.20445 17.7645 4.20445 17.7914C4.20445 17.8808 4.2832 18.6613 4.31307 18.8715C4.34023 19.0594 4.36195 19.1802 4.42169 19.5201C4.60907 20.5421 4.83175 20.9916 5.39388 21.4814C5.84467 21.8728 6.35792 22.1098 7.07213 22.253C7.24593 22.2887 7.78633 22.2932 14.6731 22.2977C21.3019 22.3044 22.1166 22.3022 22.3556 22.2709C23.5776 22.1121 24.5715 21.3964 24.9137 20.4281C25.1255 19.831 25.1744 18.1917 25.0332 16.4562C24.9897 15.924 24.9517 15.5684 24.8431 14.6783C24.6883 13.417 24.3678 11.6323 23.9605 9.76942C23.8383 9.21256 23.6373 8.38957 23.602 8.29788C23.4663 7.95571 23.0671 7.66721 22.6108 7.57776C22.3773 7.53303 22.2795 7.53527 21.8559 7.60236C21.1498 7.70971 20.8701 7.74772 20.8348 7.73654C20.8158 7.72983 20.7697 7.67169 20.7344 7.60683C20.6963 7.54198 20.6284 7.41897 20.5796 7.33175C20.5144 7.2177 20.4981 7.15955 20.5117 7.10812C20.5198 7.07233 20.5361 6.96051 20.5443 6.85988C20.5551 6.70333 20.547 6.65413 20.4818 6.49087C20.4085 6.30525 20.4058 6.2896 20.3868 5.55382C20.3759 5.14233 20.3596 4.76885 20.3487 4.72636C20.3406 4.68387 20.3189 4.58323 20.3053 4.50272C20.2075 4.01742 19.9523 3.37111 19.6807 2.93053C19.2245 2.19476 18.4505 1.47688 17.6277 1.0296C17.3534 0.879765 16.8184 0.656124 16.5007 0.557724C15.7838 0.334084 14.8578 0.249102 14.0757 0.331848ZM15.2841 0.868582C17.3942 1.08775 19.0996 2.47431 19.6128 4.38419C19.6997 4.70847 19.716 4.86502 19.7377 5.59855C19.7567 6.28065 19.7622 6.3634 19.8192 6.52665C19.9414 6.87329 19.9061 7.03655 19.6861 7.15732C19.4173 7.30715 19.0398 7.18863 18.9502 6.93144C18.9095 6.80844 18.9312 6.71675 19.0425 6.5602C19.1349 6.42825 19.2245 6.25381 19.2815 6.09056C19.3277 5.95637 19.3277 5.16022 19.2788 4.90527C18.942 3.12063 17.5299 1.79445 15.5883 1.43215C15.3602 1.38966 15.2434 1.38295 14.7274 1.38295C14.2142 1.38295 14.0947 1.38966 13.8693 1.43215C12.9596 1.60212 12.1992 1.9577 11.5502 2.51457C10.9907 2.99763 10.6133 3.53436 10.358 4.21199C10.1815 4.67716 10.1489 4.8762 10.1326 5.55159C10.1163 6.1979 10.1299 6.30301 10.263 6.58704C10.358 6.79726 10.3607 6.84422 10.2738 6.98511C10.2032 7.09917 10.0213 7.23112 9.93438 7.23112C9.90722 7.23112 9.85019 7.19757 9.80674 7.15508C9.73614 7.09246 9.72256 7.05668 9.70898 6.90684C9.69812 6.81291 9.67096 6.64071 9.64652 6.52889C9.60851 6.34103 9.60851 6.30525 9.64652 6.13752C9.6764 6.01452 9.68997 5.82443 9.68997 5.57395C9.68997 4.6369 9.89093 3.91007 10.3607 3.1497C10.7708 2.48997 11.485 1.83247 12.2073 1.45228C13.1415 0.962511 14.2278 0.756762 15.2841 0.868582ZM15.5693 1.98231C16.7098 2.22383 17.6521 2.87463 18.1871 3.79155C18.3718 4.10688 18.4234 4.22541 18.5157 4.52508C18.6379 4.92987 18.6623 5.08865 18.6623 5.52028C18.6651 5.97203 18.646 6.05701 18.4777 6.2896C18.2414 6.62282 18.217 6.89119 18.3935 7.22217C18.4478 7.32057 18.4505 7.35412 18.4288 7.44581C18.4152 7.50619 18.3799 7.6605 18.35 7.79022C18.3229 7.91769 18.2876 8.03175 18.274 8.04293C18.2496 8.06306 18.1328 8.07647 17.3751 8.13462C16.0554 8.23749 15.3059 8.26657 13.9127 8.26657C12.707 8.26657 12.1693 8.25091 11.2732 8.19053L10.8876 8.16369L10.7518 8.02727C10.6757 7.95124 10.559 7.83942 10.4884 7.77903L10.3662 7.66721L10.4558 7.6113C10.711 7.45699 10.8794 7.25572 10.9554 7.01866C11.0233 6.81738 11.0043 6.70557 10.8468 6.34103C10.7789 6.18225 10.7762 6.15541 10.7762 5.68577C10.7762 5.04616 10.836 4.70847 11.0369 4.21646C11.3927 3.34203 12.2236 2.55706 13.1877 2.18582C13.7498 1.96889 14.111 1.9085 14.7953 1.91745C15.2298 1.92416 15.3357 1.9331 15.5693 1.98231ZM8.08505 5.20495C8.31316 5.30335 8.69878 5.78864 8.86171 6.18225C8.94047 6.37234 9.02736 6.69886 9.05181 6.89789L9.07081 7.04326L8.57114 7.28926C8.29958 7.42345 8.06061 7.53527 8.0416 7.53974C8.00358 7.54869 7.74017 7.40556 7.51749 7.25795C6.92277 6.86211 6.54802 6.45285 6.37693 6.00781C6.2846 5.77299 6.29003 5.76628 6.91734 5.54041C6.98251 5.51804 7.23506 5.42635 7.47404 5.33689C7.71573 5.24744 7.93297 5.17587 7.96013 5.17587C7.98729 5.17364 8.0416 5.18706 8.08505 5.20495ZM9.54333 7.71641C9.73071 7.89085 9.87463 8.02056 10.1 8.22184C10.1652 8.28222 10.2385 8.35602 10.2603 8.3851C10.2983 8.43653 10.2956 8.44324 10.2331 8.4835C10.1951 8.50586 9.98869 8.6065 9.77144 8.7049C9.55419 8.80554 9.33151 8.90841 9.27177 8.93748L9.16586 8.98668L8.68248 8.57295C8.41364 8.34484 8.19639 8.14357 8.19639 8.12567C8.1991 8.09436 9.25548 7.55316 9.32608 7.54645C9.34237 7.54421 9.44014 7.62249 9.54333 7.71641ZM20.088 7.7276C20.1179 7.78127 20.1342 7.83047 20.1233 7.83942C20.1016 7.85731 18.9964 7.99149 18.9801 7.97807C18.9746 7.9736 18.9828 7.91322 19.0018 7.84389C19.0344 7.72536 19.0398 7.71865 19.1077 7.73207C19.401 7.78574 19.7594 7.75667 19.9142 7.66721C20.0011 7.61801 20.031 7.62696 20.088 7.7276ZM22.6244 8.14804C22.7711 8.21066 22.8797 8.29564 22.9449 8.39851C22.9856 8.46561 23.154 9.11863 23.2952 9.75824C23.7813 11.97 24.0311 13.3946 24.2728 15.3492C24.5145 17.3172 24.5253 19.538 24.2972 20.2424C24.0718 20.9447 23.3929 21.4948 22.4941 21.705L22.2768 21.7565L14.9311 21.7632C9.38583 21.7699 7.53106 21.7632 7.35998 21.7453C6.81414 21.6804 6.34978 21.4948 5.9533 21.1817C5.52423 20.8418 5.31513 20.5108 5.18206 19.9562C4.95938 19.0214 4.86705 18.2655 4.85076 17.2949L4.84261 16.7693L5.57311 15.6847C5.97502 15.0876 6.37693 14.4882 6.46655 14.354C6.86031 13.7636 7.84064 12.4643 7.88953 12.4643C7.89767 12.4643 7.89767 12.5381 7.88681 12.6253C7.87866 12.7148 7.85965 12.9093 7.84336 13.0569C7.82978 13.2045 7.80534 13.455 7.78905 13.616C7.77275 13.7748 7.73745 14.1528 7.70758 14.4547C7.67771 14.7566 7.64241 15.1233 7.62883 15.2709C7.61253 15.4185 7.58809 15.669 7.5718 15.83C7.55822 15.9888 7.5365 16.1923 7.52835 16.2818C7.51206 16.4272 7.51749 16.4562 7.58266 16.5636C7.62068 16.6284 7.7103 16.7268 7.7809 16.7805C7.93297 16.8946 8.58472 17.3955 8.86171 17.608C9.68454 18.2431 9.63838 18.2096 9.73071 18.2521C9.83933 18.3013 10.1353 18.3013 10.2467 18.2521C10.3607 18.2006 10.4748 18.1045 10.5182 18.0172C10.5535 17.9479 10.578 17.7466 10.6377 16.9818C10.6893 16.3377 10.7491 15.6042 10.8034 14.9019C10.8197 14.6984 10.8441 14.401 10.8577 14.2422C10.8713 14.0812 10.8984 13.7614 10.9147 13.531L10.95 13.1106L11.0586 13.1285C11.1211 13.1374 11.2922 13.1464 11.4415 13.1464C11.7375 13.1464 11.8136 13.1262 12.2508 12.9518C12.3676 12.9048 12.468 12.8668 12.4762 12.8668C12.4898 12.8668 12.8292 12.7371 13.0981 12.6298C13.2936 12.5515 13.5651 12.3368 13.6466 12.1959C13.7634 11.9902 13.777 11.941 13.777 11.7039C13.7742 11.4937 13.7661 11.4512 13.6873 11.2902C13.6412 11.1918 13.6004 11.1045 13.6004 11.0956C13.6004 11.0799 13.4212 10.7557 13.2936 10.541C12.8754 9.83651 12.2589 9.20362 11.6697 8.87263C11.5665 8.81448 11.4877 8.76081 11.4959 8.75634C11.5013 8.74963 11.7674 8.75857 12.0851 8.77646C12.8048 8.81225 14.9583 8.81225 15.7186 8.77646C17.7771 8.67806 19.5938 8.49468 21.7337 8.16817C21.8993 8.14357 22.0759 8.11449 22.1275 8.10331C22.2687 8.07424 22.4968 8.09436 22.6244 8.14804ZM7.06398 8.23749C7.24049 8.27328 7.39257 8.30682 7.40072 8.31353C7.40886 8.32024 7.38714 8.35826 7.34912 8.39851C7.3111 8.43877 7.23778 8.52599 7.18347 8.58861C7.08571 8.70266 6.99881 8.80554 6.80328 9.03589C6.75169 9.09627 6.65121 9.21256 6.57789 9.29978C6.50728 9.38476 6.25201 9.69339 6.01576 9.98188C5.7795 10.2704 5.57583 10.5119 5.55953 10.5164C5.54324 10.5209 5.53781 10.494 5.54596 10.4493C5.5541 10.4068 5.58669 10.2167 5.61656 10.0266C5.73605 9.25953 5.83924 8.68925 5.87726 8.58637C5.89898 8.52375 5.94243 8.44324 5.97502 8.40299C6.05649 8.30682 6.26016 8.195 6.40409 8.17264C6.55345 8.14804 6.65392 8.15698 7.06398 8.23749ZM8.35118 9.06496C8.72865 9.38476 8.79111 9.42725 8.93232 9.46975C9.11155 9.52342 9.09797 9.50105 9.14957 9.85888C9.16315 9.96846 9.18487 10.1138 9.19302 10.1764L9.20931 10.295L8.89973 10.5589C7.89767 11.4109 6.8929 12.6096 5.72519 14.354C4.95938 15.4946 4.34837 16.3981 3.27571 17.9658C2.93626 18.46 2.59409 18.961 2.52348 19.0661C2.48547 19.1243 2.4393 19.1735 2.42301 19.1735C2.35783 19.1735 1.98851 18.6054 1.89346 18.3639C1.67078 17.7847 1.72781 17.1987 2.06726 16.5569C2.36055 16.0112 3.22683 14.647 3.67219 14.032C4.2316 13.2604 4.61722 12.7371 4.82904 12.4643C4.86705 12.4151 4.94581 12.3122 5.00283 12.2362C5.06258 12.1579 5.20107 11.9812 5.3097 11.8426C5.41832 11.7061 5.60027 11.4736 5.71432 11.3282C5.94515 11.0375 6.65664 10.1608 6.88747 9.88124C7.21877 9.4854 7.29209 9.39818 7.57995 9.05825C7.74288 8.86592 7.88953 8.70714 7.9031 8.70714C7.91397 8.70714 8.11764 8.86816 8.35118 9.06496ZM10.8007 9.08732C11.1781 9.2148 11.4633 9.38476 11.8136 9.68891C12.2426 10.0602 12.6093 10.5432 12.8998 11.1224C13.1116 11.5429 13.1252 11.5764 13.1252 11.7263C13.1252 11.8537 13.1144 11.885 13.0383 11.9745C12.9894 12.0304 12.9215 12.093 12.8862 12.1132C12.8509 12.1311 12.5468 12.2518 12.2128 12.3793C11.6099 12.6074 11.6018 12.6096 11.3954 12.6096C11.208 12.6096 11.1781 12.6029 11.0722 12.5425C10.8984 12.4419 10.6377 12.1512 10.4666 11.8716C10.1218 11.2991 9.92352 10.6774 9.78502 9.72469C9.72528 9.32214 9.71713 9.35122 9.92895 9.24834C10.5047 8.96656 10.4694 8.97327 10.8007 9.08732ZM9.47001 11.2231C9.5895 11.5541 9.72528 11.8537 9.87463 12.0953C9.98326 12.2764 10.0593 12.3771 10.263 12.6231C10.3281 12.6991 10.3309 12.7125 10.3118 12.9138C10.301 13.0301 10.2793 13.294 10.263 13.5042C10.244 13.7122 10.2195 14.0342 10.2059 14.2198C10.1896 14.4032 10.1652 14.7118 10.1516 14.9019C10.1353 15.092 10.1109 15.3939 10.0973 15.5729C10.0702 15.8994 10.0403 16.2975 9.98869 16.9371C9.93709 17.5923 9.92895 17.6527 9.90179 17.6527C9.8855 17.6527 9.80403 17.599 9.71984 17.5342C9.63566 17.4716 9.39126 17.2815 9.17401 17.116C8.05789 16.2594 8.1638 16.3489 8.1801 16.2617C8.18824 16.2214 8.20997 16.047 8.22355 15.8748C8.25342 15.5505 8.28872 15.1949 8.33488 14.7342C8.34846 14.5866 8.38377 14.2198 8.41364 13.9179C8.44351 13.616 8.47881 13.2492 8.49239 13.1016C8.50868 12.954 8.53312 12.6969 8.54942 12.5314C8.56571 12.3659 8.59015 12.1132 8.60373 11.9723C8.61731 11.8314 8.63089 11.6927 8.63089 11.6659C8.63089 11.6301 8.82641 11.4065 8.9296 11.3237C8.93775 11.317 9.0328 11.2298 9.14414 11.1269C9.25548 11.024 9.35324 10.9502 9.3641 10.9592C9.37496 10.9681 9.42384 11.0867 9.47001 11.2231Z" fill="#051F2D" stroke="#051F2D" stroke-width="0.3"/>
</svg>
