<svg width="44" height="24" viewBox="0 0 44 24" fill="none" xmlns="http://www.w3.org/2000/svg">
<path d="M19.2565 0.346067C19.6084 0.344093 19.9594 0.334653 20.3111 0.324913C21.9238 0.302317 21.9238 0.302317 22.5356 0.620657C23.0889 1.13918 23.3665 1.76658 23.6174 2.42962C23.6827 2.59806 23.748 2.76651 23.8153 2.94005C23.8949 3.15585 23.8949 3.15585 23.9761 3.376C24.0302 3.5148 24.0843 3.65361 24.1401 3.79661C24.6334 3.96839 24.6334 3.96839 25.1239 4.07702C25.1594 4.26788 25.1594 4.26788 25.1956 4.46259C25.2261 4.61295 25.2565 4.76332 25.2879 4.91825C25.3014 5.01368 25.3149 5.1091 25.3289 5.20742C25.532 5.65623 25.8322 5.88783 26.2717 6.18009C26.7799 6.13494 26.7799 6.13494 27.2555 6.03988C27.563 6.17133 27.563 6.17133 27.7474 6.4605C27.7369 6.74037 27.7263 7.02024 27.7148 7.30008C27.7265 7.62881 27.7265 7.62881 28.0856 8.01151C28.71 8.36363 28.9999 8.2562 29.7151 8.14295C30.0123 8.28315 30.0123 8.28315 30.207 8.56356C30.244 8.7199 30.281 8.87623 30.3191 9.0373C30.6606 9.84053 31.3829 10.0287 32.2349 10.3807C34.5071 11.2561 36.8707 11.8897 39.2826 12.4162C40.8614 12.771 42.4343 13.2059 43.3247 14.4521C44.0168 15.6402 43.9909 16.8717 43.5501 18.1237C43.2238 18.8815 42.8054 19.4618 42.1769 20.0603C42.0947 20.1435 42.0124 20.2266 41.9277 20.3123C39.5369 22.5605 35.2225 23.1282 31.8467 23.285C30.6122 23.3128 29.3769 23.3082 28.142 23.3086C27.7761 23.309 27.4102 23.3095 27.0443 23.31C26.2757 23.3108 25.5072 23.3111 24.7387 23.311C23.9664 23.311 23.1941 23.3119 22.4218 23.3139C18.481 23.3236 14.5465 23.312 10.6093 23.1552C10.4617 23.1494 10.3142 23.1436 10.1622 23.1375C2.92528 22.8433 2.92528 22.8433 1.1028 21.4224C0.284848 20.6249 -0.0137039 19.6809 0.000480096 18.6424C0.0684731 17.8752 0.217953 16.9951 0.68895 16.3274C1.29582 15.4646 1.27958 14.6244 1.2849 13.6354C1.28782 13.1492 1.30144 12.6632 1.31417 12.1771C1.31644 12.082 1.31871 11.9869 1.32105 11.8889C1.36911 10.0808 1.62643 8.25071 2.16413 6.49993C2.31867 5.97807 2.41596 5.45777 2.50224 4.92489C2.71333 3.62529 2.95571 2.48665 3.83842 1.38685C4.41654 1.06829 4.7365 1.0918 5.40127 1.16285C6.34113 1.43945 6.7904 2.04414 7.30231 2.73632C7.9979 3.64065 8.67511 4.15576 9.87461 4.49764C11.4689 4.62421 12.7831 4.43474 14.0456 3.56714C14.6749 3.09263 15.1122 2.5486 15.5623 1.94767C15.7123 1.74938 15.8632 1.55165 16.0152 1.35454C16.08 1.26812 16.1448 1.18169 16.2116 1.09265C17.0163 0.22078 18.0609 0.348635 19.2565 0.346067Z" fill="#051F2D"/>
<path d="M19.1556 1.8746C19.4151 1.8887 19.4151 1.8887 19.6799 1.90308C19.9442 1.91067 19.9442 1.91067 20.2138 1.91842C20.6479 1.93162 21.0808 1.95003 21.5143 1.97319C21.8219 2.55618 22.0691 3.0841 22.2009 3.71698C22.2269 3.83825 22.2529 3.95952 22.2797 4.08447C22.3067 4.2192 22.3067 4.2192 22.3342 4.35666C22.0233 4.46772 21.7125 4.5787 21.4016 4.68965C21.2285 4.75146 21.0554 4.81327 20.877 4.87695C20.4348 5.03351 19.9915 5.18708 19.5467 5.33809C19.5193 5.81711 19.5193 5.81711 19.5467 6.31952C19.709 6.45833 19.709 6.45833 19.8746 6.59993C20.7394 6.54916 21.5129 6.3434 22.3239 6.10045C22.4361 6.06765 22.5482 6.03485 22.6637 6.00105C22.9368 5.92105 23.2094 5.83999 23.482 5.75871C23.9148 6.22138 24.3477 6.68405 24.7937 7.16075C24.3176 7.66964 24.0122 7.96652 23.441 8.34372C22.8998 8.72927 22.8998 8.72927 22.7338 9.31639C22.7823 9.67238 22.7823 9.67238 22.99 9.82463C23.6334 9.89449 23.9044 9.86515 24.4472 9.54861C24.6745 9.37293 24.6745 9.37293 24.9065 9.19371C25.7297 8.56279 25.7297 8.56279 26.2695 8.56279C26.6403 8.80815 26.6403 8.80815 27.0381 9.12361C27.1706 9.22771 27.3031 9.33182 27.4397 9.43907C27.5405 9.52004 27.6413 9.60101 27.7452 9.68443C27.5917 9.88319 27.4379 10.0818 27.284 10.2803C27.1984 10.3909 27.1128 10.5015 27.0246 10.6155C26.7614 10.9463 26.7614 10.9463 26.4796 11.2398C26.2137 11.517 26.2137 11.517 26.3207 11.9628C26.3579 12.09 26.3951 12.2172 26.4334 12.3483C26.8122 12.3946 27.191 12.4408 27.5812 12.4885C27.7967 12.2375 28.0119 11.9863 28.2269 11.7349C28.3467 11.595 28.4666 11.4551 28.59 11.311C28.8894 10.9704 28.8894 10.9704 29.057 10.6659C29.6104 10.8421 30.0809 11.0464 30.5737 11.3231C32.8778 12.508 35.4926 13.108 38.0465 13.7725C41.2535 14.6086 41.2535 14.6086 41.9082 15.6519C42.02 16.0246 41.9699 16.1932 41.8467 16.5544C37.7892 17.3525 33.8609 17.7074 29.7026 17.7024C29.571 17.7023 29.4393 17.7022 29.3037 17.7021C26.2635 17.6968 23.31 17.5176 20.3144 17.0608C18.8074 16.8344 17.2943 16.6733 15.7753 16.5194C15.6525 16.507 15.5297 16.4945 15.4032 16.4817C14.7075 16.4114 14.0117 16.3423 13.3158 16.274C13.2903 16.1922 13.2647 16.1103 13.2385 16.026C12.6428 14.0253 12.6428 14.0253 11.6408 12.1583C11.5771 12.0441 11.5771 12.0441 11.5121 11.9277C11.5662 11.8352 11.6203 11.7426 11.6761 11.6473C11.7951 11.689 11.9141 11.7308 12.0367 11.7738C12.5788 11.9633 13.1215 12.1514 13.6642 12.3396C13.8515 12.4052 14.0388 12.4709 14.2317 12.5386C14.5044 12.6328 14.5044 12.6328 14.7825 12.7289C14.9491 12.787 15.1157 12.845 15.2873 12.9047C16.7741 13.3453 18.2278 13.3412 19.6658 12.8001C20.1896 12.5593 20.5912 12.277 21.0224 11.9277C21.6653 13.1646 21.5595 14.3871 21.5143 15.7132C22.0014 15.6652 22.0014 15.6652 22.4981 15.573C23.0253 14.6715 22.7417 13.0983 22.4059 12.1731C21.9023 11.0512 21.2393 9.94787 20.2025 9.12361C19.932 9.21615 19.6614 9.30868 19.3827 9.40402C19.3785 9.49872 19.3742 9.59343 19.3699 9.691C19.2932 10.7218 19.2932 10.7218 18.901 11.1653C18.1944 11.5864 17.6009 11.5612 16.7592 11.5071C16.2871 11.4271 15.8473 11.2986 15.3961 11.1566C15.2616 11.1153 15.1271 11.0741 14.9885 11.0316C12.5796 10.266 10.2478 9.3176 7.90845 8.41076C7.42859 8.22502 6.94804 8.04061 6.46742 7.8563C5.74356 7.57867 5.02022 7.30008 4.29737 7.02055C4.27127 6.27918 4.36279 5.60844 4.53308 4.88243C4.55516 4.78339 4.57725 4.68435 4.60001 4.5823C4.69379 4.16925 4.79747 3.77484 4.95325 3.37523C5.54266 3.54322 5.58718 3.6596 5.89608 4.10254C6.7633 5.25034 7.83778 5.84934 9.35292 6.26092C11.2752 6.57781 12.9502 6.27531 14.5814 5.3715C15.6422 4.69809 16.5414 3.85207 17.0698 2.80373C17.5657 1.92682 18.0484 1.85071 19.1556 1.8746Z" fill="white"/>
<path d="M3.47705 8.70264C6.20627 9.42548 9.06044 10.6168 10.4663 12.8387C10.9794 13.7715 11.6756 15.0922 11.6756 16.1335C9.91007 16.0166 8.15476 15.8195 6.39778 15.634C6.08212 15.6008 5.76645 15.5677 5.45078 15.5346C4.68352 15.4541 3.9163 15.3732 3.1491 15.2922C3.1409 14.6242 3.135 13.9562 3.13109 13.2881C3.12946 13.0616 3.12723 12.8351 3.12436 12.6086C3.10795 11.2768 3.14275 10.0117 3.47705 8.70264Z" fill="white"/>
<path d="M2.82261 17.165C4.28104 17.2664 5.73079 17.417 7.18193 17.5752C7.42898 17.602 7.67602 17.6288 7.92307 17.6555C8.44045 17.7115 8.9578 17.7678 9.47512 17.8241C10.1227 17.8947 10.7703 17.9648 11.4179 18.0348C13.8688 18.2998 16.3183 18.5701 18.7649 18.8623C19.337 18.9296 19.9091 18.9967 20.4812 19.0637C20.8357 19.1057 21.1901 19.1485 21.5443 19.1921C24.1914 19.5174 26.7906 19.6105 29.4641 19.5956C30.1061 19.5923 30.748 19.5928 31.3901 19.5937C34.3348 19.591 37.1819 19.4538 40.0748 18.9702C40.2327 18.9447 40.3907 18.9192 40.5535 18.8929C40.9305 18.832 41.3072 18.7701 41.6837 18.7073C40.9232 20.0428 39.5025 20.7347 37.9124 21.231C33.5961 22.3962 28.9912 22.2605 24.5177 22.2485C24.0829 22.2474 23.6481 22.2469 23.2133 22.2464C19.6357 22.242 16.0616 22.2136 12.4866 22.0897C12.3256 22.0842 12.1646 22.0788 11.9987 22.0731C10.2908 22.0126 8.58567 21.9221 6.88153 21.8082C6.65308 21.7944 6.65308 21.7944 6.42 21.7803C5.06896 21.6833 3.65381 21.5211 2.65864 20.6701C2.1036 19.9583 2.25667 19.1187 2.3307 18.2867C2.45133 17.8747 2.60666 17.5497 2.82261 17.165Z" fill="white"/>
</svg>
