<svg width="26" height="19" viewBox="0 0 26 19" fill="none" xmlns="http://www.w3.org/2000/svg">
<path d="M10.6037 0.510847C10.297 0.563173 10.1476 0.641663 9.99559 0.821533C9.88892 0.94908 9.84892 1.0243 9.81425 1.17146L9.77157 1.36115H9.61423C9.21419 1.36115 8.55813 1.51813 8.04075 1.73724C7.07799 2.14604 5.97655 3.09772 5.39783 4.02652C4.58976 5.31832 4.06438 7.01565 3.81635 9.14141C3.77902 9.45536 3.73901 9.72026 3.72835 9.73335C3.68301 9.78567 2.31221 10.9172 1.44013 11.6236C0.416039 12.4543 0.232022 12.644 0.0880082 13.0266C0.0106677 13.2261 0 13.2817 0 13.5433C0 13.9325 0.0800074 14.1582 0.322697 14.4427C0.664062 14.845 1.15744 14.9889 1.65615 14.8352C2.02419 14.7207 2.33088 14.5114 3.555 13.5499L4.17639 13.0626L4.42174 13.1673C4.97646 13.3995 5.62186 13.8442 6.38726 14.5114C7.02465 15.0641 7.39535 15.3159 7.86473 15.5056C8.37678 15.7149 9.15818 15.8195 9.71557 15.7541C9.97159 15.7214 10.4783 15.6102 10.6863 15.535C10.721 15.5219 10.737 15.5514 10.761 15.6593C10.937 16.5227 11.1477 17.01 11.5691 17.5267C11.9558 18.0009 12.4785 18.2691 13.2812 18.413C13.7133 18.4882 14.036 18.5045 14.348 18.4653C15.3694 18.3377 16.1242 17.9518 16.6442 17.2814C17.0976 16.6993 17.3429 16.0681 17.5776 14.8711C17.631 14.6095 17.6896 14.3609 17.711 14.3217C17.7723 14.2007 18.0817 14.1353 18.2044 14.2138C18.2817 14.2661 18.3217 14.3871 18.4524 14.9529C18.5191 15.2407 18.6044 15.5841 18.6444 15.7182C18.9191 16.6568 19.4818 17.5005 20.1405 17.9616C20.6286 18.3018 21.5487 18.5372 22.1887 18.4849C23.0048 18.4162 23.6395 18.2167 24.1062 17.8832C24.4396 17.6444 24.8556 17.0623 25.029 16.5914C25.189 16.1564 25.3437 15.3748 25.4824 14.2955L25.5437 13.8377L25.7091 13.6251C25.9891 13.2719 26.0024 13.2163 25.9997 12.5622C25.9971 11.9409 25.9731 11.7839 25.8531 11.6138C25.7517 11.4732 25.597 11.4012 25.1223 11.277C23.2982 10.793 21.3887 10.8289 20.0152 11.3751C19.9192 11.4143 19.6978 11.5222 19.5218 11.6171C18.9458 11.9212 18.9591 11.918 18.023 11.931C17.4069 11.9376 17.1829 11.931 17.1269 11.8983L17.0496 11.8591L17.1536 11.7152C17.3669 11.4176 17.4123 11.0513 17.415 9.61888C17.415 8.72934 17.4043 8.41538 17.3669 8.0491C17.1749 6.25038 16.6869 4.94222 15.7935 3.8401C14.9507 2.80012 13.6439 1.9073 12.5692 1.63586L12.3371 1.57699L12.3078 1.42002C12.2331 0.978512 11.9904 0.693989 11.5797 0.556633C11.4091 0.497765 10.833 0.471601 10.6037 0.510847ZM11.3371 1.21398C11.4571 1.25649 11.6678 1.4331 11.6678 1.48869C11.6678 1.4985 11.5557 1.49196 11.4224 1.47234C11.2864 1.44945 11.049 1.42983 10.8943 1.42656C10.7397 1.42328 10.561 1.4102 10.497 1.40039L10.3796 1.3775L10.4916 1.29901C10.5556 1.25649 10.6383 1.21071 10.6757 1.19763C10.7983 1.15184 11.1957 1.16165 11.3371 1.21398ZM11.0544 2.21472C11.2224 2.23434 11.4011 2.27359 11.4491 2.29975C11.5744 2.3717 11.9664 2.89823 12.1531 3.24162C12.5798 4.03306 12.8759 5.04688 13.0145 6.21114C13.1132 7.04836 13.1132 8.45789 13.0172 9.45536C12.9639 9.98517 12.8439 10.8158 12.8119 10.8649C12.7985 10.8845 12.6838 10.9107 12.5532 10.9205C12.4252 10.9303 12.1745 10.963 11.9958 10.9957L11.6704 11.0546L11.4757 10.9467C9.49422 9.84127 7.97941 9.26568 6.73396 9.14795C6.13924 9.08908 5.30983 9.1643 4.66977 9.32782C4.56842 9.35398 4.48042 9.36706 4.47508 9.36052C4.45908 9.3409 4.53642 8.69336 4.60309 8.26167C4.83245 6.79327 5.29649 5.49819 5.95522 4.47456C6.18724 4.11155 6.69929 3.51306 7.00065 3.25143C8.02474 2.35862 9.3342 2.02177 11.0544 2.21472ZM13.0279 2.58754C14.3907 3.26779 15.2628 4.10174 15.9428 5.36738C16.3268 6.08686 16.6015 7.09741 16.7082 8.19626C16.7562 8.68028 16.7749 10.3482 16.7376 10.7439C16.6976 11.1592 16.6789 11.2214 16.5695 11.3031C16.4415 11.398 16.2788 11.3882 15.7055 11.241C14.9534 11.048 14.1293 10.9107 13.7293 10.9107C13.6546 10.9107 13.5853 10.8976 13.5746 10.8813C13.5666 10.8649 13.5853 10.6687 13.6119 10.4463C13.7266 9.57637 13.7586 9.04329 13.7586 7.90193C13.7586 7.04509 13.7479 6.70169 13.7106 6.33214C13.5639 4.84084 13.2119 3.54904 12.7399 2.74125C12.6598 2.6039 12.5878 2.46981 12.5798 2.44692C12.5585 2.37824 12.6972 2.42075 13.0279 2.58754ZM6.61395 9.96554C7.56604 10.0408 8.68081 10.4038 10.0996 11.0938L10.6277 11.3489L10.473 11.4372C10.3903 11.483 10.2996 11.5517 10.2756 11.5844C10.1529 11.7544 10.0623 12.2254 10.0569 12.7258C10.0543 13.0528 10.0596 13.1018 10.1263 13.2752C10.1716 13.3929 10.257 13.5335 10.361 13.6513C10.5183 13.8344 10.521 13.8442 10.5236 14.0176C10.5236 14.1157 10.5316 14.3021 10.5423 14.4329C10.553 14.5604 10.5583 14.6814 10.553 14.7011C10.5396 14.7501 10.1716 14.8875 9.87825 14.9529C9.49955 15.0346 8.82749 15.0281 8.47545 14.9365C7.91007 14.7926 7.55003 14.5801 6.88331 14.0045C5.81921 13.0888 5.28582 12.7192 4.52042 12.366C3.92036 12.088 3.34964 11.9376 2.72825 11.8951C2.52557 11.882 2.35222 11.8591 2.34422 11.8493C2.33355 11.8395 2.43489 11.7446 2.5629 11.6433C2.69358 11.5419 3.12562 11.1985 3.52033 10.8845C3.9177 10.5673 4.31773 10.2664 4.41108 10.2141C4.60576 10.1062 4.91512 10.0048 5.16581 9.96554C5.41384 9.9263 6.12857 9.9263 6.61395 9.96554ZM23.4155 11.7283C23.6075 11.7479 23.9062 11.7839 24.0822 11.8133C24.4663 11.8722 25.3224 12.0749 25.3544 12.1142C25.3864 12.1534 25.4397 12.8827 25.4184 12.9874C25.405 13.0463 25.3677 13.0888 25.2877 13.1313C25.1597 13.2 25.0183 13.37 24.9783 13.5041C24.9623 13.5564 24.925 13.8638 24.893 14.1909C24.749 15.7607 24.5089 16.5358 23.9942 17.095C23.6022 17.5169 22.8101 17.7393 21.8287 17.7033C20.9059 17.6673 20.3832 17.4188 19.8792 16.7778C19.4365 16.212 19.2231 15.6756 18.9618 14.4754C18.8951 14.1647 18.8231 13.8606 18.7991 13.8017C18.7004 13.5499 18.4924 13.4616 18.0043 13.4616C17.6123 13.4616 17.495 13.491 17.3749 13.6153C17.2629 13.7298 17.2336 13.8083 17.1349 14.2628C16.9909 14.9365 16.8202 15.62 16.7482 15.8065C16.5189 16.4213 16.1135 16.9903 15.7055 17.2749C15.0627 17.7196 13.876 17.8406 12.8785 17.5659C12.4545 17.4482 12.2385 17.3043 11.9451 16.9446C11.7371 16.6895 11.6838 16.6012 11.5771 16.333C11.3744 15.8228 11.2677 15.2178 11.113 13.7134C11.081 13.4093 11.0117 13.2784 10.8063 13.1444L10.6677 13.0528L10.673 12.6538C10.673 12.438 10.689 12.2287 10.705 12.1894C10.753 12.0815 11.2197 11.9245 11.9078 11.7872C12.3932 11.6923 13.6733 11.6661 14.3747 11.7414C15.4228 11.8526 15.8761 11.9932 16.7029 12.4543L17.0603 12.6505L18.0657 12.6538H19.0711L19.3698 12.487C19.7698 12.2581 20.0099 12.1404 20.2952 12.039C21.1806 11.7217 22.2527 11.6171 23.4155 11.7283ZM3.09095 12.7225C3.20563 12.7486 3.31231 12.7846 3.32564 12.801C3.33631 12.8141 3.29897 12.8598 3.23497 12.9056C3.17096 12.9481 2.8776 13.1705 2.58157 13.4027C1.94951 13.8933 1.72283 14.0339 1.4668 14.0862C1.0401 14.1745 0.653394 13.9129 0.653394 13.5368C0.653394 13.3831 0.762738 13.1673 0.901417 13.0495C1.0401 12.9318 1.44013 12.7585 1.72816 12.6898C1.96818 12.6342 2.78159 12.6538 3.09095 12.7225Z" fill="#051F2D"/>
<path d="M21.8965 16.9912C22.1697 17.0063 22.478 16.9826 22.7559 16.9307C23.0389 16.8777 23.2649 16.8012 23.3877 16.7256V16.7246C23.5695 16.6113 23.7646 16.3244 23.918 15.8379C24.0676 15.3632 24.1637 14.7417 24.1846 14.0254C24.2057 13.3078 24.1387 13.0061 24.0166 12.8359L23.9609 12.7705C23.8566 12.666 23.7533 12.603 23.5664 12.5625C23.3627 12.5184 23.0664 12.5019 22.5781 12.5068L22.0654 12.5137C21.9935 12.5151 21.9313 12.517 21.8838 12.5186C21.8605 12.5193 21.8412 12.5198 21.8262 12.5205C21.8187 12.5209 21.8123 12.5212 21.8076 12.5215C21.8053 12.5216 21.8031 12.5224 21.8018 12.5225H21.7979C21.2349 12.5731 20.566 12.7381 20.2314 12.9004L20.2305 12.9014L20.083 12.9814C19.9471 13.0651 19.8451 13.1587 19.7715 13.2607C19.6986 13.3618 19.6485 13.4786 19.6221 13.6152L19.6035 13.7588C19.5891 13.9844 19.6565 14.4185 19.7773 14.8867C19.8673 15.2351 19.9796 15.5754 20.0908 15.8311L20.2012 16.0557C20.382 16.3772 20.5899 16.5943 20.8486 16.7393C21.1105 16.8859 21.4448 16.9695 21.8945 16.9912H21.8965Z" stroke="#051F2D" stroke-width="0.5"/>
<path d="M13.9922 16.9883C14.293 16.9911 14.5662 16.9716 14.7129 16.9365C15.0101 16.8626 15.2332 16.7588 15.415 16.6172C15.5968 16.4756 15.7508 16.285 15.8945 16.0156V16.0146C16.1214 15.5883 16.3371 14.8455 16.4199 14.1631V14.1621C16.4579 13.8524 16.4562 13.6816 16.417 13.5234L16.3652 13.3652C16.3282 13.2719 16.2926 13.21 16.251 13.1611C16.2092 13.1121 16.1528 13.0648 16.0625 13.0107L16.0605 13.0098C15.9409 12.9371 15.6932 12.839 15.4014 12.75C15.1858 12.6843 14.9621 12.6283 14.7734 12.5938L14.5977 12.5674C14.2934 12.5307 13.9172 12.5018 13.582 12.4873C13.2397 12.4725 12.9629 12.4734 12.8457 12.4883H12.8447C12.6924 12.507 12.535 12.5476 12.4033 12.5986C12.2637 12.6528 12.1819 12.7075 12.1543 12.7373V12.7383C12.0839 12.8139 12.0043 12.9613 11.958 13.1357C11.9302 13.2461 11.9073 13.4486 11.8984 13.7061C11.8941 13.8324 11.893 13.9683 11.8955 14.1064L11.9141 14.5215C11.9962 15.655 12.2378 16.3309 12.5771 16.6504C12.6551 16.7239 12.7097 16.7614 12.7861 16.7949C12.8721 16.8326 12.9936 16.8683 13.2158 16.9189C13.3998 16.9606 13.6935 16.9855 13.9922 16.9883Z" stroke="#051F2D" stroke-width="0.5"/>
</svg>
