<svg width="28" height="23" viewBox="0 0 28 23" fill="none" xmlns="http://www.w3.org/2000/svg">
<path d="M10.9069 0.698871C10.9806 0.725603 11.0544 0.752336 11.1303 0.779878C11.2048 0.807729 11.2793 0.83558 11.356 0.864275C11.5064 0.919625 11.6569 0.974767 11.8075 1.02968C11.8732 1.05412 11.9388 1.07856 12.0064 1.10374C13.2491 1.51694 14.9652 1.34074 16.1572 0.90766C16.2633 0.86717 16.3694 0.82668 16.4787 0.784962C16.6367 0.724898 16.6367 0.724898 16.7978 0.663621C16.9354 0.606408 16.9354 0.606408 17.0757 0.548041C17.7296 0.385857 18.4051 0.60106 19.0295 0.781573C19.1071 0.803533 19.1846 0.825492 19.2645 0.848117C19.4275 0.894478 19.5904 0.941164 19.7531 0.988159C19.999 1.05901 20.2454 1.12847 20.4919 1.1978C22.459 1.7564 23.679 2.36884 24.6624 3.99883C24.7317 4.11051 24.8013 4.22209 24.8711 4.33358C25.0119 4.55864 25.1518 4.78406 25.2913 5.00973C25.584 5.48089 25.8939 5.94358 26.2036 6.40668C26.407 6.71377 26.6098 7.02116 26.8125 7.32861C26.8793 7.4297 26.8793 7.4297 26.9475 7.53283C27.0665 7.71367 27.1839 7.89516 27.3008 8.077C27.3643 8.17476 27.4277 8.27252 27.4931 8.37324C27.6271 8.63577 27.6816 8.78267 27.6243 9.064C27.2075 9.53043 26.5236 9.84357 25.9554 10.1588C25.4316 10.4538 24.9298 10.7766 24.4272 11.0972C23.2694 11.8246 23.2694 11.8246 22.6392 11.8569C22.0826 11.6603 21.7921 11.2486 21.5356 10.7994C21.5354 10.8586 21.5353 10.9177 21.5351 10.9787C21.5314 12.4176 21.5254 13.8565 21.5169 15.2954C21.5129 15.9913 21.5096 16.6871 21.5081 17.383C21.5068 17.9895 21.504 18.5959 21.4996 19.2024C21.4973 19.5235 21.4957 19.8447 21.4958 20.1658C21.4959 20.5242 21.4928 20.8826 21.4895 21.241C21.4903 21.401 21.4903 21.401 21.491 21.5642C21.4896 21.6618 21.4882 21.7594 21.4868 21.8599C21.4862 21.9871 21.4862 21.9871 21.4856 22.1168C21.4176 22.4113 21.3113 22.5119 21.0282 22.6868C20.754 22.7303 20.754 22.7303 20.4344 22.7303C20.313 22.7312 20.1916 22.732 20.0666 22.7329C19.8674 22.7317 19.8674 22.7317 19.6642 22.7304C19.5226 22.7307 19.3811 22.7312 19.2396 22.7318C18.8554 22.733 18.4714 22.732 18.0873 22.7306C17.6855 22.7294 17.2836 22.73 16.8818 22.7303C16.2071 22.7305 15.5324 22.7293 14.8577 22.7273C14.0773 22.725 13.297 22.7249 12.5166 22.7259C11.7661 22.7268 11.0157 22.7263 10.2653 22.725C9.94576 22.7245 9.62624 22.7246 9.30672 22.725C8.93064 22.7254 8.5546 22.7245 8.17853 22.7226C7.97439 22.7219 7.77026 22.7225 7.56612 22.7231C7.44504 22.7222 7.32397 22.7214 7.19922 22.7205C7.09376 22.7203 6.98831 22.7201 6.87965 22.7198C6.58001 22.682 6.49328 22.6304 6.31385 22.4265C6.18307 22.2029 6.19823 22.0412 6.19631 21.7907C6.19532 21.6926 6.19433 21.5946 6.1933 21.4935C6.19272 21.3854 6.19214 21.2773 6.19153 21.166C6.19053 21.0525 6.18953 20.9391 6.18849 20.8222C6.18574 20.5107 6.18361 20.1991 6.18159 19.8875C6.17937 19.5621 6.17659 19.2367 6.17387 18.9113C6.1688 18.2949 6.16424 17.6784 6.15986 17.062C6.15486 16.3603 6.14928 15.6586 6.14366 14.9569C6.13211 13.5132 6.12127 12.0695 6.11089 10.6259C6.07283 10.6917 6.03476 10.7576 5.99554 10.8255C5.91764 10.9549 5.91764 10.9549 5.83817 11.0868C5.78755 11.1724 5.73692 11.258 5.68476 11.3461C5.48246 11.6054 5.32375 11.7115 4.99463 11.8406C4.52132 11.8263 4.22982 11.6954 3.84666 11.4664C3.74122 11.404 3.63579 11.3416 3.52716 11.2773C3.40739 11.2048 3.28768 11.1323 3.16802 11.0597C3.02931 10.9763 2.89057 10.8929 2.7518 10.8096C2.53096 10.6768 2.31048 10.5437 2.09088 10.4094C1.7463 10.199 1.4009 9.99303 1.04293 9.79951C0.951084 9.74883 0.951084 9.74883 0.857387 9.69713C0.693107 9.60709 0.527359 9.51901 0.361516 9.43108C0.123677 9.23754 0.123677 9.23754 0 8.97079C0.033396 8.45833 0.325772 8.10826 0.631068 7.67569C0.728822 7.52319 0.825573 7.37022 0.921232 7.21676C1.42801 6.41592 1.93821 5.61807 2.48589 4.83704C2.71284 4.51322 2.93187 4.1872 3.14265 3.85545C4.21904 2.17509 5.65354 1.61305 7.72456 1.02614C7.97119 0.955906 8.21683 0.88346 8.46253 0.810892C8.6211 0.765395 8.77973 0.720028 8.93841 0.674806C9.01083 0.653215 9.08325 0.631625 9.15787 0.60938C9.78012 0.436872 10.3018 0.474682 10.9069 0.698871ZM18.3898 1.86213C18.3638 1.94384 18.3378 2.02555 18.311 2.10975C18.2759 2.21784 18.2408 2.32594 18.2046 2.43731C18.1703 2.54408 18.1359 2.65085 18.1005 2.76086C17.789 3.60466 17.2763 4.33093 16.3737 4.78518C15.1308 5.33644 13.7805 5.55476 12.399 5.25699C11.2687 4.93729 10.3836 4.38824 9.76411 3.51075C9.49145 3.00219 9.27782 2.49838 9.15524 1.9489C8.43873 2.05807 7.75337 2.21005 7.06225 2.40444C6.97199 2.42826 6.88173 2.45208 6.78873 2.47663C5.13126 2.9414 4.49179 4.08432 3.66273 5.31122C3.54961 5.47776 3.43635 5.64423 3.32308 5.8107C3.24705 5.92245 3.17108 6.03422 3.09516 6.14602C2.85156 6.5044 2.60515 6.86122 2.35659 7.2171C2.29519 7.3051 2.23379 7.3931 2.17053 7.48376C2.05547 7.64837 1.9401 7.81282 1.82438 7.9771C1.74837 8.08611 1.74837 8.08611 1.67082 8.19732C1.62654 8.26037 1.58225 8.32342 1.53662 8.38838C1.42736 8.54 1.42736 8.54 1.44289 8.71693C1.60803 8.83717 1.60803 8.83717 1.82542 8.95622C1.90678 9.00307 1.98815 9.04991 2.07198 9.09817C2.15949 9.14775 2.24701 9.19732 2.33717 9.24839C2.51446 9.35006 2.69165 9.45185 2.86874 9.55378C2.95503 9.6034 3.04132 9.65302 3.13022 9.70414C3.52359 9.93417 3.90305 10.1788 4.28111 10.4269C4.48932 10.5624 4.48932 10.5624 4.79168 10.5391C4.83004 10.4704 4.86841 10.4017 4.90794 10.3309C5.05129 10.0745 5.19486 9.81822 5.33858 9.56198C5.40058 9.45135 5.46248 9.34068 5.5243 9.22998C5.61349 9.07028 5.70301 8.91071 5.79258 8.75116C5.84626 8.65528 5.89993 8.5594 5.95523 8.46062C6.09742 8.21919 6.23931 7.98705 6.41533 7.76246C6.70286 7.69836 6.92575 7.73752 7.22715 7.76246C7.41188 7.92041 7.34331 8.16776 7.34469 8.38013C7.34544 8.46422 7.34544 8.46422 7.34621 8.55001C7.34777 8.7392 7.34862 8.92838 7.34947 9.11758C7.35044 9.25266 7.35145 9.38774 7.35251 9.52282C7.35526 9.89068 7.35739 10.2585 7.35941 10.6264C7.36163 11.0104 7.36441 11.3944 7.36713 11.7784C7.3722 12.5061 7.37676 13.2338 7.38114 13.9615C7.38708 14.9445 7.39381 15.9274 7.40049 16.9104C7.41101 18.4599 7.42047 20.0093 7.43011 21.5588C11.6496 21.5588 15.869 21.5588 20.2164 21.5588C20.2225 20.5702 20.2287 19.5815 20.235 18.5629C20.2391 17.9385 20.2432 17.3141 20.2475 16.6897C20.2542 15.6975 20.2609 14.7053 20.2668 13.7131C20.2712 12.9907 20.2759 12.2682 20.281 11.5457C20.2837 11.1629 20.2862 10.7802 20.2883 10.3974C20.2903 10.0375 20.2928 9.67763 20.2956 9.31777C20.2965 9.1853 20.2973 9.05283 20.2979 8.92036C20.2987 8.74028 20.3002 8.56021 20.3018 8.38013C20.3024 8.27911 20.3031 8.17809 20.3038 8.07401C20.3178 7.84923 20.3178 7.84923 20.4193 7.76246C20.6903 7.75021 20.9596 7.75877 21.2311 7.76246C21.7927 8.70886 22.327 9.6654 22.8548 10.6259C23.4293 10.3587 23.9516 10.0509 24.4785 9.7202C24.6349 9.62268 24.7913 9.52518 24.9478 9.42769C25.0222 9.38117 25.0967 9.33466 25.1733 9.28673C25.4814 9.09496 25.7916 8.90581 26.1021 8.71693C26.0436 8.40111 25.9456 8.16609 25.7592 7.88956C25.7083 7.81334 25.6575 7.73712 25.605 7.65859C25.5493 7.57654 25.4936 7.49449 25.4362 7.40996C25.3164 7.23167 25.1967 7.05339 25.077 6.8751C25.0131 6.78045 24.9493 6.6858 24.8835 6.58827C24.6718 6.27307 24.4627 5.95669 24.2541 5.63999C24.1464 5.47697 24.0386 5.31398 23.9307 5.15101C23.8611 5.04567 23.7917 4.94025 23.7224 4.83474C22.7043 3.28534 21.8474 2.70049 19.8485 2.22005C19.7064 2.18491 19.5644 2.14966 19.4224 2.1143C19.0786 2.02895 18.7343 1.94511 18.3898 1.86213Z" fill="#051F2D"/>
<path d="M16.8678 1.9458C16.962 2.1647 16.9779 2.27008 16.8932 2.49523C16.4305 3.28027 15.9603 3.74509 14.9833 4.052C13.9528 4.3155 12.9584 4.28528 11.9969 3.85473C11.3194 3.46434 10.8204 2.96863 10.5762 2.29288C10.6097 2.20698 10.6431 2.12108 10.6777 2.03257C10.7585 2.05662 10.8393 2.08067 10.9226 2.10544C11.0302 2.13687 11.1377 2.1683 11.2485 2.20069C11.3544 2.23189 11.4604 2.2631 11.5695 2.29525C12.2898 2.4818 12.9875 2.48508 13.7347 2.48811C13.8968 2.4908 13.8968 2.4908 14.0621 2.49353C15.0473 2.49762 16.0065 2.37539 16.8678 1.9458Z" fill="white"/>
</svg>
