<svg width="26" height="24" viewBox="0 0 26 24" fill="none" xmlns="http://www.w3.org/2000/svg">
<path d="M7.96519 0.306484C8.10764 0.306471 8.25009 0.30634 8.39255 0.306097C8.69007 0.305976 8.98754 0.307071 9.28505 0.309076C9.66521 0.311569 10.0453 0.311326 10.4254 0.310209C10.7193 0.309597 11.013 0.310284 11.3068 0.311373C11.447 0.311767 11.5871 0.3118 11.7272 0.311455C11.9234 0.311197 12.1196 0.312843 12.3157 0.314561C12.4827 0.315272 12.4827 0.315272 12.6531 0.315997C13.0849 0.362688 13.4326 0.492877 13.7522 0.747974C14.0751 1.10902 14.2124 1.2847 14.2092 1.7355C14.2089 1.81807 14.2086 1.90065 14.2082 1.98572C14.2074 2.07214 14.2065 2.15856 14.2056 2.2476C14.2052 2.3347 14.2047 2.4218 14.2042 2.51154C14.203 2.72703 14.2013 2.94251 14.1992 3.158C14.2568 3.16224 14.3144 3.16647 14.3737 3.17084C16.6949 3.36297 18.6772 4.37908 20.1835 5.86727C21.0888 6.83961 22.3065 8.2702 22.3065 9.56372C22.4208 9.56734 22.5351 9.57096 22.6529 9.57469C23.5499 9.67497 24.2327 10.1777 24.7948 10.7545C25.6427 11.7589 25.8243 12.8321 25.6931 14.039C25.5211 14.7325 25.1914 15.2755 24.5065 15.6897C23.8953 15.9444 23.1969 15.9886 22.5499 15.8053C21.3713 15.336 20.8502 14.5979 20.3567 13.6002C19.9846 12.6922 19.9489 11.483 20.4352 10.603C20.5619 10.4412 20.5619 10.4412 20.8634 10.2328C21.1018 10.024 21.1018 10.024 21.0678 9.79475C20.6438 8.10107 19.4304 6.44164 17.7466 5.47103C17.4916 5.33636 17.233 5.21139 16.9701 5.08849C16.8936 5.0497 16.8171 5.0109 16.7384 4.97092C15.9446 4.59245 15.0808 4.45527 14.1992 4.29875C14.2025 4.40779 14.2058 4.51683 14.2092 4.62918C14.2085 5.03778 14.1139 5.30803 13.7887 5.61499C13.6051 5.69109 13.6051 5.69109 13.4103 5.75759C13.2143 5.82586 13.2143 5.82586 13.0703 5.96599C12.9749 6.34648 12.9631 6.71848 12.9677 7.10674C13.1016 7.10266 13.2355 7.09859 13.3734 7.0944C15.1659 7.05579 16.3793 7.33651 17.7141 8.40653C18.6583 9.25304 19.0522 10.1758 19.0386 11.3312C19.0072 11.9942 18.9156 12.651 18.8237 13.3095C18.8075 13.4278 18.8075 13.4278 18.791 13.5484C18.5798 15.0787 18.3162 16.602 18.0412 18.1248C18.0218 18.2332 18.0024 18.3416 17.9823 18.4533C17.8022 19.4533 17.6203 20.4531 17.375 21.4432C17.3602 21.5053 17.3454 21.5675 17.3302 21.6315C17.1804 22.2037 16.8989 22.5552 16.3543 22.9017C15.6124 23.2148 14.9144 23.304 14.0962 23.2981C13.9362 23.299 13.9362 23.299 13.7731 23.2999C13.4243 23.3015 13.0756 23.3005 12.7268 23.2993C12.4824 23.2995 12.238 23.2999 11.9935 23.3003C11.4828 23.3008 10.9721 23.3001 10.4613 23.2984C9.80857 23.2964 9.15588 23.2976 8.50313 23.2997C7.99891 23.3009 7.4947 23.3005 6.99048 23.2996C6.74987 23.2994 6.50925 23.2997 6.26864 23.3005C5.93174 23.3014 5.59494 23.3 5.25805 23.2981C5.15987 23.2988 5.0617 23.2995 4.96055 23.3002C4.22501 23.2924 3.48733 23.1815 2.91871 22.7532C2.37224 22.2539 2.16726 21.6685 2.04184 21.0054C2.02973 20.9427 2.01762 20.88 2.00515 20.8154C1.96606 20.6115 1.92833 20.4074 1.89071 20.2034C1.86357 20.0594 1.83638 19.9154 1.80913 19.7714C1.74214 19.4157 1.67642 19.0598 1.61123 18.7038C1.58055 18.5367 1.54944 18.3696 1.51825 18.2026C1.39072 17.5179 1.27516 16.832 1.16593 16.1449C1.14761 16.0301 1.14761 16.0301 1.12892 15.9129C1.04228 15.3676 0.957826 14.822 0.875192 14.2763C0.84713 14.0919 0.818681 13.9075 0.789805 13.7232C0.648604 12.8183 0.525243 11.9208 0.518913 11.0068C0.51815 10.9401 0.517387 10.8734 0.516602 10.8046C0.524095 10.202 0.71496 9.72984 1.0633 9.21273C1.11027 9.14192 1.15723 9.07111 1.20561 8.99815C1.89171 8.04987 2.89004 7.32353 4.18172 7.05601C4.45046 7.01891 4.69945 7.00899 4.97145 7.01042C5.06702 7.0107 5.1626 7.01098 5.26108 7.01127C5.40881 7.01238 5.40881 7.01238 5.55953 7.0135C5.66 7.0139 5.76048 7.01429 5.864 7.0147C6.11101 7.01573 6.35801 7.01731 6.60502 7.01899C6.60502 6.6715 6.60502 6.32401 6.60502 5.96599C6.514 5.94789 6.42299 5.92979 6.32921 5.91115C5.85503 5.74285 5.60554 5.48527 5.37352 5.08849C5.36232 4.96676 5.35721 4.8446 5.35536 4.7225C5.35338 4.60912 5.35338 4.60912 5.35137 4.49345C5.35061 4.41155 5.34985 4.32965 5.34907 4.24528C5.34824 4.16107 5.34741 4.07687 5.34656 3.99012C5.34514 3.81161 5.34404 3.6331 5.34323 3.45459C5.34147 3.18224 5.33697 2.90999 5.33243 2.63768C5.3314 2.46423 5.33052 2.29079 5.32983 2.11735C5.32803 2.03616 5.32624 1.95498 5.32438 1.87133C5.32631 1.38056 5.37867 1.07713 5.78402 0.701015C6.4391 0.241806 7.15082 0.30013 7.96519 0.306484ZM2.47439 9.33887C1.55558 10.4893 1.77418 11.6005 1.95485 12.9256C1.96398 12.9937 1.97311 13.0618 1.98252 13.132C2.04082 13.5666 2.10071 14.001 2.16164 14.4354C2.19145 14.6481 2.22093 14.8608 2.2504 15.0735C2.47057 16.6524 2.73601 18.2188 3.08372 19.7811C3.09915 19.8505 3.11459 19.9199 3.13049 19.9914C3.22352 20.4066 3.31731 20.8215 3.42366 21.2344C3.44599 21.342 3.46833 21.4496 3.49134 21.5604C3.64274 21.8776 3.77846 21.9704 4.12697 22.1287C4.54504 22.2633 4.9665 22.2475 5.40823 22.2437C5.56455 22.2444 5.56455 22.2444 5.72403 22.2451C6.06703 22.2462 6.40994 22.2448 6.75294 22.2432C6.99203 22.2432 7.23112 22.2433 7.47021 22.2436C7.97064 22.2437 8.47104 22.2426 8.97146 22.2406C9.61253 22.2381 10.2535 22.2384 10.8946 22.2395C11.3881 22.2401 11.8815 22.2394 12.375 22.2383C12.6114 22.2379 12.8477 22.2379 13.0841 22.2382C13.4145 22.2385 13.7448 22.237 14.0752 22.2351C14.1726 22.2355 14.27 22.2359 14.3704 22.2363C14.986 22.2304 15.4527 22.1679 15.919 21.7904C16.105 21.4913 16.1688 21.1804 16.2389 20.8505C16.2558 20.7741 16.2728 20.6977 16.2902 20.619C16.3475 20.3564 16.4025 20.0935 16.457 19.8304C16.4768 19.7355 16.4967 19.6406 16.5171 19.5428C16.9928 17.2479 17.3786 14.9372 17.6547 12.6183C17.6749 12.4489 17.6958 12.2796 17.7168 12.1102C17.8381 11.0271 17.8005 10.1714 17.0021 9.28334C16.3811 8.70141 15.4464 8.20164 14.506 8.14795C14.4328 8.14758 14.3596 8.1472 14.2842 8.14682C14.1996 8.14619 14.115 8.14556 14.0279 8.14491C13.936 8.14468 13.8441 8.14444 13.7494 8.1442C13.6031 8.14333 13.6031 8.14333 13.4539 8.14245C13.1312 8.14072 12.8086 8.1397 12.4859 8.13882C12.3754 8.13846 12.265 8.13811 12.1512 8.13774C11.5665 8.13591 10.9817 8.13465 10.397 8.13383C9.79451 8.13286 9.19205 8.12984 8.58957 8.12636C8.12506 8.12406 7.66055 8.12333 7.19603 8.12301C6.97403 8.12259 6.75203 8.12157 6.53004 8.11994C6.21838 8.11779 5.90682 8.11788 5.59516 8.11849C5.50449 8.11737 5.41382 8.11624 5.32041 8.11509C4.09716 8.12372 3.27971 8.59289 2.47439 9.33887Z" fill="#051F2D"/>
</svg>
