<svg width="16" height="22" viewBox="0 0 16 22" fill="none" xmlns="http://www.w3.org/2000/svg">
<path d="M5.08479 0.735877C5.23589 0.734602 5.23589 0.734602 5.39004 0.733301C5.49938 0.733438 5.60871 0.733638 5.71805 0.733897C5.8309 0.733591 5.94375 0.733235 6.0566 0.732832C6.29279 0.732234 6.52897 0.732395 6.76516 0.733062C7.06708 0.733832 7.36893 0.732478 7.67083 0.730521C7.9038 0.729288 8.13676 0.72931 8.36974 0.729693C8.48101 0.729703 8.59228 0.7293 8.70355 0.728467C8.85945 0.727464 9.01536 0.728361 9.17126 0.729332C9.30405 0.729348 9.30405 0.729348 9.43952 0.729365C9.8479 0.784677 10.0891 0.957336 10.3447 1.22648C10.5627 1.58946 10.5036 1.99804 10.491 2.39451C10.4899 2.52591 10.4887 2.65731 10.4879 2.78871C10.4855 3.111 10.48 3.43319 10.4706 3.75539C10.4654 3.93682 10.4626 4.11808 10.4622 4.29956C10.4618 4.46989 10.4579 4.64024 10.4502 4.81045C10.4517 5.04688 10.4619 5.23063 10.5521 5.45446C10.8129 5.66563 11.0953 5.79054 11.4167 5.92361C12.7785 6.83376 13.7418 8.09218 14.089 9.54277C14.163 9.53966 14.2369 9.53655 14.3131 9.53334C15.2126 9.51111 15.2126 9.51111 15.4792 9.65586C15.9715 10.0757 15.9916 10.4283 15.995 10.9921C15.9974 11.0899 15.9974 11.0899 15.9999 11.1898C16.0025 11.6053 15.9505 11.9142 15.7396 12.2906C15.3626 12.5964 15.1425 12.6339 14.6294 12.6299C14.5287 12.6293 14.4279 12.6287 14.3242 12.6281C14.2078 12.6269 14.2078 12.6269 14.089 12.6258C14.0793 12.6714 14.0695 12.717 14.0595 12.764C13.6691 14.3289 12.4528 15.5884 10.9205 16.4651C10.7093 16.58 10.7093 16.58 10.5521 16.647C10.552 16.6945 10.5519 16.7421 10.5518 16.791C10.5504 17.2406 10.5471 17.6902 10.5417 18.1398C10.539 18.3709 10.5371 18.6019 10.5367 18.833C10.5363 19.0992 10.5328 19.3654 10.5291 19.6316C10.5294 19.7139 10.5297 19.7961 10.53 19.8809C10.5217 20.3002 10.4851 20.6117 10.2106 20.9653C9.88359 21.2297 9.54767 21.2967 9.10834 21.2975C9.01076 21.2982 8.91318 21.2988 8.81265 21.2995C8.70719 21.2991 8.60174 21.2987 8.49629 21.2982C8.38708 21.2984 8.27786 21.2986 8.16865 21.2988C7.94032 21.2991 7.71202 21.2987 7.48369 21.2977C7.19192 21.2966 6.9002 21.2972 6.60843 21.2985C6.38308 21.2992 6.15774 21.2989 5.93238 21.2984C5.82484 21.2983 5.7173 21.2985 5.60976 21.2989C5.45913 21.2994 5.30851 21.2985 5.15789 21.2975C5.07239 21.2974 4.98689 21.2972 4.89881 21.2971C4.51547 21.2565 4.26155 21.1421 4.00394 20.8987C3.80102 20.6488 3.78305 20.52 3.78379 20.2169C3.7838 20.1364 3.7838 20.0559 3.78381 19.973C3.78421 19.8857 3.78462 19.7985 3.78504 19.7086C3.78518 19.6186 3.78529 19.5286 3.78537 19.4387C3.78567 19.2018 3.78645 18.9649 3.78731 18.728C3.78812 18.4863 3.78848 18.2446 3.78887 18.0029C3.78972 17.5286 3.79106 17.0543 3.79271 16.58C3.6832 16.5508 3.6832 16.5508 3.57148 16.521C2.28661 16.1358 1.33929 14.9491 0.737229 13.962C0.231464 13.0548 -0.0108987 12.1239 0.000375767 11.122C0.0007937 11.0546 0.00121163 10.9872 0.00164223 10.9177C0.00868032 10.4486 0.0493293 10.0003 0.17722 9.54277C0.192874 9.47538 0.192874 9.47538 0.208844 9.40663C0.590936 7.89236 1.73382 6.55556 3.21428 5.68301C3.40219 5.58724 3.58898 5.5218 3.79271 5.45446C3.79184 5.40512 3.79097 5.35578 3.79007 5.30495C3.78217 4.83859 3.7762 4.37223 3.77235 3.90583C3.7703 3.66608 3.76753 3.42637 3.76307 3.18664C3.75878 2.95502 3.75644 2.72343 3.75543 2.49178C3.75435 2.36098 3.75129 2.2302 3.74819 2.09943C3.74801 1.6069 3.77299 1.32132 4.1857 0.964021C4.49256 0.773799 4.70791 0.737419 5.08479 0.735877Z" fill="white"/>
<path d="M5.08479 0.735877C5.23589 0.734602 5.23589 0.734602 5.39004 0.733301C5.49938 0.733438 5.60871 0.733638 5.71805 0.733897C5.8309 0.733591 5.94375 0.733235 6.0566 0.732832C6.29279 0.732234 6.52897 0.732395 6.76516 0.733062C7.06708 0.733832 7.36892 0.732478 7.67083 0.730521C7.9038 0.729288 8.13676 0.72931 8.36973 0.729693C8.48101 0.729703 8.59228 0.7293 8.70355 0.728467C8.85945 0.727464 9.01536 0.728361 9.17126 0.729332C9.30405 0.729348 9.30405 0.729348 9.43952 0.729365C9.8479 0.784677 10.0891 0.957336 10.3447 1.22648C10.5627 1.58946 10.5036 1.99804 10.491 2.39451C10.4899 2.52591 10.4887 2.65731 10.4879 2.78871C10.4855 3.111 10.48 3.43319 10.4706 3.75539C10.4654 3.93682 10.4626 4.11808 10.4622 4.29956C10.4618 4.46989 10.4579 4.64024 10.4502 4.81045C10.4517 5.04688 10.4619 5.23063 10.5521 5.45446C10.8129 5.66563 11.0953 5.79054 11.4167 5.92361C12.7785 6.83376 13.7418 8.09218 14.089 9.54277C14.163 9.53966 14.2369 9.53655 14.3131 9.53334C15.2126 9.51111 15.2126 9.51111 15.4792 9.65586C15.9715 10.0757 15.9916 10.4283 15.995 10.9921C15.9974 11.0899 15.9974 11.0899 15.9999 11.1898C16.0025 11.6053 15.9505 11.9142 15.7396 12.2906C15.3626 12.5964 15.1425 12.6339 14.6294 12.6299C14.5287 12.6293 14.4279 12.6287 14.3242 12.6281C14.2078 12.6269 14.2078 12.6269 14.089 12.6258C14.0793 12.6714 14.0695 12.717 14.0595 12.764C13.6691 14.3289 12.4528 15.5884 10.9205 16.4651C10.7093 16.58 10.7093 16.58 10.5521 16.647C10.552 16.6945 10.5519 16.7421 10.5518 16.791C10.5504 17.2406 10.5471 17.6902 10.5417 18.1398C10.539 18.3709 10.5371 18.6019 10.5367 18.833C10.5363 19.0992 10.5328 19.3654 10.5291 19.6316C10.5294 19.7138 10.5297 19.7961 10.53 19.8809C10.5217 20.3002 10.4851 20.6117 10.2106 20.9653C9.88359 21.2297 9.54767 21.2967 9.10834 21.2975C9.01076 21.2982 8.91318 21.2988 8.81265 21.2995C8.70719 21.2991 8.60174 21.2987 8.49629 21.2982C8.38708 21.2984 8.27786 21.2986 8.16865 21.2988C7.94032 21.2991 7.71202 21.2987 7.48369 21.2977C7.19192 21.2966 6.9002 21.2972 6.60843 21.2985C6.38308 21.2992 6.15774 21.2989 5.93238 21.2984C5.82484 21.2983 5.7173 21.2985 5.60976 21.2989C5.45913 21.2994 5.30851 21.2985 5.15789 21.2975C5.07239 21.2974 4.98689 21.2972 4.89881 21.2971C4.51547 21.2565 4.26155 21.1421 4.00394 20.8987C3.80102 20.6488 3.78305 20.52 3.78379 20.2169C3.78379 20.1364 3.7838 20.0559 3.78381 19.973C3.78421 19.8857 3.78462 19.7985 3.78504 19.7086C3.78518 19.6186 3.78529 19.5286 3.78537 19.4387C3.78567 19.2018 3.78645 18.9649 3.78731 18.728C3.78812 18.4863 3.78848 18.2446 3.78887 18.0029C3.78972 17.5286 3.79106 17.0543 3.79271 16.58C3.6832 16.5508 3.6832 16.5508 3.57148 16.521C2.28661 16.1358 1.33929 14.9491 0.737229 13.962C0.231465 13.0548 -0.0108987 12.1239 0.000375767 11.122C0.0007937 11.0546 0.00121163 10.9872 0.00164223 10.9177C0.00868032 10.4486 0.0493293 10.0003 0.17722 9.54277C0.192874 9.47538 0.192874 9.47538 0.208844 9.40663C0.590936 7.89236 1.73382 6.55556 3.21428 5.68301C3.40219 5.58724 3.58898 5.5218 3.79271 5.45446C3.79184 5.40512 3.79097 5.35578 3.79007 5.30495C3.78217 4.83859 3.7762 4.37223 3.77235 3.90583C3.7703 3.66608 3.76753 3.42637 3.76306 3.18664C3.75878 2.95502 3.75644 2.72343 3.75543 2.49178C3.75435 2.36098 3.75129 2.2302 3.74819 2.09943C3.74801 1.6069 3.77299 1.32132 4.1857 0.964021C4.49256 0.773799 4.70791 0.737419 5.08479 0.735877ZM3.08533 6.86191C3.01816 6.91375 2.95099 6.96558 2.88178 7.01899C1.79123 7.90277 1.05811 9.16078 1.00004 10.4533C0.998709 10.6273 0.99957 10.8014 1.0025 10.9753C1.00296 11.0208 1.00342 11.0662 1.00389 11.113C1.02272 12.6956 1.62799 13.9664 2.92323 15.1265C4.22185 16.1793 5.81707 16.5617 7.56478 16.5355C9.16313 16.4729 10.6479 15.8282 11.7311 14.8375C13.0278 13.5231 13.471 11.9745 13.303 10.28C13.1068 8.87057 12.19 7.58342 10.9451 6.66084C8.59035 5.1549 5.29616 5.14752 3.08533 6.86191Z" fill="#051F2D"/>
<path d="M4.73512 17.0508C5.08052 17.0999 5.08052 17.0999 5.42592 17.149C5.55084 17.1667 5.55084 17.1667 5.67829 17.1848C5.75706 17.1971 5.83584 17.2093 5.917 17.2219C6.94281 17.3537 8.1003 17.3257 9.10189 17.0948C9.29378 17.0508 9.29378 17.0508 9.52957 17.0508C9.53554 17.5052 9.53968 17.9597 9.54253 18.4142C9.54371 18.5689 9.54532 18.7235 9.54736 18.8782C9.55022 19.1003 9.55156 19.3223 9.5526 19.5444C9.55382 19.6138 9.55503 19.6831 9.55629 19.7545C9.55631 19.8189 9.55632 19.8833 9.55634 19.9497C9.55687 20.0064 9.55739 20.0631 9.55793 20.1215C9.52957 20.2678 9.52957 20.2678 9.43624 20.3866C9.2418 20.4989 9.108 20.4944 8.87393 20.4949C8.78816 20.4955 8.70239 20.4962 8.61402 20.4968C8.52142 20.4964 8.42882 20.496 8.33342 20.4956C8.19083 20.4959 8.19083 20.4959 8.04536 20.4962C7.84425 20.4963 7.64313 20.4959 7.44202 20.4951C7.13357 20.494 6.82521 20.4951 6.51677 20.4964C6.3216 20.4962 6.12644 20.496 5.93127 20.4956C5.79237 20.4962 5.79237 20.4962 5.65067 20.4968C5.5649 20.4962 5.47913 20.4955 5.39076 20.4949C5.3152 20.4947 5.23964 20.4946 5.16179 20.4944C4.97091 20.4689 4.97091 20.4689 4.82845 20.3866C4.70677 20.2317 4.70663 20.1355 4.70835 19.9497C4.70837 19.8853 4.70838 19.8209 4.7084 19.7545C4.70962 19.6852 4.71084 19.6159 4.71209 19.5444C4.71242 19.4733 4.71276 19.4022 4.7131 19.3289C4.71442 19.1015 4.71738 18.8741 4.72038 18.6467C4.72156 18.4927 4.72264 18.3386 4.7236 18.1845C4.7262 17.8066 4.73015 17.4287 4.73512 17.0508Z" fill="white"/>
<path d="M5.32243 1.61523C5.41161 1.61459 5.50078 1.61395 5.59266 1.6133C5.68935 1.61336 5.78604 1.61342 5.88566 1.61348C6.03393 1.61305 6.03393 1.61305 6.18519 1.61261C6.39452 1.61223 6.60382 1.61213 6.81314 1.61248C7.08169 1.61287 7.3502 1.61174 7.61874 1.61018C7.87451 1.60896 8.13028 1.60921 8.38605 1.60929C8.53109 1.60837 8.53109 1.60837 8.67906 1.60742C8.81282 1.60805 8.81282 1.60805 8.94928 1.60869C9.02805 1.60864 9.10681 1.6086 9.18796 1.60856C9.24998 1.61684 9.312 1.62511 9.37589 1.63364C9.54471 1.84957 9.55246 1.90463 9.55093 2.15284C9.55092 2.21724 9.55091 2.28163 9.5509 2.34797C9.55008 2.4173 9.54927 2.48663 9.54844 2.55806C9.54821 2.62919 9.54799 2.70031 9.54776 2.77358C9.54688 3.00099 9.54491 3.22838 9.54291 3.45578C9.54212 3.60986 9.54141 3.76393 9.54076 3.918C9.53903 4.29592 9.5364 4.67382 9.53309 5.05173C9.44579 5.03796 9.44579 5.03796 9.35674 5.0239C9.27978 5.01184 9.20281 4.99979 9.12352 4.98736C9.04749 4.97541 8.97147 4.96346 8.89314 4.95115C7.7327 4.77828 6.63979 4.71917 5.48377 4.93418C5.23602 4.97995 4.98876 5.01702 4.73863 5.05173C4.73465 4.58649 4.7319 4.12125 4.73 3.656C4.7292 3.49763 4.72813 3.33926 4.72677 3.18089C4.72487 2.95365 4.72397 2.72641 4.72328 2.49916C4.72247 2.42802 4.72166 2.35687 4.72082 2.28357C4.72081 2.21784 4.7208 2.1521 4.72078 2.08437C4.72026 1.9973 4.72026 1.9973 4.71973 1.90848C4.76222 1.59198 5.01139 1.61645 5.32243 1.61523Z" fill="white"/>
<path d="M10.6206 7.84239C10.7876 7.93455 10.7876 7.93455 10.8662 8.00157C10.9039 8.27788 10.871 8.46693 10.6754 8.69384C10.5168 8.83755 10.3422 8.95459 10.1607 9.07705C9.69016 9.40222 9.25047 9.74749 8.81775 10.1086C8.70749 10.1967 8.70749 10.1967 8.59501 10.2867C8.19441 10.6219 7.95339 10.862 7.90225 11.3478C7.87949 11.4867 7.87949 11.4867 7.71738 11.6626C7.39502 11.7913 7.1285 11.8141 6.77913 11.7548C6.4525 11.5897 6.33138 11.489 6.22403 11.1767C6.01225 10.6023 5.08565 10.1544 4.5305 9.81926C4.4212 9.74413 4.4212 9.74413 4.3426 9.61008C4.30695 9.19213 4.30695 9.19213 4.43593 9.00689C4.57839 8.93987 4.57839 8.93987 4.75063 8.94772C5.05119 9.02828 5.26292 9.18189 5.50191 9.35037C5.55046 9.38344 5.599 9.41651 5.64902 9.45058C5.86311 9.59669 6.07292 9.74501 6.27868 9.89964C6.36591 9.96366 6.36591 9.96366 6.45491 10.029C6.50334 10.0666 6.55177 10.1043 6.60167 10.1431C6.81645 10.228 6.98874 10.2478 7.22281 10.2141C7.66539 10.0519 7.98651 9.69604 8.31178 9.40064C8.42938 9.29598 8.54738 9.19166 8.66546 9.08738C8.74199 9.0198 8.81838 8.95209 8.89463 8.88427C9.19564 8.6179 9.51053 8.37144 9.84443 8.13561C9.89258 8.10035 9.94072 8.06508 9.99033 8.02875C10.3392 7.79024 10.3392 7.79024 10.6206 7.84239Z" fill="#051F2D"/>
<path d="M11.3391 10.5903C11.4245 10.5892 11.4245 10.5892 11.5117 10.588C11.9235 10.5899 11.9235 10.5899 12.1236 10.705C12.2486 10.879 12.228 11.0197 12.2037 11.2187C12.0465 11.4197 12.0465 11.4197 11.9013 11.4447C11.8438 11.4445 11.7864 11.4443 11.7272 11.4441C11.6646 11.444 11.602 11.444 11.5375 11.444C11.4393 11.4423 11.4393 11.4423 11.3391 11.4407C11.241 11.441 11.241 11.441 11.1408 11.4413C10.6527 11.4376 10.6527 11.4376 10.4746 11.2857C10.4311 10.8783 10.4311 10.8783 10.5547 10.7027C10.7996 10.5655 11.0561 10.5865 11.3391 10.5903Z" fill="#051F2D"/>
<path d="M7.1266 6.64062C7.4066 6.66157 7.4066 6.66157 7.54016 6.73226C7.69568 6.93058 7.67653 7.13088 7.67187 7.36111C7.67248 7.44949 7.67309 7.53787 7.67371 7.62893C7.64188 7.87192 7.61652 7.97268 7.4066 8.13604C7.1266 8.16117 7.1266 8.16117 6.85642 8.13604C6.67048 7.97749 6.67913 7.94487 6.67835 7.72972C6.67815 7.67633 6.67794 7.62294 6.67773 7.56793C6.67834 7.51212 6.67895 7.45631 6.67958 7.3988C6.67897 7.34299 6.67836 7.28718 6.67773 7.22968C6.67794 7.17629 6.67814 7.1229 6.67835 7.06789C6.67853 7.0189 6.6787 6.96991 6.67889 6.91944C6.71959 6.67165 6.85477 6.6617 7.1266 6.64062Z" fill="#051F2D"/>
<path d="M2.59254 10.6604C2.65014 10.661 2.70774 10.6615 2.76708 10.662C2.82438 10.6615 2.88167 10.661 2.9407 10.6604C3.24031 10.6614 3.38176 10.668 3.63657 10.8128C3.68736 11.2098 3.68736 11.2098 3.55644 11.3958C3.3104 11.5336 3.05139 11.512 2.76708 11.5082C2.70948 11.5089 2.65189 11.5097 2.59254 11.5105C2.42537 11.5097 2.42537 11.5097 2.14321 11.483C1.95073 11.2368 1.96123 11.1034 1.98602 10.8128C2.18648 10.6419 2.31887 10.6613 2.59254 10.6604Z" fill="#051F2D"/>
<path d="M7.13151 14.0835C7.4066 14.1003 7.4066 14.1003 7.5638 14.2343C7.59861 14.434 7.58928 14.6358 7.58836 14.8375C7.58963 14.8933 7.59089 14.9491 7.5922 15.0066C7.59228 15.0867 7.59228 15.0867 7.59235 15.1684C7.5927 15.2419 7.5927 15.2419 7.59306 15.3168C7.5638 15.4407 7.5638 15.4407 7.32801 15.5747C7.0873 15.5915 7.0873 15.5915 6.85642 15.5747C6.67048 15.4162 6.67913 15.3836 6.67835 15.1684C6.67815 15.115 6.67794 15.0616 6.67773 15.0066C6.67834 14.9508 6.67895 14.895 6.67958 14.8375C6.67897 14.7817 6.67836 14.7259 6.67773 14.6684C6.67794 14.615 6.67814 14.5616 6.67835 14.5066C6.67853 14.4576 6.6787 14.4086 6.67889 14.3581C6.72012 14.1071 6.85618 14.1003 7.13151 14.0835Z" fill="#051F2D"/>
<path d="M14.2471 10.4175C14.4805 10.4175 14.7139 10.4175 14.9544 10.4175C15.124 10.5621 15.0476 10.8831 15.0478 11.0835C15.0487 11.1396 15.0497 11.1957 15.0507 11.2535C15.0509 11.3341 15.0509 11.3341 15.0512 11.4163C15.0515 11.4657 15.0518 11.5151 15.0521 11.566C15.033 11.6909 15.033 11.6909 14.8759 11.8249C14.6684 11.8249 14.4609 11.8249 14.2471 11.8249C14.2471 11.3605 14.2471 10.896 14.2471 10.4175Z" fill="white"/>
</svg>
