<svg width="48" height="48" viewBox="0 0 48 48" fill="none" xmlns="http://www.w3.org/2000/svg">
<rect width="48" height="48" fill="white"/>
<path d="M30.6357 25.0718C30.6051 21.9939 33.1457 20.5177 33.2592 20.4431C31.8314 18.3554 29.6069 18.069 28.8152 18.0364C26.9237 17.8443 25.1224 19.1506 24.1628 19.1506C23.2052 19.1506 21.7225 18.0645 20.1539 18.0922C18.0905 18.1228 16.1885 19.2923 15.1266 21.1395C12.9837 24.857 14.5784 30.3663 16.6666 33.3835C17.6874 34.8582 18.9049 36.5177 20.5021 36.4569C22.0416 36.3962 22.6224 35.4612 24.4834 35.4612C26.3443 35.4612 26.8669 36.4569 28.4952 36.4258C30.1507 36.3957 31.2002 34.9229 32.2127 33.4422C33.3847 31.7289 33.8672 30.07 33.8959 29.986C33.8598 29.9692 30.6688 28.7468 30.6357 25.0718Z" fill="black"/>
<path d="M27.5799 16.0396C28.4269 15.0114 29.0008 13.5826 28.8447 12.1602C27.6224 12.2095 26.1427 12.9726 25.265 13.9999C24.4788 14.9116 23.7913 16.3631 23.9755 17.7599C25.3391 17.8656 26.7299 17.0659 27.5799 16.0396Z" fill="black"/>
</svg>
