<svg width="48" height="48" viewBox="0 0 48 48" fill="none" xmlns="http://www.w3.org/2000/svg">
<rect width="48" height="48" fill="white"/>
<g clip-path="url(#clip0_3659_493)">
<g clip-path="url(#clip1_3659_493)">
<path d="M38 24C38 16.268 31.732 10 24 10C16.268 10 10 16.268 10 24C10 30.9878 15.1196 36.7796 21.8125 37.8299V28.0469H18.2578V24H21.8125V20.9156C21.8125 17.4069 23.9026 15.4687 27.1005 15.4687C28.6322 15.4687 30.2344 15.7422 30.2344 15.7422V19.1875H28.469C26.7299 19.1875 26.1875 20.2666 26.1875 21.3738V24H30.0703L29.4496 28.0469H26.1875V37.8299C32.8804 36.7796 38 30.9878 38 24Z" fill="#1877F2"/>
<path d="M29.4496 28.0469L30.0703 24H26.1875V21.3738C26.1875 20.2666 26.7298 19.1875 28.469 19.1875H30.2344V15.7422C30.2344 15.7422 28.6322 15.4688 27.1005 15.4688C23.9026 15.4688 21.8125 17.4069 21.8125 20.9156V24H18.2578V28.0469H21.8125V37.8299C22.5252 37.9418 23.2558 38 24 38C24.7442 38 25.4747 37.9418 26.1875 37.8299V28.0469H29.4496Z" fill="white"/>
</g>
</g>
<defs>
<clipPath id="clip0_3659_493">
<rect width="28" height="28" fill="white" transform="translate(10 10)"/>
</clipPath>
<clipPath id="clip1_3659_493">
<rect width="28" height="28" fill="white" transform="translate(10 10)"/>
</clipPath>
</defs>
</svg>
