<svg width="40" height="41" viewBox="0 0 40 41" fill="none" xmlns="http://www.w3.org/2000/svg">
<rect width="40" height="40" transform="translate(0 0.019043)" fill="#051F2D"/>
<path d="M26.1082 7.25659H12.893C9.76998 7.25659 7.23828 9.78829 7.23828 12.9113V26.1265C7.23828 29.2495 9.76998 31.7812 12.893 31.7812H26.1082C29.2312 31.7812 31.7629 29.2495 31.7629 26.1265V12.9113C31.7629 9.78829 29.2312 7.25659 26.1082 7.25659Z" fill="#C7A77B"/>
<path d="M23.4547 12.095C24.3857 12.0988 25.2776 12.4703 25.9359 13.1286C26.5942 13.7869 26.9657 14.6787 26.9695 15.6098V23.4282C26.9657 24.3592 26.5942 25.251 25.9359 25.9093C25.2776 26.5676 24.3857 26.9392 23.4547 26.9429H15.5446C14.6136 26.9392 13.7217 26.5676 13.0634 25.9093C12.4051 25.251 12.0336 24.3592 12.0298 23.4282V15.6098C12.0336 14.6787 12.4051 13.7869 13.0634 13.1286C13.7217 12.4703 14.6136 12.0988 15.5446 12.095H23.4547ZM23.4547 10.4602H15.5446C12.7122 10.4602 10.3945 12.7806 10.3945 15.6103V23.4282C10.3945 26.2605 12.7148 28.5782 15.5446 28.5782H23.4547C26.2871 28.5782 28.6048 26.2579 28.6048 23.4282V15.6098C28.6048 12.7774 26.2871 10.4597 23.4547 10.4597V10.4602Z" fill="#051F2D"/>
<path d="M19.499 16.4673C20.1026 16.4673 20.6926 16.6463 21.1945 16.9816C21.6963 17.3169 22.0875 17.7935 22.3184 18.3512C22.5494 18.9088 22.6099 19.5224 22.4921 20.1144C22.3744 20.7064 22.0837 21.2501 21.6569 21.6769C21.2301 22.1037 20.6864 22.3944 20.0944 22.5121C19.5024 22.6299 18.8888 22.5694 18.3312 22.3385C17.7735 22.1075 17.2969 21.7163 16.9616 21.2145C16.6262 20.7126 16.4473 20.1226 16.4473 19.519C16.4482 18.71 16.7701 17.9343 17.3422 17.3622C17.9143 16.7901 18.6899 16.4683 19.499 16.4673ZM19.499 14.8325C18.5721 14.8325 17.666 15.1074 16.8953 15.6223C16.1246 16.1373 15.524 16.8692 15.1692 17.7256C14.8145 18.5819 14.7217 19.5242 14.9026 20.4333C15.0834 21.3424 15.5297 22.1775 16.1851 22.8329C16.8406 23.4883 17.6756 23.9346 18.5847 24.1155C19.4938 24.2963 20.4361 24.2035 21.2925 23.8488C22.1488 23.4941 22.8807 22.8934 23.3957 22.1227C23.9107 21.352 24.1855 20.4459 24.1855 19.519C24.1855 18.2761 23.6918 17.0841 22.8129 16.2052C21.934 15.3263 20.7419 14.8325 19.499 14.8325Z" fill="#051F2D"/>
<path d="M24.2869 15.7381C24.9005 15.7381 25.398 15.2406 25.398 14.627C25.398 14.0133 24.9005 13.5159 24.2869 13.5159C23.6732 13.5159 23.1758 14.0133 23.1758 14.627C23.1758 15.2406 23.6732 15.7381 24.2869 15.7381Z" fill="#051F2D"/>
</svg>
