<svg width="48" height="48" viewBox="0 0 48 48" fill="none" xmlns="http://www.w3.org/2000/svg">
<rect width="48" height="48" fill="white"/>
<g clip-path="url(#clip0_3659_474)">
<path d="M24.0004 15.8333C25.8866 15.8333 27.6185 16.4791 29.0011 17.5531L33.2445 13.5048C30.7773 11.3299 27.5478 10 24.0004 10C18.6249 10 13.9632 13.0332 11.6172 17.4782L16.3357 21.2032C17.4787 18.0726 20.4741 15.8333 24.0004 15.8333Z" fill="#F44336"/>
<path d="M37.8787 25.7523C37.9516 25.1787 38 24.5936 38 24.0002C38 22.9993 37.8907 22.0248 37.6911 21.0835H24V26.9168H31.5672C30.9551 28.5079 29.8651 29.8542 28.4777 30.7895L33.2137 34.5285C35.7243 32.3248 37.4423 29.2389 37.8787 25.7523Z" fill="#2196F3"/>
<path d="M15.8333 23.9999C15.8333 23.0158 16.0163 22.0768 16.3353 21.2031L11.6168 17.478C10.5884 19.4266 10 21.6434 10 23.9999C10 26.33 10.5776 28.5223 11.5846 30.455L16.3091 26.7251C16.0065 25.8717 15.8333 24.957 15.8333 23.9999Z" fill="#FFC107"/>
<path d="M24.0014 32.1665C20.4482 32.1665 17.4335 29.8933 16.3104 26.7251L11.5859 30.455C13.9205 34.9356 18.5995 37.9998 24.0014 37.9998C27.5338 37.9998 30.7549 36.6876 33.2151 34.5282L28.479 30.7892C27.1994 31.6519 25.6678 32.1665 24.0014 32.1665Z" fill="#00B060"/>
<path opacity="0.1" d="M23.9992 37.7083C19.8789 37.7083 16.1741 36.0083 13.5547 33.2998C16.1188 36.1774 19.8418 37.9999 23.9992 37.9999C28.1182 37.9999 31.8103 36.2133 34.3687 33.3808C31.7571 36.0454 28.0803 37.7083 23.9992 37.7083Z" fill="black"/>
<path opacity="0.1" d="M24 26.625V26.9167H31.5672L31.6854 26.625H24Z" fill="black"/>
<path d="M37.9923 24.1715C37.993 24.1141 37.9978 24.0576 37.9978 24C37.9978 23.9837 37.9956 23.968 37.9955 23.9517C37.9949 24.0251 37.9917 24.0978 37.9923 24.1715Z" fill="#E6E6E6"/>
<path opacity="0.2" d="M24 21.0835V21.3752H37.7498C37.7315 21.2789 37.7114 21.1791 37.6911 21.0835H24Z" fill="white"/>
<path d="M37.6911 21.0833H24V26.9167H31.5672C30.3905 29.9752 27.4734 32.1667 24 32.1667C19.4897 32.1667 15.8333 28.5103 15.8333 24C15.8333 19.4896 19.4897 15.8333 24 15.8333C25.6355 15.8333 27.1429 16.3358 28.4199 17.1641C28.6154 17.2912 28.8171 17.4104 29.0007 17.5531L33.244 13.5048L33.1483 13.4311C30.6931 11.3032 27.5041 10 24 10C16.268 10 10 16.268 10 24C10 31.7319 16.268 38 24 38C31.1373 38 37.0147 32.6552 37.8787 25.7521C37.9516 25.1786 38 24.5934 38 24C38 22.9992 37.8907 22.0246 37.6911 21.0833Z" fill="url(#paint0_linear_3659_474)"/>
<path opacity="0.1" d="M28.4225 16.8726C27.1455 16.0442 25.6381 15.5418 24.0026 15.5418C19.4923 15.5418 15.8359 19.1981 15.8359 23.7084C15.8359 23.7577 15.8366 23.7961 15.8375 23.8452C15.9161 19.4029 19.5415 15.8334 24.0026 15.8334C25.6381 15.8334 27.1455 16.3359 28.4225 17.1642C28.618 17.2913 28.8197 17.4106 29.0033 17.5532L33.2466 13.5049L29.0033 17.2615C28.8197 17.1189 28.618 16.9996 28.4225 16.8726Z" fill="black"/>
<path opacity="0.2" d="M24 10.2917C27.4709 10.2917 30.6301 11.5731 33.0758 13.6652L33.244 13.5048L33.1157 13.393C30.6604 11.2651 27.5041 10 24 10C16.268 10 10 16.268 10 24C10 24.0492 10.0068 24.0967 10.0073 24.1458C10.0864 16.4818 16.3172 10.2917 24 10.2917Z" fill="white"/>
</g>
<defs>
<linearGradient id="paint0_linear_3659_474" x1="10" y1="24" x2="38" y2="24" gradientUnits="userSpaceOnUse">
<stop stop-color="white" stop-opacity="0.2"/>
<stop offset="1" stop-color="white" stop-opacity="0"/>
</linearGradient>
<clipPath id="clip0_3659_474">
<rect width="28" height="28" fill="white" transform="translate(10 10)"/>
</clipPath>
</defs>
</svg>
