<svg width="393" height="372" viewBox="0 0 393 372" fill="none" xmlns="http://www.w3.org/2000/svg">
<path d="M163.017 48.3809H47.8516C37.5847 48.3809 29.2617 56.7038 29.2617 66.9707V333.528C29.2617 343.795 37.5847 352.118 47.8516 352.118H163.017C173.284 352.118 181.607 343.795 181.607 333.528V66.9707C181.607 56.7038 173.284 48.3809 163.017 48.3809Z" fill="#020202"/>
<path d="M173.884 48.3809H58.7744C48.4919 48.3809 40.1562 56.7165 40.1562 66.999V333.768C40.1562 344.051 48.4919 352.386 58.7744 352.386H173.884C184.166 352.386 192.502 344.051 192.502 333.768V66.999C192.502 56.7165 184.166 48.3809 173.884 48.3809Z" fill="white"/>
<path d="M179.465 52.3222C184.481 52.3222 188.56 56.4015 188.56 61.4174V339.353C188.56 344.369 184.481 348.448 179.465 348.448H53.1928C48.1769 348.448 44.0976 344.369 44.0976 339.353V61.4174C44.0976 56.4015 48.1769 52.3222 53.1928 52.3222H179.465ZM179.465 48.3809H53.1928C45.9923 48.3809 40.1562 54.2169 40.1562 61.4174V339.353C40.1562 346.554 45.9923 352.39 53.1928 352.39H179.465C186.666 352.39 192.502 346.554 192.502 339.353V61.4174C192.502 54.2169 186.666 48.3809 179.465 48.3809Z" fill="#1D3542"/>
<path d="M94.4883 339.248H138.169" stroke="#020202" stroke-width="0.600927" stroke-linecap="round" stroke-linejoin="round"/>
<path d="M145.887 52.3223L140.446 59.0208C138.835 61.0074 136.413 62.1598 133.857 62.1598H99.0991C96.6177 62.1598 94.2634 61.0746 92.648 59.1905L86.7695 52.3223H145.887Z" fill="#020202"/>
<path d="M38.7695 73.3359C48.2394 73.0178 57.7906 78.9245 57.7906 92.2085L57.6528 295.619" stroke="#020202" stroke-width="0.600927" stroke-linecap="round" stroke-linejoin="round"/>
<path d="M174.662 73.5239H38.7079L37.75 94.7543H57.6442V305.227C57.6442 317.352 67.4711 327.179 79.5957 327.179H196.614V95.4754C196.614 83.3509 186.787 73.5239 174.662 73.5239Z" fill="#E6E8EA"/>
<path d="M40.1367 73.5239C49.8046 73.5239 57.652 81.3713 57.652 91.0392V95.9986H22.625V91.0392C22.625 81.3713 30.4724 73.5239 40.1403 73.5239H40.1367Z" fill="#1D3542"/>
<path d="M215.557 310.537C215.557 319.728 208.105 327.179 198.915 327.179H79.6484C88.8391 327.179 96.2906 319.728 96.2906 310.537H215.557Z" fill="#1D3542"/>
<path d="M89.9545 184.204C96.0046 184.204 100.909 179.299 100.909 173.249C100.909 167.199 96.0046 162.295 89.9545 162.295C83.9045 162.295 79 167.199 79 173.249C79 179.299 83.9045 184.204 89.9545 184.204Z" fill="#051F2D"/>
<path d="M95.2893 169.831L88.7109 176.667L84.6211 173.249" stroke="white" stroke-width="0.600927" stroke-linecap="round" stroke-linejoin="round"/>
<path d="M154.146 169.917H115.711" stroke="#020202" stroke-width="0.600927" stroke-linecap="round" stroke-linejoin="round"/>
<path d="M168.73 176.58H115.711" stroke="#020202" stroke-width="0.600927" stroke-linecap="round" stroke-linejoin="round"/>
<path d="M89.9545 223.362C96.0046 223.362 100.909 218.458 100.909 212.408C100.909 206.358 96.0046 201.453 89.9545 201.453C83.9045 201.453 79 206.358 79 212.408C79 218.458 83.9045 223.362 89.9545 223.362Z" fill="#051F2D"/>
<path d="M95.2893 208.987L88.7109 215.827L84.6211 212.409" stroke="white" stroke-width="0.600927" stroke-linecap="round" stroke-linejoin="round"/>
<path d="M171.162 209.075H115.711" stroke="#020202" stroke-width="0.600927" stroke-linecap="round" stroke-linejoin="round"/>
<path d="M161.438 215.74H115.711" stroke="#020202" stroke-width="0.600927" stroke-linecap="round" stroke-linejoin="round"/>
<path d="M89.9545 262.524C96.0046 262.524 100.909 257.62 100.909 251.57C100.909 245.52 96.0046 240.615 89.9545 240.615C83.9045 240.615 79 245.52 79 251.57C79 257.62 83.9045 262.524 89.9545 262.524Z" fill="#051F2D"/>
<path d="M95.2893 248.147L88.7109 254.987L84.6211 251.569" stroke="white" stroke-width="0.600927" stroke-linecap="round" stroke-linejoin="round"/>
<path d="M171.162 248.235H115.711" stroke="#020202" stroke-width="0.600927" stroke-linecap="round" stroke-linejoin="round"/>
<path d="M161.438 254.897H115.711" stroke="#020202" stroke-width="0.600927" stroke-linecap="round" stroke-linejoin="round"/>
<path d="M89.9545 301.682C96.0046 301.682 100.909 296.778 100.909 290.727C100.909 284.677 96.0046 279.773 89.9545 279.773C83.9045 279.773 79 284.677 79 290.727C79 296.778 83.9045 301.682 89.9545 301.682Z" fill="#051F2D"/>
<path d="M95.2893 287.307L88.7109 294.147L84.6211 290.729" stroke="white" stroke-width="0.600927" stroke-linecap="round" stroke-linejoin="round"/>
<path d="M171.162 287.395H115.711" stroke="#020202" stroke-width="0.600927" stroke-linecap="round" stroke-linejoin="round"/>
<path d="M161.438 294.058H115.711" stroke="#020202" stroke-width="0.600927" stroke-linecap="round" stroke-linejoin="round"/>
<path d="M340.752 277.197V352.213H213.974V277.197H340.752Z" fill="#364B56" stroke="url(#paint0_linear_3159_768)" stroke-width="0.353486"/>
<path d="M337.731 277.197L213.974 290.926V277.197H337.731Z" fill="#50626C" stroke="url(#paint1_linear_3159_768)" stroke-width="0.353486"/>
<path d="M349.019 250.94V276.844H205.708V250.94H349.019Z" fill="#364B56" stroke="url(#paint2_linear_3159_768)" stroke-width="0.353486"/>
<path d="M277.367 250.764V352.391" stroke="url(#paint3_linear_3159_768)" stroke-width="0.600927" stroke-linecap="round" stroke-linejoin="round"/>
<path d="M277.389 250.765L260.91 244.313C255.713 242.277 254.31 235.579 258.258 231.634C262.203 227.689 268.905 229.089 270.938 234.285L277.389 250.765Z" stroke="url(#paint4_linear_3159_768)" stroke-width="0.600927" stroke-linecap="round" stroke-linejoin="round"/>
<path d="M277.074 250.765L293.554 244.313C298.75 242.277 300.153 235.579 296.205 231.634C292.26 227.689 285.558 229.089 283.525 234.285L277.074 250.765Z" stroke="url(#paint5_linear_3159_768)" stroke-width="0.600927" stroke-linecap="round" stroke-linejoin="round"/>
<path d="M263.061 293.946V352.208H164.54V293.946H263.061Z" fill="#C7A77B" stroke="url(#paint6_linear_3159_768)" stroke-width="0.353486"/>
<path d="M260.036 293.946L164.54 304.54V293.946H260.036Z" fill="#D7C1A2" stroke="url(#paint7_linear_3159_768)" stroke-width="0.353486"/>
<path d="M269.482 273.525V293.593H158.106V273.525H269.482Z" fill="#C7A77B" stroke="url(#paint8_linear_3159_768)" stroke-width="0.353486"/>
<path d="M213.797 273.349V352.388" stroke="url(#paint9_linear_3159_768)" stroke-width="0.600927" stroke-linecap="round" stroke-linejoin="round"/>
<path d="M213.82 273.35L201.003 268.334C196.962 266.75 195.87 261.54 198.942 258.472C202.01 255.403 207.221 256.492 208.804 260.532L213.82 273.35Z" stroke="url(#paint10_linear_3159_768)" stroke-width="0.600927" stroke-linecap="round" stroke-linejoin="round"/>
<path d="M213.578 273.35L226.396 268.334C230.436 266.75 231.528 261.54 228.456 258.472C225.388 255.403 220.178 256.492 218.594 260.532L213.578 273.35Z" stroke="url(#paint11_linear_3159_768)" stroke-width="0.600927" stroke-linecap="round" stroke-linejoin="round"/>
<path d="M252.764 47.1787L259.359 42.3286L254.509 35.7332L247.914 40.5833L252.764 47.1787Z" fill="url(#paint12_linear_3159_768)"/>
<path d="M362.308 266.601L363.891 261.656L358.945 260.073L357.362 265.018L362.308 266.601Z" fill="#C7A77B"/>
<path d="M224.327 66.7837L229.516 66.8462L229.578 61.6574L224.389 61.5949L224.327 66.7837Z" fill="url(#paint13_linear_3159_768)"/>
<path d="M232.632 30.547C219.875 30.9041 219.628 31.1975 219.32 46.1146C219.013 31.1939 218.765 30.9041 206.008 30.547C218.765 30.19 219.013 29.8966 219.32 14.9795C219.628 29.9002 219.875 30.19 232.632 30.547Z" fill="url(#paint14_linear_3159_768)"/>
<path d="M353.475 218.652C345.38 218.867 345.221 219.051 345.012 228.518C344.832 219.051 344.676 218.864 336.578 218.627C344.673 218.411 344.832 218.228 345.041 208.761C345.221 218.228 345.376 218.415 353.475 218.652Z" fill="url(#paint15_linear_3159_768)"/>
<path d="M280.949 156.872C267.997 157.236 267.742 157.529 267.431 172.68C267.12 157.533 266.869 157.236 253.914 156.872C266.866 156.508 267.12 156.214 267.431 141.064C267.742 156.211 267.993 156.508 280.949 156.872Z" fill="url(#paint16_linear_3159_768)"/>
<path d="M369.904 232.527L372.414 235.635L375.521 233.125L373.011 230.018L369.904 232.527Z" fill="url(#paint17_linear_3159_768)"/>
<path d="M100.314 145.171C99.38 145.171 98.4857 145.04 97.6314 144.778C96.777 144.504 96.0993 144.157 95.598 143.736L96.367 142.01C96.8454 142.386 97.4377 142.699 98.144 142.95C98.8503 143.2 99.5736 143.325 100.314 143.325C100.941 143.325 101.447 143.257 101.835 143.12C102.222 142.984 102.507 142.801 102.689 142.574C102.871 142.334 102.963 142.067 102.963 141.771C102.963 141.406 102.832 141.116 102.57 140.899C102.308 140.671 101.966 140.495 101.544 140.369C101.134 140.233 100.673 140.107 100.16 139.994C99.659 139.88 99.1521 139.749 98.6395 139.601C98.1383 139.441 97.677 139.242 97.2555 139.002C96.8454 138.752 96.5093 138.422 96.2473 138.011C95.9853 137.601 95.8543 137.077 95.8543 136.439C95.8543 135.79 96.0252 135.198 96.367 134.662C96.7201 134.116 97.2498 133.683 97.956 133.364C98.6737 133.033 99.5793 132.868 100.673 132.868C101.391 132.868 102.102 132.959 102.809 133.142C103.515 133.324 104.13 133.586 104.654 133.928L103.954 135.653C103.418 135.334 102.866 135.101 102.296 134.953C101.727 134.793 101.18 134.714 100.656 134.714C100.041 134.714 99.5394 134.788 99.1521 134.936C98.7762 135.084 98.4971 135.278 98.3149 135.517C98.144 135.756 98.0586 136.029 98.0586 136.337C98.0586 136.701 98.1839 136.998 98.4345 137.225C98.6965 137.442 99.0325 137.613 99.4426 137.738C99.8641 137.863 100.331 137.989 100.844 138.114C101.356 138.228 101.863 138.359 102.364 138.507C102.877 138.655 103.338 138.849 103.749 139.088C104.17 139.327 104.506 139.652 104.757 140.062C105.019 140.472 105.15 140.99 105.15 141.617C105.15 142.255 104.973 142.847 104.62 143.394C104.278 143.929 103.749 144.362 103.031 144.692C102.313 145.011 101.408 145.171 100.314 145.171ZM109.612 145V134.919H105.648V133.039H115.797V134.919H111.833V145H109.612ZM115.172 145L120.554 133.039H122.741L128.141 145H125.817L121.187 134.218H122.075L117.462 145H115.172ZM117.65 142.232L118.248 140.489H124.706L125.305 142.232H117.65ZM133.37 145.171C132.436 145.171 131.542 145.04 130.687 144.778C129.833 144.504 129.155 144.157 128.654 143.736L129.423 142.01C129.901 142.386 130.494 142.699 131.2 142.95C131.906 143.2 132.63 143.325 133.37 143.325C133.996 143.325 134.503 143.257 134.891 143.12C135.278 142.984 135.563 142.801 135.745 142.574C135.927 142.334 136.018 142.067 136.018 141.771C136.018 141.406 135.887 141.116 135.625 140.899C135.363 140.671 135.022 140.495 134.6 140.369C134.19 140.233 133.729 140.107 133.216 139.994C132.715 139.88 132.208 139.749 131.695 139.601C131.194 139.441 130.733 139.242 130.311 139.002C129.901 138.752 129.565 138.422 129.303 138.011C129.041 137.601 128.91 137.077 128.91 136.439C128.91 135.79 129.081 135.198 129.423 134.662C129.776 134.116 130.306 133.683 131.012 133.364C131.73 133.033 132.635 132.868 133.729 132.868C134.446 132.868 135.158 132.959 135.865 133.142C136.571 133.324 137.186 133.586 137.71 133.928L137.009 135.653C136.474 135.334 135.922 135.101 135.352 134.953C134.782 134.793 134.236 134.714 133.712 134.714C133.097 134.714 132.595 134.788 132.208 134.936C131.832 135.084 131.553 135.278 131.371 135.517C131.2 135.756 131.114 136.029 131.114 136.337C131.114 136.701 131.24 136.998 131.49 137.225C131.752 137.442 132.088 137.613 132.499 137.738C132.92 137.863 133.387 137.989 133.9 138.114C134.412 138.228 134.919 138.359 135.42 138.507C135.933 138.655 136.394 138.849 136.804 139.088C137.226 139.327 137.562 139.652 137.813 140.062C138.075 140.472 138.206 140.99 138.206 141.617C138.206 142.255 138.029 142.847 137.676 143.394C137.334 143.929 136.804 144.362 136.087 144.692C135.369 145.011 134.464 145.171 133.37 145.171ZM148.815 133.039H151.036V145H148.815V133.039ZM142.629 145H140.408V133.039H142.629V145ZM148.986 139.874H142.442V137.977H148.986V139.874Z" fill="#051F2D"/>
<path d="M126.34 98.0076C125.47 98.134 124.778 98.4044 123.923 98.9592C123.562 99.1944 123.502 99.219 123.424 99.1874C123.375 99.1699 123.177 99.0891 122.983 99.0118C121.679 98.4852 120.403 98.4255 119.516 98.8468C119.219 98.9873 118.929 99.2366 118.82 99.4402C118.725 99.6193 118.721 99.9599 118.813 100.237C119.067 101.01 120.018 102.358 121.117 103.506L121.71 104.124L125.315 104.131C127.297 104.135 128.937 104.142 128.955 104.149C128.976 104.152 129.774 104.159 130.732 104.159L132.471 104.166V104.402C132.471 104.77 132.481 104.788 132.714 104.833C133.312 104.953 133.799 105.135 134.294 105.43C135.079 105.897 135.623 106.294 136.125 106.765C136.57 107.183 136.775 107.263 137.026 107.133C136.601 107.133 135.686 107.435 136.397 107C135.482 107.303 136.612 107.183 136.125 106.765C135.036 105.827 134.451 105.317 133.419 104.913C133.111 104.79 132.633 104.815 132.714 104C132.389 104.579 132.909 103.425 133.064 103.246C133.683 102.527 134.792 100.922 135.1 100.3C135.206 100.083 135.305 99.8405 135.315 99.7597C135.464 98.7871 133.676 98.3272 131.679 98.8293C131.446 98.889 131.121 98.9908 130.951 99.0575C130.782 99.1242 130.619 99.1804 130.594 99.1804C130.566 99.1804 130.403 99.0786 130.227 98.9522C129.644 98.5378 129.057 98.2745 128.336 98.1024C128.011 98.0252 127.87 98.0146 127.205 98.0041C126.788 97.9971 126.4 98.0006 126.34 98.0076Z" fill="#051F2D"/>
<path d="M121.422 105.195C121.281 105.462 121.062 105.69 120.429 106.227C117.871 108.408 116.91 109.349 116.122 110.451C114.429 112.811 113.673 115.883 114.132 118.541C114.344 119.784 115.09 121.147 116.026 122C117.256 123.124 118.821 123.77 120.723 123.931C120.977 123.952 123.277 123.977 126.447 123.991C131.9 124.015 133.027 123.998 133.815 123.882C135.974 123.562 137.674 122.6 138.787 121.066C139.073 120.673 139.49 119.851 139.653 119.352C140.034 118.208 140.101 116.867 139.854 115.315C139.434 112.692 138.13 110.339 136.02 108.394C135.501 107.916 134.204 106.772 133.582 106.245C133.02 105.771 132.691 105.427 132.557 105.167L132.454 104.974H126.995H121.535L121.422 105.195ZM125.175 110.051C125.712 110.16 126.203 110.476 126.85 111.129L127.182 111.463L127.592 111.052C128.377 110.269 128.988 109.995 129.96 109.995C131.214 109.995 132.267 110.669 132.826 111.824C133.048 112.291 133.119 112.604 133.122 113.138C133.122 113.636 133.076 113.871 132.889 114.349C132.504 115.318 131.585 116.312 129.574 117.93C127.119 119.907 127.168 119.869 127.108 119.819C127.076 119.795 126.723 119.503 126.323 119.177C125.924 118.847 125.217 118.271 124.751 117.899C123.627 116.996 123.284 116.701 122.737 116.157C122.016 115.444 121.684 114.991 121.443 114.395C120.966 113.211 121.214 111.877 122.079 110.964C122.864 110.146 123.998 109.809 125.175 110.051Z" fill="#051F2D"/>
<path d="M121.5 104.5C125.796 104.5 132.5 104.5 132.5 104.5C134.287 104.787 134.77 105.599 136.376 107.432L136.499 107.5" stroke="#C7A77B" stroke-linecap="round"/>
<defs>
<linearGradient id="paint0_linear_3159_768" x1="213.797" y1="314.705" x2="340.928" y2="314.705" gradientUnits="userSpaceOnUse">
<stop stop-color="#F9F295"/>
<stop offset="0.5" stop-color="#E0AA3E" stop-opacity="0.933333"/>
<stop offset="0.75" stop-color="#F9F295"/>
<stop offset="1" stop-color="#B88A44"/>
</linearGradient>
<linearGradient id="paint1_linear_3159_768" x1="213.797" y1="284.072" x2="340.928" y2="284.072" gradientUnits="userSpaceOnUse">
<stop stop-color="#F9F295"/>
<stop offset="0.5" stop-color="#E0AA3E" stop-opacity="0.933333"/>
<stop offset="0.75" stop-color="#F9F295"/>
<stop offset="1" stop-color="#B88A44"/>
</linearGradient>
<linearGradient id="paint2_linear_3159_768" x1="205.531" y1="263.892" x2="349.195" y2="263.892" gradientUnits="userSpaceOnUse">
<stop stop-color="#F9F295"/>
<stop offset="0.5" stop-color="#E0AA3E" stop-opacity="0.933333"/>
<stop offset="0.75" stop-color="#F9F295"/>
<stop offset="1" stop-color="#B88A44"/>
</linearGradient>
<linearGradient id="paint3_linear_3159_768" x1="277.367" y1="301.577" x2="278.367" y2="301.577" gradientUnits="userSpaceOnUse">
<stop stop-color="#F9F295"/>
<stop offset="0.5" stop-color="#E0AA3E" stop-opacity="0.933333"/>
<stop offset="0.75" stop-color="#F9F295"/>
<stop offset="1" stop-color="#B88A44"/>
</linearGradient>
<linearGradient id="paint4_linear_3159_768" x1="255.988" y1="240.065" x2="277.389" y2="240.065" gradientUnits="userSpaceOnUse">
<stop stop-color="#F9F295"/>
<stop offset="0.5" stop-color="#E0AA3E" stop-opacity="0.933333"/>
<stop offset="0.75" stop-color="#F9F295"/>
<stop offset="1" stop-color="#B88A44"/>
</linearGradient>
<linearGradient id="paint5_linear_3159_768" x1="277.074" y1="240.065" x2="298.475" y2="240.065" gradientUnits="userSpaceOnUse">
<stop stop-color="#F9F295"/>
<stop offset="0.5" stop-color="#E0AA3E" stop-opacity="0.933333"/>
<stop offset="0.75" stop-color="#F9F295"/>
<stop offset="1" stop-color="#B88A44"/>
</linearGradient>
<linearGradient id="paint6_linear_3159_768" x1="164.363" y1="323.077" x2="263.237" y2="323.077" gradientUnits="userSpaceOnUse">
<stop stop-color="#F9F295"/>
<stop offset="0.5" stop-color="#E0AA3E" stop-opacity="0.933333"/>
<stop offset="0.75" stop-color="#F9F295"/>
<stop offset="1" stop-color="#B88A44"/>
</linearGradient>
<linearGradient id="paint7_linear_3159_768" x1="164.363" y1="299.254" x2="263.233" y2="299.254" gradientUnits="userSpaceOnUse">
<stop stop-color="#F9F295"/>
<stop offset="0.5" stop-color="#E0AA3E" stop-opacity="0.933333"/>
<stop offset="0.75" stop-color="#F9F295"/>
<stop offset="1" stop-color="#B88A44"/>
</linearGradient>
<linearGradient id="paint8_linear_3159_768" x1="157.93" y1="283.559" x2="269.66" y2="283.559" gradientUnits="userSpaceOnUse">
<stop stop-color="#F9F295"/>
<stop offset="0.5" stop-color="#E0AA3E" stop-opacity="0.933333"/>
<stop offset="0.75" stop-color="#F9F295"/>
<stop offset="1" stop-color="#B88A44"/>
</linearGradient>
<linearGradient id="paint9_linear_3159_768" x1="213.797" y1="312.868" x2="214.797" y2="312.868" gradientUnits="userSpaceOnUse">
<stop stop-color="#F9F295"/>
<stop offset="0.5" stop-color="#E0AA3E" stop-opacity="0.933333"/>
<stop offset="0.75" stop-color="#F9F295"/>
<stop offset="1" stop-color="#B88A44"/>
</linearGradient>
<linearGradient id="paint10_linear_3159_768" x1="197.176" y1="265.028" x2="213.82" y2="265.028" gradientUnits="userSpaceOnUse">
<stop stop-color="#F9F295"/>
<stop offset="0.5" stop-color="#E0AA3E" stop-opacity="0.933333"/>
<stop offset="0.75" stop-color="#F9F295"/>
<stop offset="1" stop-color="#B88A44"/>
</linearGradient>
<linearGradient id="paint11_linear_3159_768" x1="213.578" y1="265.028" x2="230.222" y2="265.028" gradientUnits="userSpaceOnUse">
<stop stop-color="#F9F295"/>
<stop offset="0.5" stop-color="#E0AA3E" stop-opacity="0.933333"/>
<stop offset="0.75" stop-color="#F9F295"/>
<stop offset="1" stop-color="#B88A44"/>
</linearGradient>
<linearGradient id="paint12_linear_3159_768" x1="256.934" y1="39.0309" x2="250.339" y2="43.881" gradientUnits="userSpaceOnUse">
<stop stop-color="#F9F295"/>
<stop offset="0.5" stop-color="#E0AA3E" stop-opacity="0.933333"/>
<stop offset="0.75" stop-color="#F9F295"/>
<stop offset="1" stop-color="#B88A44"/>
</linearGradient>
<linearGradient id="paint13_linear_3159_768" x1="229.547" y1="64.2518" x2="224.358" y2="64.1893" gradientUnits="userSpaceOnUse">
<stop stop-color="#F9F295"/>
<stop offset="0.5" stop-color="#E0AA3E" stop-opacity="0.933333"/>
<stop offset="0.75" stop-color="#F9F295"/>
<stop offset="1" stop-color="#B88A44"/>
</linearGradient>
<linearGradient id="paint14_linear_3159_768" x1="206.008" y1="30.547" x2="232.632" y2="30.547" gradientUnits="userSpaceOnUse">
<stop stop-color="#F9F295"/>
<stop offset="0.5" stop-color="#E0AA3E" stop-opacity="0.933333"/>
<stop offset="0.75" stop-color="#F9F295"/>
<stop offset="1" stop-color="#B88A44"/>
</linearGradient>
<linearGradient id="paint15_linear_3159_768" x1="336.578" y1="218.639" x2="353.475" y2="218.639" gradientUnits="userSpaceOnUse">
<stop stop-color="#F9F295"/>
<stop offset="0.5" stop-color="#E0AA3E" stop-opacity="0.933333"/>
<stop offset="0.75" stop-color="#F9F295"/>
<stop offset="1" stop-color="#B88A44"/>
</linearGradient>
<linearGradient id="paint16_linear_3159_768" x1="253.914" y1="156.872" x2="280.949" y2="156.872" gradientUnits="userSpaceOnUse">
<stop stop-color="#F9F295"/>
<stop offset="0.5" stop-color="#E0AA3E" stop-opacity="0.933333"/>
<stop offset="0.75" stop-color="#F9F295"/>
<stop offset="1" stop-color="#B88A44"/>
</linearGradient>
<linearGradient id="paint17_linear_3159_768" x1="373.968" y1="234.38" x2="371.458" y2="231.273" gradientUnits="userSpaceOnUse">
<stop stop-color="#F9F295"/>
<stop offset="0.5" stop-color="#E0AA3E" stop-opacity="0.933333"/>
<stop offset="0.75" stop-color="#F9F295"/>
<stop offset="1" stop-color="#B88A44"/>
</linearGradient>
</defs>
</svg>
