<svg width="24" height="25" viewBox="0 0 24 25" fill="none" xmlns="http://www.w3.org/2000/svg">
<path d="M15.7512 10.7461V6.24609C15.7512 5.25153 15.3561 4.2977 14.6529 3.59444C13.9496 2.89118 12.9958 2.49609 12.0012 2.49609C11.0066 2.49609 10.0528 2.89118 9.34956 3.59444C8.64629 4.2977 8.25121 5.25153 8.25121 6.24609V10.7461M19.6072 8.75309L20.8702 20.7531C20.9402 21.4181 20.4202 21.9961 19.7512 21.9961H4.25121C4.09341 21.9963 3.93735 21.9632 3.79315 21.8992C3.64896 21.8351 3.51985 21.7414 3.41423 21.6242C3.3086 21.5069 3.22882 21.3688 3.18006 21.2187C3.1313 21.0687 3.11466 20.91 3.13121 20.7531L4.39521 8.75309C4.42436 8.47665 4.55483 8.2208 4.76146 8.03485C4.96808 7.84891 5.23623 7.74604 5.51421 7.74609H18.4882C19.0642 7.74609 19.5472 8.18109 19.6072 8.75309ZM8.62621 10.7461C8.62621 10.8455 8.5867 10.9409 8.51637 11.0113C8.44604 11.0816 8.35066 11.1211 8.25121 11.1211C8.15175 11.1211 8.05637 11.0816 7.98604 11.0113C7.91571 10.9409 7.87621 10.8455 7.87621 10.7461C7.87621 10.6466 7.91571 10.5513 7.98604 10.4809C8.05637 10.4106 8.15175 10.3711 8.25121 10.3711C8.35066 10.3711 8.44604 10.4106 8.51637 10.4809C8.5867 10.5513 8.62621 10.6466 8.62621 10.7461ZM16.1262 10.7461C16.1262 10.8455 16.0867 10.9409 16.0164 11.0113C15.946 11.0816 15.8507 11.1211 15.7512 11.1211C15.6517 11.1211 15.5564 11.0816 15.486 11.0113C15.4157 10.9409 15.3762 10.8455 15.3762 10.7461C15.3762 10.6466 15.4157 10.5513 15.486 10.4809C15.5564 10.4106 15.6517 10.3711 15.7512 10.3711C15.8507 10.3711 15.946 10.4106 16.0164 10.4809C16.0867 10.5513 16.1262 10.6466 16.1262 10.7461Z" stroke="white" stroke-width="1.5" stroke-linecap="round" stroke-linejoin="round"/>
</svg>
