<svg width="116" height="104" viewBox="0 0 116 104" fill="none" xmlns="http://www.w3.org/2000/svg">
<path d="M18.9414 20.208C19.5216 18.208 22.28 18.1399 23.0049 20.0117L23.0684 20.1992L26.4395 31.6348C26.7426 32.6658 27.5498 33.4733 28.584 33.7705V33.7695L40.0322 37.0908V37.0918C42.0332 37.6718 42.1014 40.4289 40.2285 41.1533L40.041 41.2168L28.6025 44.5869C27.6356 44.8709 26.8649 45.5973 26.5273 46.5391L26.4658 46.7305L23.1436 58.1758C22.5632 60.1759 19.8046 60.2435 19.0801 58.3711L19.0166 58.1846L15.6455 46.749C15.3424 45.7178 14.5353 44.9105 13.501 44.6133H13.502L2.05273 41.292C0.0517934 40.712 -0.0163515 37.9549 1.85645 37.2305L2.04395 37.167L13.4824 33.7959V33.7969C14.5138 33.494 15.3217 32.6874 15.6191 31.6533L15.6182 31.6523L18.9414 20.208Z" fill="white" fill-opacity="0.25" stroke="url(#paint0_linear_633_5)"/>
<path d="M38.1924 3.2832C38.438 2.43364 39.583 2.37694 39.9453 3.12012L40.0068 3.28027L41.8457 9.51074V9.51172C42.0294 10.1581 42.5362 10.6553 43.1719 10.8379V10.8369L49.4141 12.6504C50.2641 12.896 50.321 14.0404 49.5771 14.4023L49.418 14.4639H49.417L43.1836 16.3018C42.5377 16.4853 42.0404 16.991 41.8574 17.626L40.0439 23.8672V23.8682C39.798 24.7177 38.6528 24.7742 38.291 24.0303L38.2295 23.8711L36.3896 17.6348H36.3887C36.2038 16.9909 35.6994 16.4957 35.0654 16.3135H35.0664L28.8232 14.501H28.8223C27.9723 14.2552 27.9161 13.1108 28.6602 12.749L28.8193 12.6875L35.0576 10.8477L35.0566 10.8467C35.7011 10.6621 36.1975 10.1578 36.3799 9.52344L36.3789 9.52246L38.1924 3.28418V3.2832Z" fill="white" fill-opacity="0.25" stroke="url(#paint1_linear_633_5)"/>
<path d="M55.543 40.2988C56.5323 39.3654 58.0862 39.333 59.2559 40.123L59.4844 40.292V40.293C61.1492 41.6307 62.991 42.7349 64.9492 43.5791V43.5908L65.2578 43.7188C66.5853 44.2702 67.4075 45.602 67.2031 46.917L67.1484 47.1787L52.8428 101.565C52.5416 102.705 51.5414 103.49 50.4111 103.495L50.1836 103.485C35.7733 102.219 22.3478 95.7474 12.3945 85.498L11.9229 85.0068C11.0271 84.0603 11.0355 82.5954 11.8906 81.6113L12.0723 81.4219L55.543 40.2988Z" fill="white" fill-opacity="0.25" stroke="url(#paint2_linear_633_5)"/>
<path d="M85.79 42.5645C87.0505 41.8694 88.6047 42.0543 89.5098 43.0381L89.6816 43.2451L108.466 68.4443V68.4434C109.016 69.182 109.141 70.1463 108.791 70.9717L108.715 71.1348C103.566 81.1625 95.6191 89.7199 85.5879 95.5537L84.6104 96.1094C83.0913 96.9547 81.2416 95.9765 80.9854 94.2324L80.9658 94.0615L77.0566 48.0215C76.9424 46.6697 77.8851 45.4364 79.2363 45.0117L79.5117 44.9375L79.5146 44.9365C79.6713 44.9008 79.8296 44.8638 79.9883 44.8252L80.4639 44.7051L80.4668 44.7041C82.125 44.2582 83.6953 43.6508 85.166 42.8965L85.79 42.5645Z" fill="white" fill-opacity="0.25" stroke="url(#paint3_linear_633_5)"/>
<path d="M100.65 23.1426H100.651L109.999 23.4453V23.4463C111.019 23.4807 111.917 24.0862 112.295 24.998L112.363 25.1846C112.61 25.9441 112.844 26.7123 113.062 27.4863L113.273 28.2627V28.2646C114.684 33.529 115.347 38.8196 115.331 44.0186C115.322 45.9072 113.279 47.0046 111.615 46.0479L111.455 45.9492L96.5146 35.9795C95.383 35.2253 95.0097 33.7179 95.5195 32.3975L95.6338 32.1367C96.5486 30.2557 97.2196 28.2475 97.6152 26.1719L97.6904 25.7559L97.6914 25.7549C97.9338 24.3379 99.0466 23.2374 100.381 23.1465L100.65 23.1426Z" fill="white" fill-opacity="0.25" stroke="url(#paint4_linear_633_5)"/>
<path d="M99.6777 0.5H105.443C106.175 0.500126 106.821 0.96463 107.062 1.64746L107.104 1.78711L109.753 12.0107V12.0117C110.034 13.0944 109.216 14.1531 108.093 14.1533H100.058C99.1901 14.1533 98.4707 13.5109 98.3564 12.6729L98.3418 12.5029V12.502L97.9619 2.27734C97.9289 1.30619 98.7076 0.5 99.6777 0.5Z" fill="white" fill-opacity="0.25" stroke="url(#paint5_linear_633_5)"/>
<defs>
<linearGradient id="paint0_linear_633_5" x1="21.0425" y1="18.1562" x2="21.0425" y2="60.2273" gradientUnits="userSpaceOnUse">
<stop stop-color="#EFECD0"/>
<stop offset="0.177876" stop-color="#EFECD0" stop-opacity="0.729941"/>
<stop offset="0.658657" stop-color="#EFECD0" stop-opacity="0"/>
</linearGradient>
<linearGradient id="paint1_linear_633_5" x1="39.1184" y1="2.10156" x2="39.1184" y2="25.0495" gradientUnits="userSpaceOnUse">
<stop stop-color="#EFECD0"/>
<stop offset="0.177876" stop-color="#EFECD0" stop-opacity="0.729941"/>
<stop offset="0.658657" stop-color="#EFECD0" stop-opacity="0"/>
</linearGradient>
<linearGradient id="paint2_linear_633_5" x1="39.2425" y1="39.0625" x2="39.2425" y2="103.995" gradientUnits="userSpaceOnUse">
<stop stop-color="#EFECD0"/>
<stop offset="0.177876" stop-color="#EFECD0" stop-opacity="0.729941"/>
<stop offset="0.658657" stop-color="#EFECD0" stop-opacity="0"/>
</linearGradient>
<linearGradient id="paint3_linear_633_5" x1="93.017" y1="41.6484" x2="93.017" y2="96.9206" gradientUnits="userSpaceOnUse">
<stop stop-color="#EFECD0"/>
<stop offset="0.177876" stop-color="#EFECD0" stop-opacity="0.729941"/>
<stop offset="0.658657" stop-color="#EFECD0" stop-opacity="0"/>
</linearGradient>
<linearGradient id="paint4_linear_633_5" x1="105.314" y1="22.6406" x2="105.314" y2="46.8979" gradientUnits="userSpaceOnUse">
<stop stop-color="#EFECD0"/>
<stop offset="0.177876" stop-color="#EFECD0" stop-opacity="0.729941"/>
<stop offset="0.658657" stop-color="#EFECD0" stop-opacity="0"/>
</linearGradient>
<linearGradient id="paint5_linear_633_5" x1="103.885" y1="0" x2="103.885" y2="14.6537" gradientUnits="userSpaceOnUse">
<stop stop-color="#EFECD0"/>
<stop offset="0.177876" stop-color="#EFECD0" stop-opacity="0.729941"/>
<stop offset="0.658657" stop-color="#EFECD0" stop-opacity="0"/>
</linearGradient>
</defs>
</svg>
