<svg width="28" height="28" viewBox="0 0 28 28" fill="none" xmlns="http://www.w3.org/2000/svg">
<path d="M8.41947 12.7247C8.13697 12.2164 7.69369 11.8163 7.1592 11.5872C6.62471 11.358 6.02927 11.3129 5.46635 11.4588C4.90342 11.6047 4.40489 11.9334 4.049 12.3933C3.6931 12.8533 3.5 13.4183 3.5 13.9998C3.5 14.5814 3.6931 15.1464 4.049 15.6063C4.40489 16.0662 4.90342 16.3949 5.46635 16.5409C6.02927 16.6868 6.62471 16.6416 7.1592 16.4125C7.69369 16.1834 8.13697 15.7833 8.41947 15.275M8.41947 12.7247C8.62947 13.1027 8.74963 13.5367 8.74963 13.9998C8.74963 14.463 8.62947 14.8982 8.41947 15.275M8.41947 12.7247L19.5798 6.52501M8.41947 15.275L19.5798 21.4747M19.5798 6.52501C19.7434 6.83317 19.9669 7.10562 20.237 7.32643C20.5072 7.54723 20.8186 7.71197 21.1532 7.811C21.4877 7.91003 21.8387 7.94137 22.1855 7.90318C22.5323 7.865 22.868 7.75806 23.173 7.58861C23.478 7.41917 23.7462 7.19062 23.9618 6.91632C24.1775 6.64203 24.3363 6.3275 24.429 5.99112C24.5216 5.65474 24.5463 5.30326 24.5015 4.95724C24.4568 4.61121 24.3435 4.27757 24.1683 3.97584C23.823 3.38124 23.2583 2.94584 22.5954 2.76322C21.9325 2.58061 21.2245 2.66537 20.6234 2.99929C20.0224 3.3332 19.5763 3.88961 19.3812 4.5489C19.186 5.20819 19.2573 5.91774 19.5798 6.52501ZM19.5798 21.4747C19.4123 21.7761 19.3059 22.1076 19.2665 22.4502C19.2272 22.7927 19.2557 23.1397 19.3504 23.4713C19.4452 23.8028 19.6043 24.1125 19.8187 24.3825C20.0331 24.6526 20.2986 24.8778 20.6 25.0453C20.9015 25.2127 21.233 25.3192 21.5755 25.3585C21.9181 25.3979 22.2651 25.3694 22.5966 25.2746C22.9282 25.1799 23.2379 25.0208 23.5079 24.8064C23.778 24.5919 24.0032 24.3264 24.1706 24.025C24.5088 23.4162 24.5913 22.698 24.4 22.0284C24.2087 21.3588 23.7592 20.7926 23.1504 20.4544C22.5416 20.1162 21.8234 20.0337 21.1538 20.2251C20.4842 20.4164 19.918 20.8659 19.5798 21.4747Z" stroke="#051F2D" stroke-width="2" stroke-linecap="round" stroke-linejoin="round"/>
</svg>
