<svg width="121" height="111" viewBox="0 0 121 111" fill="none" xmlns="http://www.w3.org/2000/svg">
<path d="M107.422 4.01245C100.553 6.01598 94.0108 7.93774 92.8659 8.26484L90.7806 8.87817L94.4197 12.4763L98.0996 16.0745L80.354 34.5561L62.6494 53.0376L58.9694 49.2759C56.925 47.1906 52.0593 42.1204 48.0931 38.0725C42.7368 32.5525 40.5288 30.549 39.5883 30.3446C36.7262 29.7312 36.3173 30.0992 18.6126 48.6626C9.37184 58.394 1.48039 66.8579 1.07151 67.553C-0.318699 69.7609 0.335515 72.5005 2.58437 74.2587C3.81103 75.24 6.50966 75.4035 7.94075 74.5858C8.43141 74.2996 15.3824 67.185 23.3557 58.762C31.3698 50.339 38.0346 43.388 38.239 43.3062C38.4435 43.2653 43.2683 48.0083 48.9518 53.8554C54.6762 59.7433 59.8281 64.8135 60.4414 65.1406C61.9952 65.9174 63.6307 65.8766 65.1027 64.9361C65.7978 64.5272 75.1612 55.0002 85.9558 43.7151L105.582 23.2709L109.221 26.7873C112.451 29.8948 112.901 30.2219 113.228 29.4859C113.392 29.077 115.027 22.6167 116.826 15.2159C118.626 7.77419 120.22 1.3956 120.343 0.98671C120.466 0.618721 120.425 0.291611 120.22 0.332497C120.057 0.332497 114.291 2.00892 107.422 4.01245Z" fill="#051F2D"/>
<path d="M101.578 37.4603L97.2031 41.8763V76.3043V110.691H104.972H112.741V75.2003V39.7092L109.347 36.3564L105.912 33.0444L101.578 37.4603Z" fill="#051F2D"/>
<path d="M85.9154 53.7339L78.1875 61.8298L78.3102 86.2811L78.3919 110.691H86.1607H93.9295V78.1852C93.9295 60.3169 93.8477 45.6789 93.8069 45.6789C93.7251 45.6789 90.1678 49.318 85.9154 53.7339Z" fill="#051F2D"/>
<path d="M28.7537 63.1382L21.1484 71.1524V90.9423V110.691H28.9172H36.686V82.8873C36.686 67.5951 36.6042 55.0832 36.5225 55.0832C36.4407 55.0832 32.9652 58.6814 28.7537 63.1382Z" fill="#051F2D"/>
<path d="M39.957 82.8464V110.691H47.7258H55.4946L55.5764 90.7379L55.6991 70.8252L48.2165 63.0565C44.0868 58.7632 40.5704 55.2059 40.325 55.165C40.1206 55.0832 39.957 65.6733 39.957 82.8464Z" fill="#051F2D"/>
<path d="M72.2562 67.9631C69.026 71.2341 66.3273 72.4608 62.3612 72.4608L59.1719 72.4199V91.5557V110.691H66.9407H74.7095V88.2028C74.7095 75.8136 74.6686 65.7142 74.5868 65.7142C74.5459 65.7142 73.4828 66.7364 72.2562 67.9631Z" fill="#051F2D"/>
<path d="M15.014 77.5309C11.702 81.0473 9.90292 81.8651 5.52786 81.8651H1.92969V96.2578V110.691H9.69848H17.4673V92.905C17.4673 83.1327 17.4264 75.1185 17.3855 75.1185C17.3037 75.1185 16.2406 76.2225 15.014 77.5309Z" fill="#051F2D"/>
</svg>
