<svg width="152" height="48" viewBox="0 0 152 48" fill="none" xmlns="http://www.w3.org/2000/svg">
<path d="M20.4198 20.5268C17.9375 18.6508 14.8205 17.7129 11.0686 17.7129H0.282154C0.124249 17.7129 0.046875 17.7713 0.046875 17.8882V18.1819C0.046875 18.2608 0.143197 18.3477 0.340578 18.4456C0.534802 18.5435 0.749553 18.6793 0.984831 18.8561C1.22011 19.0314 1.43328 19.4041 1.62908 19.9694C1.82489 20.5362 1.92279 21.25 1.92279 22.109V41.1634C1.92279 42.1408 1.76646 42.8924 1.45381 43.4198C1.14116 43.9472 0.828505 44.2804 0.515853 44.4162C0.203201 44.5536 0.046875 44.661 0.046875 44.7399L0.105299 45.032C0.105299 45.1505 0.163726 45.2089 0.282154 45.2089H10.5412C10.696 45.2089 10.7749 45.1299 10.7749 44.9736V44.7399C10.7749 44.661 10.677 44.5631 10.4828 44.4462C10.287 44.3294 10.0723 44.1825 9.83699 44.0072C9.60329 43.8304 9.38696 43.4593 9.19273 42.8924C8.99693 42.3271 8.89903 41.6134 8.89903 40.7528V38.8027C7.22524 37.8979 5.03194 37.5947 5.03194 37.5947H9.66803C9.70435 37.5884 9.74066 37.5868 9.77856 37.5868H11.0102C14.762 37.6263 17.8886 36.7073 20.3898 34.8314C22.891 32.9555 24.1416 30.6106 24.1416 27.7967V27.503C24.1416 24.7286 22.9005 22.4027 20.4198 20.5268ZM17.2238 27.7967C17.2238 29.6726 16.608 31.3054 15.3779 32.6918C14.1462 34.0797 12.2798 34.773 9.77856 34.773C9.19273 34.773 8.89903 34.4792 8.89903 33.8934V21.4063C8.89903 21.1331 8.98746 20.9073 9.16273 20.732C9.33959 20.5568 9.54486 20.4683 9.77856 20.4683H9.95384C12.4945 20.4683 14.342 21.1521 15.4947 22.5195C16.6474 23.8886 17.2238 25.4913 17.2238 27.3277V27.7967Z" fill="#051F2D"/>
<path d="M44.6611 42.395H44.7195L44.6611 42.5119L44.4258 45.2089H26.1341C26.0172 45.2089 25.9588 45.1505 25.9588 45.032L25.9004 44.7399C25.9004 44.661 26.0567 44.5536 26.3694 44.4162C26.682 44.2804 26.9947 43.9472 27.3073 43.4198C27.62 42.8924 27.7763 42.1408 27.7763 41.1634V22.109C27.7763 21.25 27.6784 20.5362 27.4826 19.9694C27.2868 19.4041 27.072 19.0314 26.8383 18.8561C26.6031 18.6793 26.3883 18.5435 26.1941 18.4456C25.9967 18.3477 25.9004 18.2608 25.9004 18.1819V17.8882C25.9004 17.7713 25.9778 17.7129 26.1341 17.7129H36.5116C36.6285 17.7129 36.6869 17.7713 36.6869 17.8882V18.1819C36.6869 18.2213 36.5306 18.3192 36.2179 18.4756C35.9053 18.6319 35.5926 18.973 35.2799 19.5004C34.9673 20.0278 34.811 20.781 34.811 21.7584C34.8489 31.9038 34.8868 38.3921 34.9247 41.2218C33.2603 42.0997 31.1255 42.395 31.1255 42.395H40.0297C40.9282 42.2766 41.7288 41.7492 42.433 40.8112C43.1357 39.8733 43.6726 38.9653 44.0453 38.0858C44.4163 37.2063 44.6406 36.7657 44.7195 36.7657L44.9532 36.8241C45.0716 36.8241 45.1301 36.9031 45.1301 37.0594L44.6611 42.395Z" fill="#051F2D"/>
<path d="M47.6508 22.1693C47.6508 21.3103 47.5529 20.5966 47.3571 20.0297C47.1613 19.4629 46.937 19.0918 46.6828 18.9165C46.4286 18.7412 46.2044 18.5944 46.0086 18.4775C45.8128 18.3607 45.7148 18.2628 45.7148 18.1838V17.8901C45.7148 17.7733 45.7938 17.7148 45.9501 17.7148H56.3861C56.5029 17.7148 56.5613 17.7733 56.5613 17.8901L56.6198 18.1838C56.6198 18.2233 56.4634 18.3212 56.1508 18.4775C55.8381 18.6338 55.5144 18.9765 55.1828 19.5039C54.8497 20.0313 54.6839 20.7845 54.6839 21.7604V35.8313C54.6839 37.824 55.1623 39.3099 56.1208 40.2874C57.0777 41.2648 58.2983 41.7527 59.7858 41.7527H59.961C61.4059 41.7527 62.5886 41.2158 63.5076 40.1405C64.425 39.0668 64.8861 37.7072 64.8861 36.0666L64.9445 22.1725C64.9445 21.3135 64.8371 20.5998 64.6224 20.0329C64.4076 19.466 64.1834 19.0949 63.9481 18.9197C63.7129 18.7444 63.4981 18.5975 63.3039 18.4807C63.1081 18.3638 63.0102 18.2659 63.0102 18.187V17.9517C63.0102 17.7954 63.0876 17.7164 63.2455 17.7164H70.1633C70.2801 17.7164 70.3386 17.7748 70.3386 17.8917V18.1854C70.3386 18.2644 70.1822 18.3717 69.8696 18.5075C69.5569 18.6449 69.2443 18.9765 68.9316 19.5039C68.619 20.0313 68.4626 20.764 68.4626 21.7019L68.5211 35.8897C68.5211 38.5473 67.5626 40.8432 65.6488 42.7775C63.7334 44.7119 61.5243 45.6798 59.0247 45.6798H58.3204C55.1544 45.6798 52.5758 44.6645 50.5815 42.6307C48.5887 40.5984 47.5908 38.1367 47.5908 35.2439L47.6492 22.1709L47.6508 22.1693Z" fill="#051F2D"/>
<path d="M93.7319 24.6304C93.7319 24.7867 93.6735 24.8641 93.555 24.8641H93.2629C93.184 24.8641 92.9597 24.523 92.5887 23.8393C92.216 23.1555 91.6697 22.4418 90.9464 21.6997C90.2232 20.9575 89.4321 20.5264 88.5716 20.4096H81.4153C81.4153 20.4096 83.8849 20.7506 85.5824 21.7928V40.694C85.5824 41.7883 85.7387 42.6284 86.0514 43.2142C86.364 43.8016 86.6767 44.1727 86.9894 44.329C87.302 44.4853 87.4583 44.5832 87.4583 44.6211V44.9149C87.4583 45.0317 87.3794 45.0901 87.2246 45.0901H76.8471C76.7303 45.0901 76.6718 45.0317 76.6718 44.9149V44.6796C76.6718 44.6022 76.7682 44.5043 76.964 44.3874C77.1598 44.2706 77.365 44.1332 77.5798 43.9769C77.7945 43.8206 77.9998 43.489 78.1956 42.9805C78.3914 42.4721 78.4893 41.8468 78.4893 41.1046V21.3475C78.4893 20.7222 78.1956 20.4096 77.6098 20.4096H75.4986C74.638 20.5264 73.8469 20.9575 73.1237 21.6997C72.4021 22.4418 71.8542 23.1555 71.4831 23.8393C71.112 24.523 70.8878 24.8641 70.8088 24.8641H70.5151C70.3983 24.8641 70.3398 24.7867 70.3398 24.6304L71.0425 17.5957H93.0276L93.7319 24.6304Z" fill="#051F2D"/>
<path d="M151.996 37.0002C152.034 38.2508 151.84 39.3941 151.41 40.4299C150.979 41.4658 150.414 42.2964 149.71 42.9217C149.005 43.547 148.186 44.0854 147.248 44.5339C146.31 44.9839 145.391 45.2966 144.492 45.4718C143.592 45.6471 142.713 45.7355 141.854 45.7355C140.759 45.7355 139.439 45.5397 137.897 45.1497C136.352 44.7597 135.326 44.2323 134.819 43.5675V43.6843C134.857 43.8407 134.819 43.9875 134.702 44.1249C134.585 44.2623 134.427 44.3302 134.233 44.3302L132.533 44.2717C132.297 44.2717 132.18 44.1738 132.18 43.978L131.712 33.1915C131.712 32.762 131.907 32.5473 132.297 32.5473H132.942C133.254 32.5473 133.448 32.7226 133.527 33.0747C133.723 34.638 134.045 36.0559 134.495 37.3255C134.944 38.5966 135.716 39.7493 136.812 40.7852C137.906 41.8211 139.215 42.339 140.741 42.339C142.031 42.339 143.057 42.0074 143.818 41.3426C144.581 40.6778 144.941 39.8188 144.903 38.7624C144.863 37.6682 144.023 36.5739 142.383 35.4796C139.452 33.7205 137.126 32.2947 135.406 31.2004C132.514 29.2866 131.048 27.1359 131.009 24.7515C130.971 22.1714 131.985 20.267 134.058 19.0354C136.13 17.8037 138.416 17.1895 140.917 17.1895C142.091 17.1895 143.438 17.4153 144.963 17.8637C146.487 18.3137 147.543 18.909 148.129 19.6512V19.5343C148.129 19.1048 148.344 18.8901 148.773 18.8901L150.415 18.9485C150.651 18.9485 150.767 19.0464 150.767 19.2422L151.061 28.5049C151.061 28.936 150.846 29.1492 150.417 29.1492H149.773C149.421 29.1492 149.245 28.9739 149.245 28.6218C149.128 27.8796 148.961 27.1564 148.746 26.4522C148.532 25.7479 148.189 24.9284 147.72 23.9904C147.251 23.0525 146.547 22.2803 145.609 21.674C144.671 21.0692 143.558 20.7265 142.267 20.6476C139.375 20.6476 137.83 21.5855 137.636 23.4614C137.636 23.6572 137.646 23.842 137.666 24.0188C137.685 24.1941 137.734 24.3615 137.813 24.5178C137.89 24.6742 137.969 24.8115 138.048 24.9284C138.126 25.0452 138.254 25.1826 138.429 25.3389C138.604 25.4953 138.732 25.6137 138.809 25.6911C138.887 25.77 139.034 25.8774 139.248 26.0132C139.463 26.1506 139.6 26.239 139.659 26.2769C139.717 26.3164 139.864 26.4143 140.099 26.5706L140.452 26.7459C140.764 26.9417 141.8 27.4991 143.559 28.4165C145.318 29.3355 146.529 29.9908 147.194 30.3808C150.321 32.2189 151.923 34.4264 152.001 37.005L151.996 37.0002Z" fill="#051F2D"/>
<path d="M0 12.3835V0.167969H1.84275V5.47674H7.93315V0.167969H9.78222V12.3835H7.93315V7.05737H1.84275V12.3835H0Z" fill="#051F2D"/>
<path d="M23.481 6.27515C23.481 7.57944 23.2425 8.70057 22.7657 9.63694C22.2888 10.5733 21.6351 11.2934 20.8061 11.7955C19.9771 12.2992 19.0359 12.5503 17.9811 12.5503C16.9263 12.5503 15.9805 12.2992 15.1515 11.7955C14.3225 11.2918 13.6687 10.5717 13.1919 9.63379C12.715 8.69583 12.4766 7.57628 12.4766 6.27515C12.4766 4.97401 12.715 3.8513 13.1919 2.91335C13.6687 1.97697 14.3225 1.25692 15.1515 0.754786C15.9805 0.252648 16.9232 0 17.9811 0C19.0391 0 19.9771 0.251069 20.8061 0.754786C21.6351 1.2585 22.2888 1.97697 22.7657 2.91335C23.2425 3.84972 23.481 4.97085 23.481 6.27515ZM21.6572 6.27515C21.6572 5.28192 21.4977 4.44345 21.1771 3.7613C20.8566 3.07915 20.4192 2.5628 19.8649 2.21067C19.3107 1.85854 18.6822 1.68327 17.9827 1.68327C17.2832 1.68327 16.65 1.85854 16.0973 2.21067C15.5447 2.5628 15.1088 3.07915 14.7883 3.7613C14.4677 4.44345 14.3083 5.28192 14.3083 6.27515C14.3083 7.26837 14.4677 8.10684 14.7883 8.78899C15.1088 9.47114 15.5447 9.98749 16.0973 10.3396C16.65 10.6918 17.2785 10.867 17.9827 10.867C18.687 10.867 19.3107 10.6918 19.8649 10.3396C20.4192 9.98749 20.8566 9.47114 21.1771 8.78899C21.4977 8.10684 21.6572 7.26837 21.6572 6.27515Z" fill="#051F2D"/>
<path d="M34.0308 0.167969H35.8799V8.20218C35.8799 9.05802 35.6793 9.81439 35.2767 10.4713C34.8756 11.1297 34.3103 11.6461 33.5824 12.0219C32.8544 12.3977 32.0017 12.5856 31.0227 12.5856C30.0437 12.5856 29.1973 12.3977 28.4694 12.0219C27.7415 11.6461 27.1777 11.1297 26.7751 10.4713C26.374 9.81281 26.1719 9.05644 26.1719 8.20218V0.167969H28.0146V8.05375C28.0146 8.60641 28.1362 9.0975 28.381 9.527C28.6257 9.9565 28.9731 10.2928 29.4216 10.5376C29.8716 10.7823 30.4037 10.9039 31.0196 10.9039C31.6354 10.9039 32.1754 10.7823 32.627 10.5376C33.0786 10.2928 33.4245 9.9565 33.6645 9.527C33.9045 9.0975 34.0261 8.60641 34.0261 8.05375V0.167969H34.0308Z" fill="#051F2D"/>
<path d="M45.6288 3.37601C45.5657 2.81071 45.302 2.37331 44.8409 2.06066C44.3798 1.74801 43.7987 1.59168 43.0992 1.59168C42.5986 1.59168 42.1644 1.67064 41.7981 1.82696C41.4317 1.98487 41.1491 2.19804 40.9485 2.47122C40.748 2.74439 40.6469 3.0523 40.6469 3.39812C40.6469 3.68866 40.7148 3.93815 40.8522 4.14974C40.9896 4.35976 41.1696 4.53661 41.3954 4.67715C41.6196 4.81768 41.8612 4.93611 42.1202 5.02928C42.3791 5.12244 42.6271 5.19981 42.8655 5.25982L44.0577 5.56931C44.4477 5.66405 44.8472 5.79354 45.2562 5.95776C45.6651 6.1204 46.0457 6.33515 46.3947 6.60201C46.7452 6.86887 47.0279 7.19889 47.2442 7.59207C47.4605 7.98526 47.5695 8.45739 47.5695 9.00532C47.5695 9.69695 47.3911 10.3112 47.0358 10.8481C46.6805 11.385 46.1657 11.8081 45.4915 12.1192C44.8172 12.4303 44.004 12.585 43.0487 12.585C42.0933 12.585 41.3433 12.4398 40.6753 12.1492C40.0074 11.8587 39.4847 11.4465 39.1074 10.9112C38.73 10.3759 38.5215 9.74116 38.4805 9.00532H40.3295C40.3659 9.44588 40.5096 9.8138 40.7622 10.1059C41.0148 10.398 41.3386 10.6144 41.7349 10.7565C42.1312 10.8986 42.5655 10.9681 43.0376 10.9681C43.5587 10.9681 44.0229 10.886 44.4303 10.7202C44.8377 10.556 45.1583 10.3238 45.3936 10.0285C45.6288 9.73169 45.7457 9.38587 45.7457 8.98795C45.7457 8.62635 45.643 8.32949 45.4378 8.09895C45.2325 7.86841 44.9562 7.67734 44.6088 7.52575C44.2614 7.37417 43.8682 7.24153 43.4308 7.12625L41.9875 6.73307C41.0085 6.46621 40.2348 6.07461 39.6648 5.55826C39.0947 5.04191 38.8089 4.3566 38.8089 3.50707C38.8089 2.80282 39 2.18857 39.3821 1.66432C39.7642 1.14008 40.2806 0.7311 40.9327 0.438976C41.5849 0.146851 42.3207 0 43.1402 0C43.9598 0 44.6988 0.145274 45.332 0.435819C45.9667 0.726365 46.4657 1.12428 46.8321 1.63116C47.1984 2.13803 47.3895 2.71913 47.4053 3.37601H45.6272H45.6288Z" fill="#051F2D"/>
<path d="M50.1774 12.3835V0.167969H57.8358V1.75491H52.0201V5.47674H57.4363V7.05737H52.0201V10.7966H57.9068V12.3835H50.1758H50.1774Z" fill="#051F2D"/>
<path d="M76.1724 6.27515C76.1724 7.57944 75.9339 8.70057 75.4571 9.63694C74.9802 10.5733 74.3265 11.2934 73.4975 11.7955C72.6685 12.2992 71.7274 12.5503 70.6725 12.5503C69.6177 12.5503 68.6719 12.2992 67.8429 11.7955C67.0139 11.2918 66.3602 10.5717 65.8833 9.63379C65.4064 8.69583 65.168 7.57628 65.168 6.27515C65.168 4.97401 65.4064 3.8513 65.8833 2.91335C66.3602 1.97697 67.0139 1.25692 67.8429 0.754786C68.6719 0.252648 69.6146 0 70.6725 0C71.7305 0 72.6685 0.251069 73.4975 0.754786C74.3265 1.2585 74.9802 1.97697 75.4571 2.91335C75.9339 3.84972 76.1724 4.97085 76.1724 6.27515ZM74.347 6.27515C74.347 5.28192 74.1875 4.44345 73.867 3.7613C73.5464 3.07915 73.109 2.5628 72.5548 2.21067C72.0005 1.85854 71.3721 1.68327 70.6725 1.68327C69.973 1.68327 69.3398 1.85854 68.7872 2.21067C68.2345 2.5628 67.7987 3.07915 67.4781 3.7613C67.1576 4.44345 66.9981 5.28192 66.9981 6.27515C66.9981 7.26837 67.1576 8.10684 67.4781 8.78899C67.7987 9.47114 68.2345 9.98749 68.7872 10.3396C69.3398 10.6918 69.9683 10.867 70.6725 10.867C71.3768 10.867 72.0005 10.6918 72.5548 10.3396C73.109 9.98749 73.5464 9.47114 73.867 8.78899C74.1875 8.10684 74.347 7.26837 74.347 6.27515Z" fill="#051F2D"/>
<path d="M78.8672 12.3835V0.167969H86.4419V1.75491H80.7099V5.47674H85.8987V7.05737H80.7099V12.3835H78.8672Z" fill="#051F2D"/>
<path d="M101.665 22.7759C101.447 22.0369 100.401 22.0385 100.186 22.7791L99.2194 26.1093C99.1468 26.3619 98.9494 26.5593 98.6967 26.6335L95.3697 27.6141C94.6307 27.832 94.6323 28.8789 95.3728 29.0937L98.703 30.0601C98.9557 30.1327 99.1531 30.3301 99.2273 30.5827L100.208 33.9098C100.426 34.6488 101.473 34.6472 101.687 33.9066L102.654 30.5764C102.726 30.3238 102.924 30.1264 103.176 30.0522L106.504 29.0716C107.243 28.8537 107.241 27.8068 106.5 27.592L103.17 26.6256C102.918 26.553 102.72 26.3556 102.646 26.103L101.665 22.7759Z" fill="#051F2D"/>
<path d="M106.588 17.833C106.469 17.4304 105.898 17.4304 105.781 17.8346L105.253 19.6505C105.214 19.7879 105.107 19.8969 104.968 19.9363L103.153 20.4716C102.751 20.5901 102.751 21.1617 103.155 21.2785L104.971 21.8059C105.108 21.8454 105.217 21.9528 105.257 22.0917L105.792 23.9061C105.91 24.3087 106.482 24.3087 106.599 23.9045L107.126 22.0886C107.166 21.9512 107.273 21.8423 107.412 21.8028L109.226 21.2675C109.629 21.1491 109.629 20.5774 109.225 20.4606L107.409 19.9332C107.272 19.8937 107.163 19.7863 107.123 19.6474L106.588 17.833Z" fill="#051F2D"/>
<path d="M113.851 29.5036C114.318 29.6979 114.613 30.1937 114.486 30.6816L110.325 46.5053C110.214 46.9237 109.827 47.2095 109.398 47.1716C105.104 46.7942 101.109 44.8409 98.1771 41.7507C97.8408 41.3955 97.8708 40.8381 98.2261 40.5017L110.87 28.5372C111.237 28.1899 111.814 28.2104 112.207 28.5278C112.706 28.9289 113.26 29.2573 113.851 29.5021V29.5036Z" fill="#051F2D"/>
<path d="M126.478 36.7501C126.68 37.0217 126.718 37.3849 126.564 37.6865C125.005 40.723 122.572 43.3 119.494 45.0133C118.938 45.3228 118.272 44.9375 118.218 44.3027L117.081 30.9076C117.039 30.4039 117.415 29.9665 117.909 29.856C117.999 29.8354 118.09 29.8133 118.18 29.7897C118.72 29.6444 119.227 29.4391 119.696 29.1801C120.14 28.9354 120.712 29.0128 121.015 29.4186L126.478 36.7501Z" fill="#051F2D"/>
<path d="M127.901 25.1239C128.315 26.6682 128.509 28.2205 128.504 29.7458C128.501 30.4406 127.729 30.8133 127.151 30.428L122.806 27.5272C122.384 27.2462 122.278 26.6793 122.499 26.2245C122.777 25.6529 122.976 25.0402 123.085 24.407C123.17 23.9081 123.587 23.5086 124.094 23.5259L126.813 23.6144C127.187 23.627 127.519 23.8639 127.634 24.2207C127.731 24.5176 127.821 24.8192 127.901 25.1239Z" fill="#051F2D"/>
<path d="M125.48 16.9277H123.805C123.44 16.9277 123.148 17.2309 123.161 17.5957L123.271 20.5706C123.284 20.9164 123.568 21.1912 123.915 21.1912H126.252C126.674 21.1912 126.982 20.7932 126.876 20.3859L126.105 17.4109C126.031 17.1267 125.775 16.9277 125.482 16.9277H125.48Z" fill="#051F2D"/>
</svg>
