<svg width="153" height="48" viewBox="0 0 153 48" fill="none" xmlns="http://www.w3.org/2000/svg">
<path d="M20.9198 20.5268C18.4375 18.6508 15.3205 17.7129 11.5686 17.7129H0.782154C0.624249 17.7129 0.546875 17.7713 0.546875 17.8882V18.1819C0.546875 18.2608 0.643197 18.3477 0.840578 18.4456C1.0348 18.5435 1.24955 18.6793 1.48483 18.8561C1.72011 19.0314 1.93328 19.4041 2.12908 19.9694C2.32489 20.5362 2.42279 21.25 2.42279 22.109V41.1634C2.42279 42.1408 2.26646 42.8924 1.95381 43.4198C1.64116 43.9472 1.32851 44.2804 1.01585 44.4162C0.703201 44.5536 0.546875 44.661 0.546875 44.7399L0.605299 45.032C0.605299 45.1505 0.663726 45.2089 0.782154 45.2089H11.0412C11.196 45.2089 11.2749 45.1299 11.2749 44.9736V44.7399C11.2749 44.661 11.177 44.5631 10.9828 44.4462C10.787 44.3294 10.5723 44.1825 10.337 44.0072C10.1033 43.8304 9.88696 43.4593 9.69273 42.8924C9.49693 42.3271 9.39903 41.6134 9.39903 40.7528V38.8027C7.72524 37.8979 5.53194 37.5947 5.53194 37.5947H10.168C10.2043 37.5884 10.2407 37.5868 10.2786 37.5868H11.5102C15.262 37.6263 18.3886 36.7073 20.8898 34.8314C23.391 32.9555 24.6416 30.6106 24.6416 27.7967V27.503C24.6416 24.7286 23.4005 22.4027 20.9198 20.5268ZM17.7238 27.7967C17.7238 29.6726 17.108 31.3054 15.8779 32.6918C14.6462 34.0797 12.7798 34.773 10.2786 34.773C9.69273 34.773 9.39903 34.4792 9.39903 33.8934V21.4063C9.39903 21.1331 9.48746 20.9073 9.66273 20.732C9.83959 20.5568 10.0449 20.4683 10.2786 20.4683H10.4538C12.9945 20.4683 14.842 21.1521 15.9947 22.5195C17.1474 23.8886 17.7238 25.4913 17.7238 27.3277V27.7967Z" fill="white"/>
<path d="M45.1611 42.395H45.2195L45.1611 42.5119L44.9258 45.2089H26.6341C26.5172 45.2089 26.4588 45.1505 26.4588 45.032L26.4004 44.7399C26.4004 44.661 26.5567 44.5536 26.8694 44.4162C27.182 44.2804 27.4947 43.9472 27.8073 43.4198C28.12 42.8924 28.2763 42.1408 28.2763 41.1634V22.109C28.2763 21.25 28.1784 20.5362 27.9826 19.9694C27.7868 19.4041 27.572 19.0314 27.3383 18.8561C27.1031 18.6793 26.8883 18.5435 26.6941 18.4456C26.4967 18.3477 26.4004 18.2608 26.4004 18.1819V17.8882C26.4004 17.7713 26.4778 17.7129 26.6341 17.7129H37.0116C37.1285 17.7129 37.1869 17.7713 37.1869 17.8882V18.1819C37.1869 18.2213 37.0306 18.3192 36.7179 18.4756C36.4053 18.6319 36.0926 18.973 35.7799 19.5004C35.4673 20.0278 35.311 20.781 35.311 21.7584C35.3489 31.9038 35.3868 38.3921 35.4247 41.2218C33.7603 42.0997 31.6255 42.395 31.6255 42.395H40.5297C41.4282 42.2766 42.2288 41.7492 42.933 40.8112C43.6357 39.8733 44.1726 38.9653 44.5453 38.0858C44.9163 37.2063 45.1406 36.7657 45.2195 36.7657L45.4532 36.8241C45.5716 36.8241 45.6301 36.9031 45.6301 37.0594L45.1611 42.395Z" fill="white"/>
<path d="M48.1508 22.1693C48.1508 21.3103 48.0529 20.5966 47.8571 20.0297C47.6613 19.4629 47.437 19.0918 47.1828 18.9165C46.9286 18.7412 46.7044 18.5944 46.5086 18.4775C46.3128 18.3607 46.2148 18.2628 46.2148 18.1838V17.8901C46.2148 17.7733 46.2938 17.7148 46.4501 17.7148H56.8861C57.0029 17.7148 57.0613 17.7733 57.0613 17.8901L57.1198 18.1838C57.1198 18.2233 56.9634 18.3212 56.6508 18.4775C56.3381 18.6338 56.0144 18.9765 55.6828 19.5039C55.3497 20.0313 55.1839 20.7845 55.1839 21.7604V35.8313C55.1839 37.824 55.6623 39.3099 56.6208 40.2874C57.5777 41.2648 58.7983 41.7527 60.2858 41.7527H60.461C61.9059 41.7527 63.0886 41.2158 64.0076 40.1405C64.925 39.0668 65.3861 37.7072 65.3861 36.0666L65.4445 22.1725C65.4445 21.3135 65.3371 20.5998 65.1224 20.0329C64.9076 19.466 64.6834 19.0949 64.4481 18.9197C64.2129 18.7444 63.9981 18.5975 63.8039 18.4807C63.6081 18.3638 63.5102 18.2659 63.5102 18.187V17.9517C63.5102 17.7954 63.5876 17.7164 63.7455 17.7164H70.6633C70.7801 17.7164 70.8386 17.7748 70.8386 17.8917V18.1854C70.8386 18.2644 70.6822 18.3717 70.3696 18.5075C70.0569 18.6449 69.7443 18.9765 69.4316 19.5039C69.119 20.0313 68.9626 20.764 68.9626 21.7019L69.0211 35.8897C69.0211 38.5473 68.0626 40.8432 66.1488 42.7775C64.2334 44.7119 62.0243 45.6798 59.5247 45.6798H58.8204C55.6544 45.6798 53.0758 44.6645 51.0815 42.6307C49.0887 40.5984 48.0908 38.1367 48.0908 35.2439L48.1492 22.1709L48.1508 22.1693Z" fill="white"/>
<path d="M94.2319 24.6304C94.2319 24.7867 94.1735 24.8641 94.055 24.8641H93.7629C93.684 24.8641 93.4597 24.523 93.0887 23.8393C92.716 23.1555 92.1697 22.4418 91.4464 21.6997C90.7232 20.9575 89.9321 20.5264 89.0716 20.4096H81.9153C81.9153 20.4096 84.3849 20.7506 86.0824 21.7928V40.694C86.0824 41.7883 86.2387 42.6284 86.5514 43.2142C86.864 43.8016 87.1767 44.1727 87.4894 44.329C87.802 44.4853 87.9583 44.5832 87.9583 44.6211V44.9149C87.9583 45.0317 87.8794 45.0901 87.7246 45.0901H77.3471C77.2303 45.0901 77.1718 45.0317 77.1718 44.9149V44.6796C77.1718 44.6022 77.2682 44.5043 77.464 44.3874C77.6598 44.2706 77.865 44.1332 78.0798 43.9769C78.2945 43.8206 78.4998 43.489 78.6956 42.9805C78.8914 42.4721 78.9893 41.8468 78.9893 41.1046V21.3475C78.9893 20.7222 78.6956 20.4096 78.1098 20.4096H75.9986C75.138 20.5264 74.3469 20.9575 73.6237 21.6997C72.9021 22.4418 72.3542 23.1555 71.9831 23.8393C71.612 24.523 71.3878 24.8641 71.3088 24.8641H71.0151C70.8983 24.8641 70.8398 24.7867 70.8398 24.6304L71.5425 17.5957H93.5276L94.2319 24.6304Z" fill="white"/>
<path d="M152.496 37.0002C152.534 38.2508 152.34 39.3941 151.91 40.4299C151.479 41.4658 150.914 42.2964 150.21 42.9217C149.505 43.547 148.686 44.0854 147.748 44.5339C146.81 44.9839 145.891 45.2966 144.992 45.4718C144.092 45.6471 143.213 45.7355 142.354 45.7355C141.259 45.7355 139.939 45.5397 138.397 45.1497C136.852 44.7597 135.826 44.2323 135.319 43.5675V43.6843C135.357 43.8407 135.319 43.9875 135.202 44.1249C135.085 44.2623 134.927 44.3302 134.733 44.3302L133.033 44.2717C132.797 44.2717 132.68 44.1738 132.68 43.978L132.212 33.1915C132.212 32.762 132.407 32.5473 132.797 32.5473H133.442C133.754 32.5473 133.948 32.7226 134.027 33.0747C134.223 34.638 134.545 36.0559 134.995 37.3255C135.444 38.5966 136.216 39.7493 137.312 40.7852C138.406 41.8211 139.715 42.339 141.241 42.339C142.531 42.339 143.557 42.0074 144.318 41.3426C145.081 40.6778 145.441 39.8188 145.403 38.7624C145.363 37.6682 144.523 36.5739 142.883 35.4796C139.952 33.7205 137.626 32.2947 135.906 31.2004C133.014 29.2866 131.548 27.1359 131.509 24.7515C131.471 22.1714 132.485 20.267 134.558 19.0354C136.63 17.8037 138.916 17.1895 141.417 17.1895C142.591 17.1895 143.938 17.4153 145.463 17.8637C146.987 18.3137 148.043 18.909 148.629 19.6512V19.5343C148.629 19.1048 148.844 18.8901 149.273 18.8901L150.915 18.9485C151.151 18.9485 151.267 19.0464 151.267 19.2422L151.561 28.5049C151.561 28.936 151.346 29.1492 150.917 29.1492H150.273C149.921 29.1492 149.745 28.9739 149.745 28.6218C149.628 27.8796 149.461 27.1564 149.246 26.4522C149.032 25.7479 148.689 24.9284 148.22 23.9904C147.751 23.0525 147.047 22.2803 146.109 21.674C145.171 21.0692 144.058 20.7265 142.767 20.6476C139.875 20.6476 138.33 21.5855 138.136 23.4614C138.136 23.6572 138.146 23.842 138.166 24.0188C138.185 24.1941 138.234 24.3615 138.313 24.5178C138.39 24.6742 138.469 24.8115 138.548 24.9284C138.626 25.0452 138.754 25.1826 138.929 25.3389C139.104 25.4953 139.232 25.6137 139.309 25.6911C139.387 25.77 139.534 25.8774 139.748 26.0132C139.963 26.1506 140.1 26.239 140.159 26.2769C140.217 26.3164 140.364 26.4143 140.599 26.5706L140.952 26.7459C141.264 26.9417 142.3 27.4991 144.059 28.4165C145.818 29.3355 147.029 29.9908 147.694 30.3808C150.821 32.2189 152.423 34.4264 152.501 37.005L152.496 37.0002Z" fill="white"/>
<path d="M0.5 12.3835V0.167969H2.34275V5.47674H8.43315V0.167969H10.2822V12.3835H8.43315V7.05737H2.34275V12.3835H0.5Z" fill="white"/>
<path d="M23.981 6.27515C23.981 7.57944 23.7425 8.70057 23.2657 9.63694C22.7888 10.5733 22.1351 11.2934 21.3061 11.7955C20.4771 12.2992 19.5359 12.5503 18.4811 12.5503C17.4263 12.5503 16.4805 12.2992 15.6515 11.7955C14.8225 11.2918 14.1687 10.5717 13.6919 9.63379C13.215 8.69583 12.9766 7.57628 12.9766 6.27515C12.9766 4.97401 13.215 3.8513 13.6919 2.91335C14.1687 1.97697 14.8225 1.25692 15.6515 0.754786C16.4805 0.252648 17.4232 0 18.4811 0C19.5391 0 20.4771 0.251069 21.3061 0.754786C22.1351 1.2585 22.7888 1.97697 23.2657 2.91335C23.7425 3.84972 23.981 4.97085 23.981 6.27515ZM22.1572 6.27515C22.1572 5.28192 21.9977 4.44345 21.6771 3.7613C21.3566 3.07915 20.9192 2.5628 20.3649 2.21067C19.8107 1.85854 19.1822 1.68327 18.4827 1.68327C17.7832 1.68327 17.15 1.85854 16.5973 2.21067C16.0447 2.5628 15.6088 3.07915 15.2883 3.7613C14.9677 4.44345 14.8083 5.28192 14.8083 6.27515C14.8083 7.26837 14.9677 8.10684 15.2883 8.78899C15.6088 9.47114 16.0447 9.98749 16.5973 10.3396C17.15 10.6918 17.7785 10.867 18.4827 10.867C19.187 10.867 19.8107 10.6918 20.3649 10.3396C20.9192 9.98749 21.3566 9.47114 21.6771 8.78899C21.9977 8.10684 22.1572 7.26837 22.1572 6.27515Z" fill="white"/>
<path d="M34.5308 0.167969H36.3799V8.20218C36.3799 9.05802 36.1793 9.81439 35.7767 10.4713C35.3756 11.1297 34.8103 11.6461 34.0824 12.0219C33.3544 12.3977 32.5017 12.5856 31.5227 12.5856C30.5437 12.5856 29.6973 12.3977 28.9694 12.0219C28.2415 11.6461 27.6777 11.1297 27.2751 10.4713C26.874 9.81281 26.6719 9.05644 26.6719 8.20218V0.167969H28.5146V8.05375C28.5146 8.60641 28.6362 9.0975 28.881 9.527C29.1257 9.9565 29.4731 10.2928 29.9216 10.5376C30.3716 10.7823 30.9037 10.9039 31.5196 10.9039C32.1354 10.9039 32.6754 10.7823 33.127 10.5376C33.5786 10.2928 33.9245 9.9565 34.1645 9.527C34.4045 9.0975 34.5261 8.60641 34.5261 8.05375V0.167969H34.5308Z" fill="white"/>
<path d="M46.1288 3.37601C46.0657 2.81071 45.802 2.37331 45.3409 2.06066C44.8798 1.74801 44.2987 1.59168 43.5992 1.59168C43.0986 1.59168 42.6644 1.67064 42.2981 1.82696C41.9317 1.98487 41.6491 2.19804 41.4485 2.47122C41.248 2.74439 41.1469 3.0523 41.1469 3.39812C41.1469 3.68866 41.2148 3.93815 41.3522 4.14974C41.4896 4.35976 41.6696 4.53661 41.8954 4.67715C42.1196 4.81768 42.3612 4.93611 42.6202 5.02928C42.8791 5.12244 43.1271 5.19981 43.3655 5.25982L44.5577 5.56931C44.9477 5.66405 45.3472 5.79354 45.7562 5.95776C46.1651 6.1204 46.5457 6.33515 46.8947 6.60201C47.2452 6.86887 47.5279 7.19889 47.7442 7.59207C47.9605 7.98526 48.0695 8.45739 48.0695 9.00532C48.0695 9.69695 47.8911 10.3112 47.5358 10.8481C47.1805 11.385 46.6657 11.8081 45.9915 12.1192C45.3172 12.4303 44.504 12.585 43.5487 12.585C42.5933 12.585 41.8433 12.4398 41.1753 12.1492C40.5074 11.8587 39.9847 11.4465 39.6074 10.9112C39.23 10.3759 39.0215 9.74116 38.9805 9.00532H40.8295C40.8659 9.44588 41.0096 9.8138 41.2622 10.1059C41.5148 10.398 41.8386 10.6144 42.2349 10.7565C42.6312 10.8986 43.0655 10.9681 43.5376 10.9681C44.0587 10.9681 44.5229 10.886 44.9303 10.7202C45.3377 10.556 45.6583 10.3238 45.8936 10.0285C46.1288 9.73169 46.2457 9.38587 46.2457 8.98795C46.2457 8.62635 46.143 8.32949 45.9378 8.09895C45.7325 7.86841 45.4562 7.67734 45.1088 7.52575C44.7614 7.37417 44.3682 7.24153 43.9308 7.12625L42.4875 6.73307C41.5085 6.46621 40.7348 6.07461 40.1648 5.55826C39.5947 5.04191 39.3089 4.3566 39.3089 3.50707C39.3089 2.80282 39.5 2.18857 39.8821 1.66432C40.2642 1.14008 40.7806 0.7311 41.4327 0.438976C42.0849 0.146851 42.8207 0 43.6402 0C44.4598 0 45.1988 0.145274 45.832 0.435819C46.4667 0.726365 46.9657 1.12428 47.3321 1.63116C47.6984 2.13803 47.8895 2.71913 47.9053 3.37601H46.1272H46.1288Z" fill="white"/>
<path d="M50.6774 12.3835V0.167969H58.3358V1.75491H52.5201V5.47674H57.9363V7.05737H52.5201V10.7966H58.4068V12.3835H50.6758H50.6774Z" fill="white"/>
<path d="M76.6724 6.27515C76.6724 7.57944 76.4339 8.70057 75.9571 9.63694C75.4802 10.5733 74.8265 11.2934 73.9975 11.7955C73.1685 12.2992 72.2274 12.5503 71.1725 12.5503C70.1177 12.5503 69.1719 12.2992 68.3429 11.7955C67.5139 11.2918 66.8602 10.5717 66.3833 9.63379C65.9064 8.69583 65.668 7.57628 65.668 6.27515C65.668 4.97401 65.9064 3.8513 66.3833 2.91335C66.8602 1.97697 67.5139 1.25692 68.3429 0.754786C69.1719 0.252648 70.1146 0 71.1725 0C72.2305 0 73.1685 0.251069 73.9975 0.754786C74.8265 1.2585 75.4802 1.97697 75.9571 2.91335C76.4339 3.84972 76.6724 4.97085 76.6724 6.27515ZM74.847 6.27515C74.847 5.28192 74.6875 4.44345 74.367 3.7613C74.0464 3.07915 73.609 2.5628 73.0548 2.21067C72.5005 1.85854 71.8721 1.68327 71.1725 1.68327C70.473 1.68327 69.8398 1.85854 69.2872 2.21067C68.7345 2.5628 68.2987 3.07915 67.9781 3.7613C67.6576 4.44345 67.4981 5.28192 67.4981 6.27515C67.4981 7.26837 67.6576 8.10684 67.9781 8.78899C68.2987 9.47114 68.7345 9.98749 69.2872 10.3396C69.8398 10.6918 70.4683 10.867 71.1725 10.867C71.8768 10.867 72.5005 10.6918 73.0548 10.3396C73.609 9.98749 74.0464 9.47114 74.367 8.78899C74.6875 8.10684 74.847 7.26837 74.847 6.27515Z" fill="white"/>
<path d="M79.3672 12.3835V0.167969H86.9419V1.75491H81.2099V5.47674H86.3987V7.05737H81.2099V12.3835H79.3672Z" fill="white"/>
<path d="M102.165 22.7759C101.947 22.0369 100.901 22.0385 100.686 22.7791L99.7194 26.1093C99.6468 26.3619 99.4494 26.5593 99.1967 26.6335L95.8697 27.6141C95.1307 27.832 95.1323 28.8789 95.8728 29.0937L99.203 30.0601C99.4557 30.1327 99.6531 30.3301 99.7273 30.5827L100.708 33.9098C100.926 34.6488 101.973 34.6472 102.187 33.9066L103.154 30.5764C103.226 30.3238 103.424 30.1264 103.676 30.0522L107.004 29.0716C107.743 28.8537 107.741 27.8068 107 27.592L103.67 26.6256C103.418 26.553 103.22 26.3556 103.146 26.103L102.165 22.7759Z" fill="white"/>
<path d="M107.088 17.833C106.969 17.4304 106.398 17.4304 106.281 17.8346L105.753 19.6505C105.714 19.7879 105.607 19.8969 105.468 19.9363L103.653 20.4716C103.251 20.5901 103.251 21.1617 103.655 21.2785L105.471 21.8059C105.608 21.8454 105.717 21.9528 105.757 22.0917L106.292 23.9061C106.41 24.3087 106.982 24.3087 107.099 23.9045L107.626 22.0886C107.666 21.9512 107.773 21.8423 107.912 21.8028L109.726 21.2675C110.129 21.1491 110.129 20.5774 109.725 20.4606L107.909 19.9332C107.772 19.8937 107.663 19.7863 107.623 19.6474L107.088 17.833Z" fill="white"/>
<path d="M114.351 29.5036C114.818 29.6979 115.113 30.1937 114.986 30.6816L110.825 46.5053C110.714 46.9237 110.327 47.2095 109.898 47.1716C105.604 46.7942 101.609 44.8409 98.6771 41.7507C98.3408 41.3955 98.3708 40.8381 98.7261 40.5017L111.37 28.5372C111.737 28.1899 112.314 28.2104 112.707 28.5278C113.206 28.9289 113.76 29.2573 114.351 29.5021V29.5036Z" fill="white"/>
<path d="M126.978 36.7501C127.18 37.0217 127.218 37.3849 127.064 37.6865C125.505 40.723 123.072 43.3 119.994 45.0133C119.438 45.3228 118.772 44.9375 118.718 44.3027L117.581 30.9076C117.539 30.4039 117.915 29.9665 118.409 29.856C118.499 29.8354 118.59 29.8133 118.68 29.7897C119.22 29.6444 119.727 29.4391 120.196 29.1801C120.64 28.9354 121.212 29.0128 121.515 29.4186L126.978 36.7501Z" fill="white"/>
<path d="M128.401 25.1239C128.815 26.6682 129.009 28.2205 129.004 29.7458C129.001 30.4406 128.229 30.8133 127.651 30.428L123.306 27.5272C122.884 27.2462 122.778 26.6793 122.999 26.2245C123.277 25.6529 123.476 25.0402 123.585 24.407C123.67 23.9081 124.087 23.5086 124.594 23.5259L127.313 23.6144C127.687 23.627 128.019 23.8639 128.134 24.2207C128.231 24.5176 128.321 24.8192 128.401 25.1239Z" fill="white"/>
<path d="M125.98 16.9277H124.305C123.94 16.9277 123.648 17.2309 123.661 17.5957L123.771 20.5706C123.784 20.9164 124.068 21.1912 124.415 21.1912H126.752C127.174 21.1912 127.482 20.7932 127.376 20.3859L126.605 17.4109C126.531 17.1267 126.275 16.9277 125.982 16.9277H125.98Z" fill="white"/>
</svg>
