<svg width="40" height="41" viewBox="0 0 40 41" fill="none" xmlns="http://www.w3.org/2000/svg">
<path d="M18.5061 7.71829C17.8837 7.85382 17.31 8.09778 16.7265 8.4863L16.3375 8.73929L15.7541 8.54955C14.3635 8.10681 12.7978 8.26945 12.0879 8.92904C11.7768 9.21817 11.7184 9.3266 11.7184 9.66091C11.7184 9.8868 11.8157 10.2572 11.9518 10.5283C12.2046 11.0343 13.0701 12.2541 13.8481 13.2118C14.2954 13.754 14.3343 13.8353 14.1982 13.9527C13.9259 14.2148 14.0717 14.7027 14.4607 14.8201C14.6747 14.8924 13.9064 15.7056 12.5839 16.826C9.32618 19.5728 7.85778 21.6961 7.17707 24.6507C6.92423 25.7621 6.94368 27.786 7.22569 28.7257C7.90641 31.0568 9.74434 32.6923 12.3991 33.3338C13.2063 33.5326 13.391 33.5416 19.4494 33.5777C26.2274 33.6139 26.9373 33.5777 28.289 33.1531C29.4462 32.8007 30.1172 32.4031 31.041 31.5538C32.3052 30.3792 32.8595 29.1233 32.9859 27.1716C33.1026 25.2109 32.4899 22.934 31.3425 21.1088C30.6131 19.9342 29.7574 18.9945 27.7638 17.1513C25.2841 14.8563 25.0896 14.6033 26.2954 15.1183C26.8789 15.3713 27.1512 15.5701 28.6682 16.7628C29.242 17.2236 29.7476 17.6031 29.7865 17.6031C29.8254 17.6031 29.9616 17.5398 30.0783 17.4585C30.2436 17.3501 30.2922 17.2416 30.2728 17.0338C30.2533 16.8079 30.0491 16.5911 29.2322 15.9134C27.9292 14.8382 27.0442 14.278 26.2565 14.0431L25.6342 13.8534L26.0037 13.4016C26.9081 12.2993 28.0653 10.6006 28.2014 10.1759C28.3765 9.6338 28.3181 9.33563 27.9681 8.99228C27.4527 8.46823 27.0442 8.34173 25.8676 8.35077C25.0118 8.35077 24.6714 8.39595 24.1755 8.55858L23.5531 8.75736L23.3003 8.54051C22.9405 8.22427 22.1334 7.86285 21.4235 7.70925C20.665 7.54661 19.2452 7.54661 18.5061 7.71829ZM21.7346 8.82965C22.0458 8.93807 22.5223 9.21817 22.8335 9.4802C23.4462 9.98619 23.3878 9.97715 24.3505 9.6067C25.498 9.16396 27.0831 9.22721 27.1609 9.71512C27.2095 10.0133 26.84 10.5825 25.5369 12.2722L24.3894 13.763L23.4073 13.7901C22.8627 13.7991 22.4154 13.7811 22.4154 13.7359C22.4154 13.6998 22.5418 13.2751 22.7071 12.8143C22.8627 12.3444 22.9988 11.8475 22.9988 11.712C22.9988 11.2783 22.5029 11.0253 22.2014 11.3144C22.1236 11.3867 21.9 11.9198 21.6957 12.5071C21.5013 13.1034 21.3165 13.6365 21.297 13.6907C21.2679 13.7811 20.9178 13.8082 20.0037 13.8082H18.759L18.3213 12.5703C17.9421 11.459 17.8643 11.3144 17.6309 11.2421C17.417 11.1698 17.3197 11.1879 17.1641 11.3234C16.9113 11.5403 16.921 11.7029 17.2614 12.7239C17.417 13.1938 17.5531 13.6365 17.5531 13.6907C17.5531 13.7811 17.3003 13.8082 16.5904 13.8082H15.6374L14.908 12.8775C13.2841 10.7994 12.7881 10.0765 12.7881 9.7603C12.7881 9.62477 12.9048 9.53441 13.2257 9.41695C13.887 9.19106 14.9664 9.28142 15.7541 9.64284C16.0847 9.79644 16.4251 9.92294 16.5029 9.92294C16.5807 9.92294 16.7946 9.77837 16.9794 9.59766C17.4072 9.18203 17.9615 8.87482 18.6228 8.70315C19.391 8.50437 21.0248 8.56762 21.7346 8.82965ZM24.5937 15.3894C24.827 15.8321 25.2744 16.2929 26.9956 17.8741C28.1528 18.9403 29.3587 20.142 29.6796 20.5396C31.1285 22.3919 31.9454 24.6326 31.9454 26.765C31.9356 29.6654 30.2144 31.7616 27.3068 32.3941C26.6163 32.5387 26.0037 32.5567 20.0815 32.5567C14.2857 32.5567 13.5369 32.5387 12.8367 32.4031C10.5515 31.9333 8.83996 30.4786 8.26621 28.4908C7.73137 26.6656 8.13979 24.0905 9.29701 22.0395C10.0263 20.7384 10.7751 19.8348 12.156 18.597C14.6844 16.32 15.1706 15.8412 15.4526 15.3442L15.7346 14.8473H20.0231H24.3116L24.5937 15.3894Z" fill="white"/>
<path d="M16.8605 19.8619C14.9643 20.1691 13.7584 22.1026 14.2835 23.9911C14.5364 24.9307 14.8865 25.4458 15.8395 26.3222C17.0161 27.4065 19.7487 29.5298 19.9821 29.5298C20.2155 29.5298 23.551 26.9276 24.4067 26.0782C25.4862 25.003 25.8946 24.0453 25.7876 22.7803C25.6612 21.2443 24.611 20.1329 23.0453 19.8709C22.0729 19.7083 21.0323 19.9612 20.2933 20.5395L19.9918 20.7744L19.6223 20.5034C18.8735 19.9432 17.833 19.7083 16.8605 19.8619ZM18.2122 20.9009C18.5818 21.0094 18.8541 21.172 19.2236 21.5244C19.5056 21.7864 19.8168 22.0304 19.914 22.0575C20.0404 22.1026 20.2447 21.9762 20.6628 21.5876C21.3046 21.0003 21.7131 20.8196 22.4618 20.8196C23.1231 20.8196 23.5899 20.9823 24.008 21.3617C24.5234 21.8225 24.679 22.1659 24.7277 22.9339C24.7763 23.7923 24.5526 24.3886 23.9011 25.1476C23.444 25.6716 20.0988 28.3732 19.9626 28.3371C19.7779 28.2739 17.3273 26.3312 16.6271 25.6897C15.7033 24.8494 15.3241 24.2169 15.2463 23.4038C15.1198 22.1388 15.7422 21.172 16.8605 20.8919C17.4635 20.7383 17.619 20.7383 18.2122 20.9009Z" fill="white"/>
</svg>
